<mxfile host="Electron" agent="Mozilla/5.0 (X11; Linux x86_64) AppleWebKit/537.36 (KHTML, like Gecko) draw.io/26.1.1 Chrome/132.0.6834.210 Electron/34.3.3 Safari/537.36" version="26.1.1">
  <diagram name="results_charts" id="GMEIqzMEV3zenMyc8yHo">
    <mxGraphModel dx="3031" dy="809" grid="1" gridSize="10" guides="1" tooltips="1" connect="1" arrows="1" fold="1" page="1" pageScale="1" pageWidth="827" pageHeight="1169" math="0" shadow="0">
      <root>
        <mxCell id="0" />
        <mxCell id="1" parent="0" />
        <mxCell id="NrXMBwwtTCT8Mo4UM72b-13" value="&lt;font style=&quot;font-size: 18px;&quot;&gt;(a)&lt;/font&gt;" style="text;html=1;align=center;verticalAlign=middle;whiteSpace=wrap;rounded=0;" parent="1" vertex="1">
          <mxGeometry x="220" y="570" width="60" height="30" as="geometry" />
        </mxCell>
        <mxCell id="NrXMBwwtTCT8Mo4UM72b-14" value="&lt;font style=&quot;font-size: 18px;&quot;&gt;(b)&lt;/font&gt;" style="text;html=1;align=center;verticalAlign=middle;whiteSpace=wrap;rounded=0;" parent="1" vertex="1">
          <mxGeometry x="840" y="570" width="60" height="30" as="geometry" />
        </mxCell>
        <mxCell id="8TiJv9mUatl6CJzkFgJi-3" value="" style="shape=image;verticalLabelPosition=bottom;labelBackgroundColor=default;verticalAlign=top;aspect=fixed;imageAspect=0;editableCssRules=.*;image=data:image/svg+xml,PHN2ZyB4bWxucz0iaHR0cDovL3d3dy53My5vcmcvMjAwMC9zdmciIHhtbG5zOnhsaW5rPSJodHRwOi8vd3d3LnczLm9yZy8xOTk5L3hsaW5rIiB2ZXJzaW9uPSIxLjEiIHZpZXdCb3g9IjAgMCA2MjEuMjE2ODU3OTEwMTU2MiA0MjkuMzU0MzcwMTE3MTg3NSIgaGVpZ2h0PSI0MjkuMzU0MzcwMTE3MTg3NSIgd2lkdGg9IjYyMS4yMTY4NTc5MTAxNTYyIj4mI3hhOyA8bWV0YWRhdGE+JiN4YTsgICYjeGE7ICAgJiN4YTsgICAgJiN4YTsgICAgMjAyNS0wOS0xMlQwNTo1MTo0NC43NzgwOTYmI3hhOyAgICBpbWFnZS9zdmcreG1sJiN4YTsgICAgJiN4YTsgICAgICYjeGE7ICAgICAgTWF0cGxvdGxpYiB2My45LjIsIGh0dHBzOi8vbWF0cGxvdGxpYi5vcmcvJiN4YTsgICAgICYjeGE7ICAgICYjeGE7ICAgJiN4YTsgICYjeGE7IDwvbWV0YWRhdGE+JiN4YTsgPGRlZnM+JiN4YTsgIDxzdHlsZSB0eXBlPSJ0ZXh0L2NzcyI+KntzdHJva2UtbGluZWpvaW46IHJvdW5kOyBzdHJva2UtbGluZWNhcDogYnV0dH08L3N0eWxlPiYjeGE7IDwvZGVmcz4mI3hhOyA8ZyBpZD0iZmlndXJlXzEiPiYjeGE7ICA8ZyBpZD0icGF0Y2hfMSI+JiN4YTsgICA8cGF0aCBzdHlsZT0iZmlsbDogI2ZmZmZmZiIgZD0iTSAwIDQyOS4zNTQzNzUgJiMxMDtMIDYyMS4yMTY4NzUgNDI5LjM1NDM3NSAmIzEwO0wgNjIxLjIxNjg3NSAwICYjMTA7TCAwIDAgJiMxMDt6Ii8+JiN4YTsgIDwvZz4mI3hhOyAgPGcgaWQ9ImF4ZXNfMSI+JiN4YTsgICA8ZyBpZD0icGF0Y2hfMiI+JiN4YTsgICAgPHBhdGggc3R5bGU9ImZpbGw6ICNmZmZmZmYiIGQ9Ik0gNjQuODU2ODc1IDM4Mi4xMiAmIzEwO0wgNjE0LjAxNjg3NSAzODIuMTIgJiMxMDtMIDYxNC4wMTY4NzUgNy4yICYjMTA7TCA2NC44NTY4NzUgNy4yICYjMTA7eiIvPiYjeGE7ICAgPC9nPiYjeGE7ICAgPGcgaWQ9IlBvbHlDb2xsZWN0aW9uXzEiPiYjeGE7ICAgIDxkZWZzPiYjeGE7ICAgICA8cGF0aCBkPSJNIDEyMS4wMjA5NjYgLTM2Ny41OTc0ODkgJiMxMDtMIDEyMS4wMjA5NjYgLTM1MC40NDUyMDcgJiMxMDtMIDE1Mi4yMjMyMzkgLTM2MS40NTY3NzcgJiMxMDtMIDIxNC42Mjc3ODQgLTM3NS44MjMwODQgJiMxMDtMIDI3Ny4wMzIzMyAtMzc3LjM5MTExNiAmIzEwO0wgMzM5LjQzNjg3NSAtMzgzLjY4MDAyOSAmIzEwO0wgNDAxLjg0MTQyIC0zODEuNDc1ODk4ICYjMTA7TCA0NjQuMjQ1OTY2IC0zODMuNTI1NzQyICYjMTA7TCA1MjYuNjUwNTExIC0zODYuMTI0MjUyICYjMTA7TCA1ODkuMDU1MDU3IC0zODYuOTA0Njk1ICYjMTA7TCA1ODkuMDU1MDU3IC0zODguMDE0Mjg0ICYjMTA7TCA1ODkuMDU1MDU3IC0zODguMDE0Mjg0ICYjMTA7TCA1MjYuNjUwNTExIC0zODguNzIzODY1ICYjMTA7TCA0NjQuMjQ1OTY2IC0zODguNjU3NzAzICYjMTA7TCA0MDEuODQxNDIgLTM4Ny45MDI3MSAmIzEwO0wgMzM5LjQzNjg3NSAtMzg1Ljc2MTcyOCAmIzEwO0wgMjc3LjAzMjMzIC0zODEuODY0MzE2ICYjMTA7TCAyMTQuNjI3Nzg0IC0zODAuMDc4MTM0ICYjMTA7TCAxNTIuMjIzMjM5IC0zNzIuNzU0NTkzICYjMTA7TCAxMjEuMDIwOTY2IC0zNjcuNTk3NDg5ICYjMTA7eiIgaWQ9Im0yNjk4OGEwMDliIi8+JiN4YTsgICAgPC9kZWZzPiYjeGE7ICAgIDxnIGNsaXAtcGF0aD0idXJsKCNwMzE1ZDJmY2MzYykiPiYjeGE7ICAgICA8dXNlIHN0eWxlPSJmaWxsOiAjMWY3N2I0OyBmaWxsLW9wYWNpdHk6IDAuMTUiIHk9IjQyOS4zNTQzNzUiIHg9IjAiIHhsaW5rOmhyZWY9IiNtMjY5ODhhMDA5YiIvPiYjeGE7ICAgIDwvZz4mI3hhOyAgIDwvZz4mI3hhOyAgIDxnIGlkPSJQb2x5Q29sbGVjdGlvbl8yIj4mI3hhOyAgICA8ZGVmcz4mI3hhOyAgICAgPHBhdGggZD0iTSAxMjEuMDIwOTY2IC0zNjQuNTgwODQ1ICYjMTA7TCAxMjEuMDIwOTY2IC0zNTUuNTcyMzUxICYjMTA7TCAxNTIuMjIzMjM5IC0zNTYuNTAxMTU4ICYjMTA7TCAyMTQuNjI3Nzg0IC0zNzIuMzU2MzkzICYjMTA7TCAyNzcuMDMyMzMgLTM3MS42MDA1MDMgJiMxMDtMIDMzOS40MzY4NzUgLTM3NS4zNjE5MDYgJiMxMDtMIDQwMS44NDE0MiAtMzc2LjQ4OTI4NSAmIzEwO0wgNDY0LjI0NTk2NiAtMzgwLjIzOTcxNSAmIzEwO0wgNTI2LjY1MDUxMSAtMzgxLjI5NTA0ICYjMTA7TCA1ODkuMDU1MDU3IC0zODMuNTI5OTQ1ICYjMTA7TCA1ODkuMDU1MDU3IC0zODMuOTc3MDY0ICYjMTA7TCA1ODkuMDU1MDU3IC0zODMuOTc3MDY0ICYjMTA7TCA1MjYuNjUwNTExIC0zODMuNjQzNzI4ICYjMTA7TCA0NjQuMjQ1OTY2IC0zODMuNjk3Njk5ICYjMTA7TCA0MDEuODQxNDIgLTM4My4wNDQ3MjcgJiMxMDtMIDMzOS40MzY4NzUgLTM3OC4wNDIyMiAmIzEwO0wgMjc3LjAzMjMzIC0zNzUuODMyODczICYjMTA7TCAyMTQuNjI3Nzg0IC0zNzQuNzM3ODQxICYjMTA7TCAxNTIuMjIzMjM5IC0zNjcuODMxMDk5ICYjMTA7TCAxMjEuMDIwOTY2IC0zNjQuNTgwODQ1ICYjMTA7eiIgaWQ9Im1hMDhlMzZiNDYxIi8+JiN4YTsgICAgPC9kZWZzPiYjeGE7ICAgIDxnIGNsaXAtcGF0aD0idXJsKCNwMzE1ZDJmY2MzYykiPiYjeGE7ICAgICA8dXNlIHN0eWxlPSJmaWxsOiAjZmY3ZjBlOyBmaWxsLW9wYWNpdHk6IDAuMTUiIHk9IjQyOS4zNTQzNzUiIHg9IjAiIHhsaW5rOmhyZWY9IiNtYTA4ZTM2YjQ2MSIvPiYjeGE7ICAgIDwvZz4mI3hhOyAgIDwvZz4mI3hhOyAgIDxnIGlkPSJQb2x5Q29sbGVjdGlvbl8zIj4mI3hhOyAgICA8ZGVmcz4mI3hhOyAgICAgPHBhdGggZD0iTSAxMjEuMDIwOTY2IC0zMzguNzc1NzY0ICYjMTA7TCAxMjEuMDIwOTY2IC0yNzUuNTMxMzQyICYjMTA7TCAxNTIuMjIzMjM5IC0zMjYuOTM3MDUgJiMxMDtMIDIxNC42Mjc3ODQgLTM1NS44MjAwNTEgJiMxMDtMIDI3Ny4wMzIzMyAtMzYxLjk5MjQwMyAmIzEwO0wgMzM5LjQzNjg3NSAtMzY2LjUzNTY5MiAmIzEwO0wgNDAxLjg0MTQyIC0zNzYuNzc5NzMgJiMxMDtMIDQ2NC4yNDU5NjYgLTM3Ny4wMTc4MzMgJiMxMDtMIDUyNi42NTA1MTEgLTM3Ny4zNDQ3NzEgJiMxMDtMIDU4OS4wNTUwNTcgLTM3OC40Nzc5ODEgJiMxMDtMIDU4OS4wNTUwNTcgLTM4MC44MjQ1NTkgJiMxMDtMIDU4OS4wNTUwNTcgLTM4MC44MjQ1NTkgJiMxMDtMIDUyNi42NTA1MTEgLTM4MC42NjMwMjUgJiMxMDtMIDQ2NC4yNDU5NjYgLTM4MS4xMjk3OTIgJiMxMDtMIDQwMS44NDE0MiAtMzgxLjI5MDM4ICYjMTA7TCAzMzkuNDM2ODc1IC0zNzIuMDEwNTM4ICYjMTA7TCAyNzcuMDMyMzMgLTM2Ny42ODk3NjggJiMxMDtMIDIxNC42Mjc3ODQgLTM2NC4zNjM4NDkgJiMxMDtMIDE1Mi4yMjMyMzkgLTM2NC4yODA4ODQgJiMxMDtMIDEyMS4wMjA5NjYgLTMzOC43NzU3NjQgJiMxMDt6IiBpZD0ibTNiZTE5ODUyYmMiLz4mI3hhOyAgICA8L2RlZnM+JiN4YTsgICAgPGcgY2xpcC1wYXRoPSJ1cmwoI3AzMTVkMmZjYzNjKSI+JiN4YTsgICAgIDx1c2Ugc3R5bGU9ImZpbGw6ICMyY2EwMmM7IGZpbGwtb3BhY2l0eTogMC4xNSIgeT0iNDI5LjM1NDM3NSIgeD0iMCIgeGxpbms6aHJlZj0iI20zYmUxOTg1MmJjIi8+JiN4YTsgICAgPC9nPiYjeGE7ICAgPC9nPiYjeGE7ICAgPGcgaWQ9IlBvbHlDb2xsZWN0aW9uXzQiPiYjeGE7ICAgIDxkZWZzPiYjeGE7ICAgICA8cGF0aCBkPSJNIDEyMS4wMjA5NjYgLTM0NC4wMzMyMzMgJiMxMDtMIDEyMS4wMjA5NjYgLTI3MS4wNjA1NTggJiMxMDtMIDE1Mi4yMjMyMzkgLTMxOC42MzY4ODEgJiMxMDtMIDIxNC42Mjc3ODQgLTM0Ny40Mzg0NTEgJiMxMDtMIDI3Ny4wMzIzMyAtMzU1Ljg2MTU0OSAmIzEwO0wgMzM5LjQzNjg3NSAtMzYxLjI5MzEzMyAmIzEwO0wgNDAxLjg0MTQyIC0zNzUuMDExNjQyICYjMTA7TCA0NjQuMjQ1OTY2IC0zNzIuNzQ2ODEzICYjMTA7TCA1MjYuNjUwNTExIC0zNzUuNDYxNDIyICYjMTA7TCA1ODkuMDU1MDU3IC0zNzYuMTc1MzczICYjMTA7TCA1ODkuMDU1MDU3IC0zODAuMDE2Mzk0ICYjMTA7TCA1ODkuMDU1MDU3IC0zODAuMDE2Mzk0ICYjMTA7TCA1MjYuNjUwNTExIC0zODAuMDM4ODUxICYjMTA7TCA0NjQuMjQ1OTY2IC0zNzcuNDQ5MDU4ICYjMTA7TCA0MDEuODQxNDIgLTM3OS42MTY2NDUgJiMxMDtMIDMzOS40MzY4NzUgLTM2Ny40MjQ2MTcgJiMxMDtMIDI3Ny4wMzIzMyAtMzY2LjU5MzgwMyAmIzEwO0wgMjE0LjYyNzc4NCAtMzYwLjQ2Nzk2NSAmIzEwO0wgMTUyLjIyMzIzOSAtMzU2LjUwNTQgJiMxMDtMIDEyMS4wMjA5NjYgLTM0NC4wMzMyMzMgJiMxMDt6IiBpZD0ibThlYmRiMzcwNTUiLz4mI3hhOyAgICA8L2RlZnM+JiN4YTsgICAgPGcgY2xpcC1wYXRoPSJ1cmwoI3AzMTVkMmZjYzNjKSI+JiN4YTsgICAgIDx1c2Ugc3R5bGU9ImZpbGw6ICNkNjI3Mjg7IGZpbGwtb3BhY2l0eTogMC4xNSIgeT0iNDI5LjM1NDM3NSIgeD0iMCIgeGxpbms6aHJlZj0iI204ZWJkYjM3MDU1Ii8+JiN4YTsgICAgPC9nPiYjeGE7ICAgPC9nPiYjeGE7ICAgPGcgaWQ9Im1hdHBsb3RsaWIuYXhpc18xIj4mI3hhOyAgICA8ZyBpZD0ieHRpY2tfMSI+JiN4YTsgICAgIDxnIGlkPSJsaW5lMmRfMSI+JiN4YTsgICAgICA8cGF0aCBzdHlsZT0iZmlsbDogbm9uZTsgc3Ryb2tlLWRhc2hhcnJheTogMC44LDEuMzI7IHN0cm9rZS1kYXNob2Zmc2V0OiAwOyBzdHJva2U6ICNiMGIwYjA7IHN0cm9rZS13aWR0aDogMC44IiBjbGlwLXBhdGg9InVybCgjcDMxNWQyZmNjM2MpIiBkPSJNIDg5LjgxODY5MyAzODIuMTIgJiMxMDtMIDg5LjgxODY5MyA3LjIiLz4mI3hhOyAgICAgPC9nPiYjeGE7ICAgICA8ZyBpZD0ibGluZTJkXzIiPiYjeGE7ICAgICAgPGRlZnM+JiN4YTsgICAgICAgPHBhdGggc3R5bGU9InN0cm9rZTogIzAwMDAwMDsgc3Ryb2tlLXdpZHRoOiAwLjgiIGQ9Ik0gMCAwICYjMTA7TCAwIDMuNSIgaWQ9Im0xYmQ3MzUzZDg3Ii8+JiN4YTsgICAgICA8L2RlZnM+JiN4YTsgICAgICA8Zz4mI3hhOyAgICAgICA8dXNlIHN0eWxlPSJzdHJva2U6ICMwMDAwMDA7IHN0cm9rZS13aWR0aDogMC44IiB5PSIzODIuMTIiIHg9Ijg5LjgxODY5MyIgeGxpbms6aHJlZj0iI20xYmQ3MzUzZDg3Ii8+JiN4YTsgICAgICA8L2c+JiN4YTsgICAgIDwvZz4mI3hhOyAgICAgPGcgaWQ9InRleHRfMSI+JiN4YTsgICAgICAmI3hhOyAgICAgIDxnIHRyYW5zZm9ybT0idHJhbnNsYXRlKDg1LjM2NDk0MyAzOTkuNzU3ODEyKSBzY2FsZSgwLjE0IC0wLjE0KSI+JiN4YTsgICAgICAgPGRlZnM+JiN4YTsgICAgICAgIDxwYXRoIHRyYW5zZm9ybT0ic2NhbGUoMC4wMTU2MjUpIiBkPSJNIDIwMzQgNDI1MCAmIzEwO1EgMTU0NyA0MjUwIDEzMDEgMzc3MCAmIzEwO1EgMTA1NiAzMjkxIDEwNTYgMjMyOCAmIzEwO1EgMTA1NiAxMzY5IDEzMDEgODg5ICYjMTA7USAxNTQ3IDQwOSAyMDM0IDQwOSAmIzEwO1EgMjUyNSA0MDkgMjc3MCA4ODkgJiMxMDtRIDMwMTYgMTM2OSAzMDE2IDIzMjggJiMxMDtRIDMwMTYgMzI5MSAyNzcwIDM3NzAgJiMxMDtRIDI1MjUgNDI1MCAyMDM0IDQyNTAgJiMxMDt6JiMxMDtNIDIwMzQgNDc1MCAmIzEwO1EgMjgxOSA0NzUwIDMyMzMgNDEyOSAmIzEwO1EgMzY0NyAzNTA5IDM2NDcgMjMyOCAmIzEwO1EgMzY0NyAxMTUwIDMyMzMgNTI5ICYjMTA7USAyODE5IC05MSAyMDM0IC05MSAmIzEwO1EgMTI1MCAtOTEgODM2IDUyOSAmIzEwO1EgNDIyIDExNTAgNDIyIDIzMjggJiMxMDtRIDQyMiAzNTA5IDgzNiA0MTI5ICYjMTA7USAxMjUwIDQ3NTAgMjAzNCA0NzUwICYjMTA7eiIgaWQ9IkRlamFWdVNhbnMtMzAiLz4mI3hhOyAgICAgICA8L2RlZnM+JiN4YTsgICAgICAgPHVzZSB4bGluazpocmVmPSIjRGVqYVZ1U2Fucy0zMCIvPiYjeGE7ICAgICAgPC9nPiYjeGE7ICAgICA8L2c+JiN4YTsgICAgPC9nPiYjeGE7ICAgIDxnIGlkPSJ4dGlja18yIj4mI3hhOyAgICAgPGcgaWQ9ImxpbmUyZF8zIj4mI3hhOyAgICAgIDxwYXRoIHN0eWxlPSJmaWxsOiBub25lOyBzdHJva2UtZGFzaGFycmF5OiAwLjgsMS4zMjsgc3Ryb2tlLWRhc2hvZmZzZXQ6IDA7IHN0cm9rZTogI2IwYjBiMDsgc3Ryb2tlLXdpZHRoOiAwLjgiIGNsaXAtcGF0aD0idXJsKCNwMzE1ZDJmY2MzYykiIGQ9Ik0gMTUyLjIyMzIzOSAzODIuMTIgJiMxMDtMIDE1Mi4yMjMyMzkgNy4yIi8+JiN4YTsgICAgIDwvZz4mI3hhOyAgICAgPGcgaWQ9ImxpbmUyZF80Ij4mI3hhOyAgICAgIDxnPiYjeGE7ICAgICAgIDx1c2Ugc3R5bGU9InN0cm9rZTogIzAwMDAwMDsgc3Ryb2tlLXdpZHRoOiAwLjgiIHk9IjM4Mi4xMiIgeD0iMTUyLjIyMzIzOSIgeGxpbms6aHJlZj0iI20xYmQ3MzUzZDg3Ii8+JiN4YTsgICAgICA8L2c+JiN4YTsgICAgIDwvZz4mI3hhOyAgICAgPGcgaWQ9InRleHRfMiI+JiN4YTsgICAgICAmI3hhOyAgICAgIDxnIHRyYW5zZm9ybT0idHJhbnNsYXRlKDE0Ny43Njk0ODkgMzk5Ljc1NzgxMikgc2NhbGUoMC4xNCAtMC4xNCkiPiYjeGE7ICAgICAgIDxkZWZzPiYjeGE7ICAgICAgICA8cGF0aCB0cmFuc2Zvcm09InNjYWxlKDAuMDE1NjI1KSIgZD0iTSAxMjI4IDUzMSAmIzEwO0wgMzQzMSA1MzEgJiMxMDtMIDM0MzEgMCAmIzEwO0wgNDY5IDAgJiMxMDtMIDQ2OSA1MzEgJiMxMDtRIDgyOCA5MDMgMTQ0OCAxNTI5ICYjMTA7USAyMDY5IDIxNTYgMjIyOCAyMzM4ICYjMTA7USAyNTMxIDI2NzggMjY1MSAyOTE0ICYjMTA7USAyNzcyIDMxNTAgMjc3MiAzMzc4ICYjMTA7USAyNzcyIDM3NTAgMjUxMSAzOTg0ICYjMTA7USAyMjUwIDQyMTkgMTgzMSA0MjE5ICYjMTA7USAxNTM0IDQyMTkgMTIwNCA0MTE2ICYjMTA7USA4NzUgNDAxMyA1MDAgMzgwMyAmIzEwO0wgNTAwIDQ0NDEgJiMxMDtRIDg4MSA0NTk0IDEyMTIgNDY3MiAmIzEwO1EgMTU0NCA0NzUwIDE4MTkgNDc1MCAmIzEwO1EgMjU0NCA0NzUwIDI5NzUgNDM4NyAmIzEwO1EgMzQwNiA0MDI1IDM0MDYgMzQxOSAmIzEwO1EgMzQwNiAzMTMxIDMyOTggMjg3MyAmIzEwO1EgMzE5MSAyNjE2IDI5MDYgMjI2NiAmIzEwO1EgMjgyOCAyMTc1IDI0MDkgMTc0MiAmIzEwO1EgMTk5MSAxMzA5IDEyMjggNTMxICYjMTA7eiIgaWQ9IkRlamFWdVNhbnMtMzIiLz4mI3hhOyAgICAgICA8L2RlZnM+JiN4YTsgICAgICAgPHVzZSB4bGluazpocmVmPSIjRGVqYVZ1U2Fucy0zMiIvPiYjeGE7ICAgICAgPC9nPiYjeGE7ICAgICA8L2c+JiN4YTsgICAgPC9nPiYjeGE7ICAgIDxnIGlkPSJ4dGlja18zIj4mI3hhOyAgICAgPGcgaWQ9ImxpbmUyZF81Ij4mI3hhOyAgICAgIDxwYXRoIHN0eWxlPSJmaWxsOiBub25lOyBzdHJva2UtZGFzaGFycmF5OiAwLjgsMS4zMjsgc3Ryb2tlLWRhc2hvZmZzZXQ6IDA7IHN0cm9rZTogI2IwYjBiMDsgc3Ryb2tlLXdpZHRoOiAwLjgiIGNsaXAtcGF0aD0idXJsKCNwMzE1ZDJmY2MzYykiIGQ9Ik0gMjE0LjYyNzc4NCAzODIuMTIgJiMxMDtMIDIxNC42Mjc3ODQgNy4yIi8+JiN4YTsgICAgIDwvZz4mI3hhOyAgICAgPGcgaWQ9ImxpbmUyZF82Ij4mI3hhOyAgICAgIDxnPiYjeGE7ICAgICAgIDx1c2Ugc3R5bGU9InN0cm9rZTogIzAwMDAwMDsgc3Ryb2tlLXdpZHRoOiAwLjgiIHk9IjM4Mi4xMiIgeD0iMjE0LjYyNzc4NCIgeGxpbms6aHJlZj0iI20xYmQ3MzUzZDg3Ii8+JiN4YTsgICAgICA8L2c+JiN4YTsgICAgIDwvZz4mI3hhOyAgICAgPGcgaWQ9InRleHRfMyI+JiN4YTsgICAgICAmI3hhOyAgICAgIDxnIHRyYW5zZm9ybT0idHJhbnNsYXRlKDIxMC4xNzQwMzQgMzk5Ljc1NzgxMikgc2NhbGUoMC4xNCAtMC4xNCkiPiYjeGE7ICAgICAgIDxkZWZzPiYjeGE7ICAgICAgICA8cGF0aCB0cmFuc2Zvcm09InNjYWxlKDAuMDE1NjI1KSIgZD0iTSAyNDE5IDQxMTYgJiMxMDtMIDgyNSAxNjI1ICYjMTA7TCAyNDE5IDE2MjUgJiMxMDtMIDI0MTkgNDExNiAmIzEwO3omIzEwO00gMjI1MyA0NjY2ICYjMTA7TCAzMDQ3IDQ2NjYgJiMxMDtMIDMwNDcgMTYyNSAmIzEwO0wgMzcxMyAxNjI1ICYjMTA7TCAzNzEzIDExMDAgJiMxMDtMIDMwNDcgMTEwMCAmIzEwO0wgMzA0NyAwICYjMTA7TCAyNDE5IDAgJiMxMDtMIDI0MTkgMTEwMCAmIzEwO0wgMzEzIDExMDAgJiMxMDtMIDMxMyAxNzA5ICYjMTA7TCAyMjUzIDQ2NjYgJiMxMDt6IiBpZD0iRGVqYVZ1U2Fucy0zNCIvPiYjeGE7ICAgICAgIDwvZGVmcz4mI3hhOyAgICAgICA8dXNlIHhsaW5rOmhyZWY9IiNEZWphVnVTYW5zLTM0Ii8+JiN4YTsgICAgICA8L2c+JiN4YTsgICAgIDwvZz4mI3hhOyAgICA8L2c+JiN4YTsgICAgPGcgaWQ9Inh0aWNrXzQiPiYjeGE7ICAgICA8ZyBpZD0ibGluZTJkXzciPiYjeGE7ICAgICAgPHBhdGggc3R5bGU9ImZpbGw6IG5vbmU7IHN0cm9rZS1kYXNoYXJyYXk6IDAuOCwxLjMyOyBzdHJva2UtZGFzaG9mZnNldDogMDsgc3Ryb2tlOiAjYjBiMGIwOyBzdHJva2Utd2lkdGg6IDAuOCIgY2xpcC1wYXRoPSJ1cmwoI3AzMTVkMmZjYzNjKSIgZD0iTSAyNzcuMDMyMzMgMzgyLjEyICYjMTA7TCAyNzcuMDMyMzMgNy4yIi8+JiN4YTsgICAgIDwvZz4mI3hhOyAgICAgPGcgaWQ9ImxpbmUyZF84Ij4mI3hhOyAgICAgIDxnPiYjeGE7ICAgICAgIDx1c2Ugc3R5bGU9InN0cm9rZTogIzAwMDAwMDsgc3Ryb2tlLXdpZHRoOiAwLjgiIHk9IjM4Mi4xMiIgeD0iMjc3LjAzMjMzIiB4bGluazpocmVmPSIjbTFiZDczNTNkODciLz4mI3hhOyAgICAgIDwvZz4mI3hhOyAgICAgPC9nPiYjeGE7ICAgICA8ZyBpZD0idGV4dF80Ij4mI3hhOyAgICAgICYjeGE7ICAgICAgPGcgdHJhbnNmb3JtPSJ0cmFuc2xhdGUoMjcyLjU3ODU4IDM5OS43NTc4MTIpIHNjYWxlKDAuMTQgLTAuMTQpIj4mI3hhOyAgICAgICA8ZGVmcz4mI3hhOyAgICAgICAgPHBhdGggdHJhbnNmb3JtPSJzY2FsZSgwLjAxNTYyNSkiIGQ9Ik0gMjExMyAyNTg0ICYjMTA7USAxNjg4IDI1ODQgMTQzOSAyMjkzICYjMTA7USAxMTkxIDIwMDMgMTE5MSAxNDk3ICYjMTA7USAxMTkxIDk5NCAxNDM5IDcwMSAmIzEwO1EgMTY4OCA0MDkgMjExMyA0MDkgJiMxMDtRIDI1MzggNDA5IDI3ODYgNzAxICYjMTA7USAzMDM0IDk5NCAzMDM0IDE0OTcgJiMxMDtRIDMwMzQgMjAwMyAyNzg2IDIyOTMgJiMxMDtRIDI1MzggMjU4NCAyMTEzIDI1ODQgJiMxMDt6JiMxMDtNIDMzNjYgNDU2MyAmIzEwO0wgMzM2NiAzOTg4ICYjMTA7USAzMTI4IDQxMDAgMjg4NiA0MTU5ICYjMTA7USAyNjQ0IDQyMTkgMjQwNiA0MjE5ICYjMTA7USAxNzgxIDQyMTkgMTQ1MSAzNzk3ICYjMTA7USAxMTIyIDMzNzUgMTA3NSAyNTIyICYjMTA7USAxMjU5IDI3OTQgMTUzNyAyOTM5ICYjMTA7USAxODE2IDMwODQgMjE1MCAzMDg0ICYjMTA7USAyODUzIDMwODQgMzI2MSAyNjU3ICYjMTA7USAzNjY5IDIyMzEgMzY2OSAxNDk3ICYjMTA7USAzNjY5IDc3OCAzMjQ0IDM0MyAmIzEwO1EgMjgxOSAtOTEgMjExMyAtOTEgJiMxMDtRIDEzMDMgLTkxIDg3NSA1MjkgJiMxMDtRIDQ0NyAxMTUwIDQ0NyAyMzI4ICYjMTA7USA0NDcgMzQzNCA5NzIgNDA5MiAmIzEwO1EgMTQ5NyA0NzUwIDIzODEgNDc1MCAmIzEwO1EgMjYxOSA0NzUwIDI4NjEgNDcwMyAmIzEwO1EgMzEwMyA0NjU2IDMzNjYgNDU2MyAmIzEwO3oiIGlkPSJEZWphVnVTYW5zLTM2Ii8+JiN4YTsgICAgICAgPC9kZWZzPiYjeGE7ICAgICAgIDx1c2UgeGxpbms6aHJlZj0iI0RlamFWdVNhbnMtMzYiLz4mI3hhOyAgICAgIDwvZz4mI3hhOyAgICAgPC9nPiYjeGE7ICAgIDwvZz4mI3hhOyAgICA8ZyBpZD0ieHRpY2tfNSI+JiN4YTsgICAgIDxnIGlkPSJsaW5lMmRfOSI+JiN4YTsgICAgICA8cGF0aCBzdHlsZT0iZmlsbDogbm9uZTsgc3Ryb2tlLWRhc2hhcnJheTogMC44LDEuMzI7IHN0cm9rZS1kYXNob2Zmc2V0OiAwOyBzdHJva2U6ICNiMGIwYjA7IHN0cm9rZS13aWR0aDogMC44IiBjbGlwLXBhdGg9InVybCgjcDMxNWQyZmNjM2MpIiBkPSJNIDMzOS40MzY4NzUgMzgyLjEyICYjMTA7TCAzMzkuNDM2ODc1IDcuMiIvPiYjeGE7ICAgICA8L2c+JiN4YTsgICAgIDxnIGlkPSJsaW5lMmRfMTAiPiYjeGE7ICAgICAgPGc+JiN4YTsgICAgICAgPHVzZSBzdHlsZT0ic3Ryb2tlOiAjMDAwMDAwOyBzdHJva2Utd2lkdGg6IDAuOCIgeT0iMzgyLjEyIiB4PSIzMzkuNDM2ODc1IiB4bGluazpocmVmPSIjbTFiZDczNTNkODciLz4mI3hhOyAgICAgIDwvZz4mI3hhOyAgICAgPC9nPiYjeGE7ICAgICA8ZyBpZD0idGV4dF81Ij4mI3hhOyAgICAgICYjeGE7ICAgICAgPGcgdHJhbnNmb3JtPSJ0cmFuc2xhdGUoMzM0Ljk4MzEyNSAzOTkuNzU3ODEyKSBzY2FsZSgwLjE0IC0wLjE0KSI+JiN4YTsgICAgICAgPGRlZnM+JiN4YTsgICAgICAgIDxwYXRoIHRyYW5zZm9ybT0ic2NhbGUoMC4wMTU2MjUpIiBkPSJNIDIwMzQgMjIxNiAmIzEwO1EgMTU4NCAyMjE2IDEzMjYgMTk3NSAmIzEwO1EgMTA2OSAxNzM0IDEwNjkgMTMxMyAmIzEwO1EgMTA2OSA4OTEgMTMyNiA2NTAgJiMxMDtRIDE1ODQgNDA5IDIwMzQgNDA5ICYjMTA7USAyNDg0IDQwOSAyNzQzIDY1MSAmIzEwO1EgMzAwMyA4OTQgMzAwMyAxMzEzICYjMTA7USAzMDAzIDE3MzQgMjc0NSAxOTc1ICYjMTA7USAyNDg4IDIyMTYgMjAzNCAyMjE2ICYjMTA7eiYjMTA7TSAxNDAzIDI0ODQgJiMxMDtRIDk5NyAyNTg0IDc3MCAyODYyICYjMTA7USA1NDQgMzE0MSA1NDQgMzU0MSAmIzEwO1EgNTQ0IDQxMDAgOTQyIDQ0MjUgJiMxMDtRIDEzNDEgNDc1MCAyMDM0IDQ3NTAgJiMxMDtRIDI3MzEgNDc1MCAzMTI4IDQ0MjUgJiMxMDtRIDM1MjUgNDEwMCAzNTI1IDM1NDEgJiMxMDtRIDM1MjUgMzE0MSAzMjk4IDI4NjIgJiMxMDtRIDMwNzIgMjU4NCAyNjY5IDI0ODQgJiMxMDtRIDMxMjUgMjM3OCAzMzc5IDIwNjggJiMxMDtRIDM2MzQgMTc1OSAzNjM0IDEzMTMgJiMxMDtRIDM2MzQgNjM0IDMyMjAgMjcxICYjMTA7USAyODA2IC05MSAyMDM0IC05MSAmIzEwO1EgMTI2MyAtOTEgODQ4IDI3MSAmIzEwO1EgNDM0IDYzNCA0MzQgMTMxMyAmIzEwO1EgNDM0IDE3NTkgNjkwIDIwNjggJiMxMDtRIDk0NyAyMzc4IDE0MDMgMjQ4NCAmIzEwO3omIzEwO00gMTE3MiAzNDgxICYjMTA7USAxMTcyIDMxMTkgMTM5OCAyOTE2ICYjMTA7USAxNjI1IDI3MTMgMjAzNCAyNzEzICYjMTA7USAyNDQxIDI3MTMgMjY3MCAyOTE2ICYjMTA7USAyOTAwIDMxMTkgMjkwMCAzNDgxICYjMTA7USAyOTAwIDM4NDQgMjY3MCA0MDQ3ICYjMTA7USAyNDQxIDQyNTAgMjAzNCA0MjUwICYjMTA7USAxNjI1IDQyNTAgMTM5OCA0MDQ3ICYjMTA7USAxMTcyIDM4NDQgMTE3MiAzNDgxICYjMTA7eiIgaWQ9IkRlamFWdVNhbnMtMzgiLz4mI3hhOyAgICAgICA8L2RlZnM+JiN4YTsgICAgICAgPHVzZSB4bGluazpocmVmPSIjRGVqYVZ1U2Fucy0zOCIvPiYjeGE7ICAgICAgPC9nPiYjeGE7ICAgICA8L2c+JiN4YTsgICAgPC9nPiYjeGE7ICAgIDxnIGlkPSJ4dGlja182Ij4mI3hhOyAgICAgPGcgaWQ9ImxpbmUyZF8xMSI+JiN4YTsgICAgICA8cGF0aCBzdHlsZT0iZmlsbDogbm9uZTsgc3Ryb2tlLWRhc2hhcnJheTogMC44LDEuMzI7IHN0cm9rZS1kYXNob2Zmc2V0OiAwOyBzdHJva2U6ICNiMGIwYjA7IHN0cm9rZS13aWR0aDogMC44IiBjbGlwLXBhdGg9InVybCgjcDMxNWQyZmNjM2MpIiBkPSJNIDQwMS44NDE0MiAzODIuMTIgJiMxMDtMIDQwMS44NDE0MiA3LjIiLz4mI3hhOyAgICAgPC9nPiYjeGE7ICAgICA8ZyBpZD0ibGluZTJkXzEyIj4mI3hhOyAgICAgIDxnPiYjeGE7ICAgICAgIDx1c2Ugc3R5bGU9InN0cm9rZTogIzAwMDAwMDsgc3Ryb2tlLXdpZHRoOiAwLjgiIHk9IjM4Mi4xMiIgeD0iNDAxLjg0MTQyIiB4bGluazpocmVmPSIjbTFiZDczNTNkODciLz4mI3hhOyAgICAgIDwvZz4mI3hhOyAgICAgPC9nPiYjeGE7ICAgICA8ZyBpZD0idGV4dF82Ij4mI3hhOyAgICAgICYjeGE7ICAgICAgPGcgdHJhbnNmb3JtPSJ0cmFuc2xhdGUoMzkyLjkzMzkyIDM5OS43NTc4MTIpIHNjYWxlKDAuMTQgLTAuMTQpIj4mI3hhOyAgICAgICA8ZGVmcz4mI3hhOyAgICAgICAgPHBhdGggdHJhbnNmb3JtPSJzY2FsZSgwLjAxNTYyNSkiIGQ9Ik0gNzk0IDUzMSAmIzEwO0wgMTgyNSA1MzEgJiMxMDtMIDE4MjUgNDA5MSAmIzEwO0wgNzAzIDM4NjYgJiMxMDtMIDcwMyA0NDQxICYjMTA7TCAxODE5IDQ2NjYgJiMxMDtMIDI0NTAgNDY2NiAmIzEwO0wgMjQ1MCA1MzEgJiMxMDtMIDM0ODEgNTMxICYjMTA7TCAzNDgxIDAgJiMxMDtMIDc5NCAwICYjMTA7TCA3OTQgNTMxICYjMTA7eiIgaWQ9IkRlamFWdVNhbnMtMzEiLz4mI3hhOyAgICAgICA8L2RlZnM+JiN4YTsgICAgICAgPHVzZSB4bGluazpocmVmPSIjRGVqYVZ1U2Fucy0zMSIvPiYjeGE7ICAgICAgIDx1c2UgeD0iNjMuNjIzMDQ3IiB4bGluazpocmVmPSIjRGVqYVZ1U2Fucy0zMCIvPiYjeGE7ICAgICAgPC9nPiYjeGE7ICAgICA8L2c+JiN4YTsgICAgPC9nPiYjeGE7ICAgIDxnIGlkPSJ4dGlja183Ij4mI3hhOyAgICAgPGcgaWQ9ImxpbmUyZF8xMyI+JiN4YTsgICAgICA8cGF0aCBzdHlsZT0iZmlsbDogbm9uZTsgc3Ryb2tlLWRhc2hhcnJheTogMC44LDEuMzI7IHN0cm9rZS1kYXNob2Zmc2V0OiAwOyBzdHJva2U6ICNiMGIwYjA7IHN0cm9rZS13aWR0aDogMC44IiBjbGlwLXBhdGg9InVybCgjcDMxNWQyZmNjM2MpIiBkPSJNIDQ2NC4yNDU5NjYgMzgyLjEyICYjMTA7TCA0NjQuMjQ1OTY2IDcuMiIvPiYjeGE7ICAgICA8L2c+JiN4YTsgICAgIDxnIGlkPSJsaW5lMmRfMTQiPiYjeGE7ICAgICAgPGc+JiN4YTsgICAgICAgPHVzZSBzdHlsZT0ic3Ryb2tlOiAjMDAwMDAwOyBzdHJva2Utd2lkdGg6IDAuOCIgeT0iMzgyLjEyIiB4PSI0NjQuMjQ1OTY2IiB4bGluazpocmVmPSIjbTFiZDczNTNkODciLz4mI3hhOyAgICAgIDwvZz4mI3hhOyAgICAgPC9nPiYjeGE7ICAgICA8ZyBpZD0idGV4dF83Ij4mI3hhOyAgICAgICYjeGE7ICAgICAgPGcgdHJhbnNmb3JtPSJ0cmFuc2xhdGUoNDU1LjMzODQ2NiAzOTkuNzU3ODEyKSBzY2FsZSgwLjE0IC0wLjE0KSI+JiN4YTsgICAgICAgPHVzZSB4bGluazpocmVmPSIjRGVqYVZ1U2Fucy0zMSIvPiYjeGE7ICAgICAgIDx1c2UgeD0iNjMuNjIzMDQ3IiB4bGluazpocmVmPSIjRGVqYVZ1U2Fucy0zMiIvPiYjeGE7ICAgICAgPC9nPiYjeGE7ICAgICA8L2c+JiN4YTsgICAgPC9nPiYjeGE7ICAgIDxnIGlkPSJ4dGlja184Ij4mI3hhOyAgICAgPGcgaWQ9ImxpbmUyZF8xNSI+JiN4YTsgICAgICA8cGF0aCBzdHlsZT0iZmlsbDogbm9uZTsgc3Ryb2tlLWRhc2hhcnJheTogMC44LDEuMzI7IHN0cm9rZS1kYXNob2Zmc2V0OiAwOyBzdHJva2U6ICNiMGIwYjA7IHN0cm9rZS13aWR0aDogMC44IiBjbGlwLXBhdGg9InVybCgjcDMxNWQyZmNjM2MpIiBkPSJNIDUyNi42NTA1MTEgMzgyLjEyICYjMTA7TCA1MjYuNjUwNTExIDcuMiIvPiYjeGE7ICAgICA8L2c+JiN4YTsgICAgIDxnIGlkPSJsaW5lMmRfMTYiPiYjeGE7ICAgICAgPGc+JiN4YTsgICAgICAgPHVzZSBzdHlsZT0ic3Ryb2tlOiAjMDAwMDAwOyBzdHJva2Utd2lkdGg6IDAuOCIgeT0iMzgyLjEyIiB4PSI1MjYuNjUwNTExIiB4bGluazpocmVmPSIjbTFiZDczNTNkODciLz4mI3hhOyAgICAgIDwvZz4mI3hhOyAgICAgPC9nPiYjeGE7ICAgICA8ZyBpZD0idGV4dF84Ij4mI3hhOyAgICAgICYjeGE7ICAgICAgPGcgdHJhbnNmb3JtPSJ0cmFuc2xhdGUoNTE3Ljc0MzAxMSAzOTkuNzU3ODEyKSBzY2FsZSgwLjE0IC0wLjE0KSI+JiN4YTsgICAgICAgPHVzZSB4bGluazpocmVmPSIjRGVqYVZ1U2Fucy0zMSIvPiYjeGE7ICAgICAgIDx1c2UgeD0iNjMuNjIzMDQ3IiB4bGluazpocmVmPSIjRGVqYVZ1U2Fucy0zNCIvPiYjeGE7ICAgICAgPC9nPiYjeGE7ICAgICA8L2c+JiN4YTsgICAgPC9nPiYjeGE7ICAgIDxnIGlkPSJ4dGlja185Ij4mI3hhOyAgICAgPGcgaWQ9ImxpbmUyZF8xNyI+JiN4YTsgICAgICA8cGF0aCBzdHlsZT0iZmlsbDogbm9uZTsgc3Ryb2tlLWRhc2hhcnJheTogMC44LDEuMzI7IHN0cm9rZS1kYXNob2Zmc2V0OiAwOyBzdHJva2U6ICNiMGIwYjA7IHN0cm9rZS13aWR0aDogMC44IiBjbGlwLXBhdGg9InVybCgjcDMxNWQyZmNjM2MpIiBkPSJNIDU4OS4wNTUwNTcgMzgyLjEyICYjMTA7TCA1ODkuMDU1MDU3IDcuMiIvPiYjeGE7ICAgICA8L2c+JiN4YTsgICAgIDxnIGlkPSJsaW5lMmRfMTgiPiYjeGE7ICAgICAgPGc+JiN4YTsgICAgICAgPHVzZSBzdHlsZT0ic3Ryb2tlOiAjMDAwMDAwOyBzdHJva2Utd2lkdGg6IDAuOCIgeT0iMzgyLjEyIiB4PSI1ODkuMDU1MDU3IiB4bGluazpocmVmPSIjbTFiZDczNTNkODciLz4mI3hhOyAgICAgIDwvZz4mI3hhOyAgICAgPC9nPiYjeGE7ICAgICA8ZyBpZD0idGV4dF85Ij4mI3hhOyAgICAgICYjeGE7ICAgICAgPGcgdHJhbnNmb3JtPSJ0cmFuc2xhdGUoNTgwLjE0NzU1NyAzOTkuNzU3ODEyKSBzY2FsZSgwLjE0IC0wLjE0KSI+JiN4YTsgICAgICAgPHVzZSB4bGluazpocmVmPSIjRGVqYVZ1U2Fucy0zMSIvPiYjeGE7ICAgICAgIDx1c2UgeD0iNjMuNjIzMDQ3IiB4bGluazpocmVmPSIjRGVqYVZ1U2Fucy0zNiIvPiYjeGE7ICAgICAgPC9nPiYjeGE7ICAgICA8L2c+JiN4YTsgICAgPC9nPiYjeGE7ICAgIDxnIGlkPSJ0ZXh0XzEwIj4mI3hhOyAgICAgJiN4YTsgICAgIDxnIHRyYW5zZm9ybT0idHJhbnNsYXRlKDI0OS40NDA2MjUgNDE4LjgyNjg3NSkgc2NhbGUoMC4xNiAtMC4xNikiPiYjeGE7ICAgICAgPGRlZnM+JiN4YTsgICAgICAgPHBhdGggdHJhbnNmb3JtPSJzY2FsZSgwLjAxNTYyNSkiIGQ9Ik0gMzI3MiAyODE2ICYjMTA7TCAyMzYzIDI4MTYgJiMxMDtMIDIxMDAgMTc3MiAmIzEwO0wgMzAxNiAxNzcyICYjMTA7TCAzMjcyIDI4MTYgJiMxMDt6JiMxMDtNIDI4MDMgNDU5NCAmIzEwO0wgMjQ3OCAzMjk3ICYjMTA7TCAzMzkxIDMyOTcgJiMxMDtMIDM3MTkgNDU5NCAmIzEwO0wgNDIxOSA0NTk0ICYjMTA7TCAzODk3IDMyOTcgJiMxMDtMIDQ4NzIgMzI5NyAmIzEwO0wgNDg3MiAyODE2ICYjMTA7TCAzNzc1IDI4MTYgJiMxMDtMIDM1MTkgMTc3MiAmIzEwO0wgNDUxMyAxNzcyICYjMTA7TCA0NTEzIDEyOTQgJiMxMDtMIDMzOTcgMTI5NCAmIzEwO0wgMzA3MiAwICYjMTA7TCAyNTcyIDAgJiMxMDtMIDI4OTQgMTI5NCAmIzEwO0wgMTk3OCAxMjk0ICYjMTA7TCAxNjU2IDAgJiMxMDtMIDExNTMgMCAmIzEwO0wgMTQ3OCAxMjk0ICYjMTA7TCA0OTQgMTI5NCAmIzEwO0wgNDk0IDE3NzIgJiMxMDtMIDE1OTQgMTc3MiAmIzEwO0wgMTg1NiAyODE2ICYjMTA7TCA4NTAgMjgxNiAmIzEwO0wgODUwIDMyOTcgJiMxMDtMIDE5NzggMzI5NyAmIzEwO0wgMjI5NyA0NTk0ICYjMTA7TCAyODAzIDQ1OTQgJiMxMDt6IiBpZD0iRGVqYVZ1U2Fucy0yMyIvPiYjeGE7ICAgICAgIDxwYXRoIHRyYW5zZm9ybT0ic2NhbGUoMC4wMTU2MjUpIiBpZD0iRGVqYVZ1U2Fucy0yMCIvPiYjeGE7ICAgICAgIDxwYXRoIHRyYW5zZm9ybT0ic2NhbGUoMC4wMTU2MjUpIiBkPSJNIDE5NTkgMzA5NyAmIzEwO1EgMTQ5NyAzMDk3IDEyMjggMjczNiAmIzEwO1EgOTU5IDIzNzUgOTU5IDE3NDcgJiMxMDtRIDk1OSAxMTE5IDEyMjYgNzU4ICYjMTA7USAxNDk0IDM5NyAxOTU5IDM5NyAmIzEwO1EgMjQxOSAzOTcgMjY4NyA3NTkgJiMxMDtRIDI5NTYgMTEyMiAyOTU2IDE3NDcgJiMxMDtRIDI5NTYgMjM2OSAyNjg3IDI3MzMgJiMxMDtRIDI0MTkgMzA5NyAxOTU5IDMwOTcgJiMxMDt6JiMxMDtNIDE5NTkgMzU4NCAmIzEwO1EgMjcwOSAzNTg0IDMxMzcgMzA5NiAmIzEwO1EgMzU2NiAyNjA5IDM1NjYgMTc0NyAmIzEwO1EgMzU2NiA4ODggMzEzNyAzOTggJiMxMDtRIDI3MDkgLTkxIDE5NTkgLTkxICYjMTA7USAxMjA2IC05MSA3NzkgMzk4ICYjMTA7USAzNTMgODg4IDM1MyAxNzQ3ICYjMTA7USAzNTMgMjYwOSA3NzkgMzA5NiAmIzEwO1EgMTIwNiAzNTg0IDE5NTkgMzU4NCAmIzEwO3oiIGlkPSJEZWphVnVTYW5zLTZmIi8+JiN4YTsgICAgICAgPHBhdGggdHJhbnNmb3JtPSJzY2FsZSgwLjAxNTYyNSkiIGQ9Ik0gMjM3NSA0ODYzICYjMTA7TCAyMzc1IDQzODQgJiMxMDtMIDE4MjUgNDM4NCAmIzEwO1EgMTUxNiA0Mzg0IDEzOTUgNDI1OSAmIzEwO1EgMTI3NSA0MTM0IDEyNzUgMzgwOSAmIzEwO0wgMTI3NSAzNTAwICYjMTA7TCAyMjIyIDM1MDAgJiMxMDtMIDIyMjIgMzA1MyAmIzEwO0wgMTI3NSAzMDUzICYjMTA7TCAxMjc1IDAgJiMxMDtMIDY5NyAwICYjMTA7TCA2OTcgMzA1MyAmIzEwO0wgMTQ3IDMwNTMgJiMxMDtMIDE0NyAzNTAwICYjMTA7TCA2OTcgMzUwMCAmIzEwO0wgNjk3IDM3NDQgJiMxMDtRIDY5NyA0MzI4IDk2OSA0NTk1ICYjMTA7USAxMjQxIDQ4NjMgMTgzMSA0ODYzICYjMTA7TCAyMzc1IDQ4NjMgJiMxMDt6IiBpZD0iRGVqYVZ1U2Fucy02NiIvPiYjeGE7ICAgICAgIDxwYXRoIHRyYW5zZm9ybT0ic2NhbGUoMC4wMTU2MjUpIiBkPSJNIDYwMyA0ODYzICYjMTA7TCAxMTc4IDQ4NjMgJiMxMDtMIDExNzggMCAmIzEwO0wgNjAzIDAgJiMxMDtMIDYwMyA0ODYzICYjMTA7eiIgaWQ9IkRlamFWdVNhbnMtNmMiLz4mI3hhOyAgICAgICA8cGF0aCB0cmFuc2Zvcm09InNjYWxlKDAuMDE1NjI1KSIgZD0iTSAyMTk0IDE3NTkgJiMxMDtRIDE0OTcgMTc1OSAxMjI4IDE2MDAgJiMxMDtRIDk1OSAxNDQxIDk1OSAxMDU2ICYjMTA7USA5NTkgNzUwIDExNjEgNTcwICYjMTA7USAxMzYzIDM5MSAxNzA5IDM5MSAmIzEwO1EgMjE4OCAzOTEgMjQ3NyA3MzAgJiMxMDtRIDI3NjYgMTA2OSAyNzY2IDE2MzEgJiMxMDtMIDI3NjYgMTc1OSAmIzEwO0wgMjE5NCAxNzU5ICYjMTA7eiYjMTA7TSAzMzQxIDE5OTcgJiMxMDtMIDMzNDEgMCAmIzEwO0wgMjc2NiAwICYjMTA7TCAyNzY2IDUzMSAmIzEwO1EgMjU2OSAyMTMgMjI3NSA2MSAmIzEwO1EgMTk4MSAtOTEgMTU1NiAtOTEgJiMxMDtRIDEwMTkgLTkxIDcwMSAyMTEgJiMxMDtRIDM4NCA1MTMgMzg0IDEwMTkgJiMxMDtRIDM4NCAxNjA5IDc3OSAxOTA5ICYjMTA7USAxMTc1IDIyMDkgMTk1OSAyMjA5ICYjMTA7TCAyNzY2IDIyMDkgJiMxMDtMIDI3NjYgMjI2NiAmIzEwO1EgMjc2NiAyNjYzIDI1MDUgMjg4MCAmIzEwO1EgMjI0NCAzMDk3IDE3NzIgMzA5NyAmIzEwO1EgMTQ3MiAzMDk3IDExODcgMzAyNSAmIzEwO1EgOTAzIDI5NTMgNjQxIDI4MDkgJiMxMDtMIDY0MSAzMzQxICYjMTA7USA5NTYgMzQ2MyAxMjUzIDM1MjMgJiMxMDtRIDE1NTAgMzU4NCAxODMxIDM1ODQgJiMxMDtRIDI1OTEgMzU4NCAyOTY2IDMxOTAgJiMxMDtRIDMzNDEgMjc5NyAzMzQxIDE5OTcgJiMxMDt6IiBpZD0iRGVqYVZ1U2Fucy02MSIvPiYjeGE7ICAgICAgIDxwYXRoIHRyYW5zZm9ybT0ic2NhbGUoMC4wMTU2MjUpIiBkPSJNIDMxMTYgMTc0NyAmIzEwO1EgMzExNiAyMzgxIDI4NTUgMjc0MiAmIzEwO1EgMjU5NCAzMTAzIDIxMzggMzEwMyAmIzEwO1EgMTY4MSAzMTAzIDE0MjAgMjc0MiAmIzEwO1EgMTE1OSAyMzgxIDExNTkgMTc0NyAmIzEwO1EgMTE1OSAxMTEzIDE0MjAgNzUyICYjMTA7USAxNjgxIDM5MSAyMTM4IDM5MSAmIzEwO1EgMjU5NCAzOTEgMjg1NSA3NTIgJiMxMDtRIDMxMTYgMTExMyAzMTE2IDE3NDcgJiMxMDt6JiMxMDtNIDExNTkgMjk2OSAmIzEwO1EgMTM0MSAzMjgxIDE2MTcgMzQzMiAmIzEwO1EgMTg5NCAzNTg0IDIyNzggMzU4NCAmIzEwO1EgMjkxNiAzNTg0IDMzMTQgMzA3OCAmIzEwO1EgMzcxMyAyNTcyIDM3MTMgMTc0NyAmIzEwO1EgMzcxMyA5MjIgMzMxNCA0MTUgJiMxMDtRIDI5MTYgLTkxIDIyNzggLTkxICYjMTA7USAxODk0IC05MSAxNjE3IDYxICYjMTA7USAxMzQxIDIxMyAxMTU5IDUyNSAmIzEwO0wgMTE1OSAwICYjMTA7TCA1ODEgMCAmIzEwO0wgNTgxIDQ4NjMgJiMxMDtMIDExNTkgNDg2MyAmIzEwO0wgMTE1OSAyOTY5ICYjMTA7eiIgaWQ9IkRlamFWdVNhbnMtNjIiLz4mI3hhOyAgICAgICA8cGF0aCB0cmFuc2Zvcm09InNjYWxlKDAuMDE1NjI1KSIgZD0iTSAzNTk3IDE4OTQgJiMxMDtMIDM1OTcgMTYxMyAmIzEwO0wgOTUzIDE2MTMgJiMxMDtRIDk5MSAxMDE5IDEzMTEgNzA4ICYjMTA7USAxNjMxIDM5NyAyMjAzIDM5NyAmIzEwO1EgMjUzNCAzOTcgMjg0NSA0NzggJiMxMDtRIDMxNTYgNTU5IDM0NjMgNzIyICYjMTA7TCAzNDYzIDE3OCAmIzEwO1EgMzE1MyA0NyAyODI4IC0yMiAmIzEwO1EgMjUwMyAtOTEgMjE2OSAtOTEgJiMxMDtRIDEzMzEgLTkxIDg0MiAzOTYgJiMxMDtRIDM1MyA4ODQgMzUzIDE3MTYgJiMxMDtRIDM1MyAyNTc1IDgxNyAzMDc5ICYjMTA7USAxMjgxIDM1ODQgMjA2OSAzNTg0ICYjMTA7USAyNzc1IDM1ODQgMzE4NiAzMTI5ICYjMTA7USAzNTk3IDI2NzUgMzU5NyAxODk0ICYjMTA7eiYjMTA7TSAzMDIyIDIwNjMgJiMxMDtRIDMwMTYgMjUzNCAyNzU4IDI4MTUgJiMxMDtRIDI1MDAgMzA5NyAyMDc1IDMwOTcgJiMxMDtRIDE1OTQgMzA5NyAxMzA1IDI4MjUgJiMxMDtRIDEwMTYgMjU1MyA5NzIgMjA1OSAmIzEwO0wgMzAyMiAyMDYzICYjMTA7eiIgaWQ9IkRlamFWdVNhbnMtNjUiLz4mI3hhOyAgICAgICA8cGF0aCB0cmFuc2Zvcm09InNjYWxlKDAuMDE1NjI1KSIgZD0iTSAyOTA2IDI5NjkgJiMxMDtMIDI5MDYgNDg2MyAmIzEwO0wgMzQ4MSA0ODYzICYjMTA7TCAzNDgxIDAgJiMxMDtMIDI5MDYgMCAmIzEwO0wgMjkwNiA1MjUgJiMxMDtRIDI3MjUgMjEzIDI0NDggNjEgJiMxMDtRIDIxNzIgLTkxIDE3ODQgLTkxICYjMTA7USAxMTUwIC05MSA3NTEgNDE1ICYjMTA7USAzNTMgOTIyIDM1MyAxNzQ3ICYjMTA7USAzNTMgMjU3MiA3NTEgMzA3OCAmIzEwO1EgMTE1MCAzNTg0IDE3ODQgMzU4NCAmIzEwO1EgMjE3MiAzNTg0IDI0NDggMzQzMiAmIzEwO1EgMjcyNSAzMjgxIDI5MDYgMjk2OSAmIzEwO3omIzEwO00gOTQ3IDE3NDcgJiMxMDtRIDk0NyAxMTEzIDEyMDggNzUyICYjMTA7USAxNDY5IDM5MSAxOTI1IDM5MSAmIzEwO1EgMjM4MSAzOTEgMjY0MyA3NTIgJiMxMDtRIDI5MDYgMTExMyAyOTA2IDE3NDcgJiMxMDtRIDI5MDYgMjM4MSAyNjQzIDI3NDIgJiMxMDtRIDIzODEgMzEwMyAxOTI1IDMxMDMgJiMxMDtRIDE0NjkgMzEwMyAxMjA4IDI3NDIgJiMxMDtRIDk0NyAyMzgxIDk0NyAxNzQ3ICYjMTA7eiIgaWQ9IkRlamFWdVNhbnMtNjQiLz4mI3hhOyAgICAgICA8cGF0aCB0cmFuc2Zvcm09InNjYWxlKDAuMDE1NjI1KSIgZD0iTSAzNTEzIDM1MDAgJiMxMDtMIDIyNDcgMTc5NyAmIzEwO0wgMzU3OCAwICYjMTA7TCAyOTAwIDAgJiMxMDtMIDE4ODEgMTM3NSAmIzEwO0wgODYzIDAgJiMxMDtMIDE4NCAwICYjMTA7TCAxNTQ0IDE4MzEgJiMxMDtMIDMwMCAzNTAwICYjMTA7TCA5NzggMzUwMCAmIzEwO0wgMTkwNiAyMjUzICYjMTA7TCAyODM0IDM1MDAgJiMxMDtMIDM1MTMgMzUwMCAmIzEwO3oiIGlkPSJEZWphVnVTYW5zLTc4Ii8+JiN4YTsgICAgICAgPHBhdGggdHJhbnNmb3JtPSJzY2FsZSgwLjAxNTYyNSkiIGQ9Ik0gMzMyOCAyODI4ICYjMTA7USAzNTQ0IDMyMTYgMzg0NCAzNDAwICYjMTA7USA0MTQ0IDM1ODQgNDU1MCAzNTg0ICYjMTA7USA1MDk3IDM1ODQgNTM5NCAzMjAxICYjMTA7USA1NjkxIDI4MTkgNTY5MSAyMTEzICYjMTA7TCA1NjkxIDAgJiMxMDtMIDUxMTMgMCAmIzEwO0wgNTExMyAyMDk0ICYjMTA7USA1MTEzIDI1OTcgNDkzNCAyODQwICYjMTA7USA0NzU2IDMwODQgNDM5MSAzMDg0ICYjMTA7USAzOTQ0IDMwODQgMzY4NCAyNzg3ICYjMTA7USAzNDI1IDI0OTEgMzQyNSAxOTc4ICYjMTA7TCAzNDI1IDAgJiMxMDtMIDI4NDcgMCAmIzEwO0wgMjg0NyAyMDk0ICYjMTA7USAyODQ3IDI2MDAgMjY2OSAyODQyICYjMTA7USAyNDkxIDMwODQgMjExOSAzMDg0ICYjMTA7USAxNjc4IDMwODQgMTQxOCAyNzg2ICYjMTA7USAxMTU5IDI0ODggMTE1OSAxOTc4ICYjMTA7TCAxMTU5IDAgJiMxMDtMIDU4MSAwICYjMTA7TCA1ODEgMzUwMCAmIzEwO0wgMTE1OSAzNTAwICYjMTA7TCAxMTU5IDI5NTYgJiMxMDtRIDEzNTYgMzI3OCAxNjMxIDM0MzEgJiMxMDtRIDE5MDYgMzU4NCAyMjg0IDM1ODQgJiMxMDtRIDI2NjYgMzU4NCAyOTMzIDMzOTAgJiMxMDtRIDMyMDAgMzE5NyAzMzI4IDI4MjggJiMxMDt6IiBpZD0iRGVqYVZ1U2Fucy02ZCIvPiYjeGE7ICAgICAgIDxwYXRoIHRyYW5zZm9ybT0ic2NhbGUoMC4wMTU2MjUpIiBkPSJNIDExNTkgNTI1ICYjMTA7TCAxMTU5IC0xMzMxICYjMTA7TCA1ODEgLTEzMzEgJiMxMDtMIDU4MSAzNTAwICYjMTA7TCAxMTU5IDM1MDAgJiMxMDtMIDExNTkgMjk2OSAmIzEwO1EgMTM0MSAzMjgxIDE2MTcgMzQzMiAmIzEwO1EgMTg5NCAzNTg0IDIyNzggMzU4NCAmIzEwO1EgMjkxNiAzNTg0IDMzMTQgMzA3OCAmIzEwO1EgMzcxMyAyNTcyIDM3MTMgMTc0NyAmIzEwO1EgMzcxMyA5MjIgMzMxNCA0MTUgJiMxMDtRIDI5MTYgLTkxIDIyNzggLTkxICYjMTA7USAxODk0IC05MSAxNjE3IDYxICYjMTA7USAxMzQxIDIxMyAxMTU5IDUyNSAmIzEwO3omIzEwO00gMzExNiAxNzQ3ICYjMTA7USAzMTE2IDIzODEgMjg1NSAyNzQyICYjMTA7USAyNTk0IDMxMDMgMjEzOCAzMTAzICYjMTA7USAxNjgxIDMxMDMgMTQyMCAyNzQyICYjMTA7USAxMTU5IDIzODEgMTE1OSAxNzQ3ICYjMTA7USAxMTU5IDExMTMgMTQyMCA3NTIgJiMxMDtRIDE2ODEgMzkxIDIxMzggMzkxICYjMTA7USAyNTk0IDM5MSAyODU1IDc1MiAmIzEwO1EgMzExNiAxMTEzIDMxMTYgMTc0NyAmIzEwO3oiIGlkPSJEZWphVnVTYW5zLTcwIi8+JiN4YTsgICAgICAgPHBhdGggdHJhbnNmb3JtPSJzY2FsZSgwLjAxNTYyNSkiIGQ9Ik0gMjgzNCAzMzk3ICYjMTA7TCAyODM0IDI4NTMgJiMxMDtRIDI1OTEgMjk3OCAyMzI4IDMwNDAgJiMxMDtRIDIwNjYgMzEwMyAxNzg0IDMxMDMgJiMxMDtRIDEzNTYgMzEwMyAxMTQyIDI5NzIgJiMxMDtRIDkyOCAyODQxIDkyOCAyNTc4ICYjMTA7USA5MjggMjM3OCAxMDgxIDIyNjQgJiMxMDtRIDEyMzQgMjE1MCAxNjk3IDIwNDcgJiMxMDtMIDE4OTQgMjAwMyAmIzEwO1EgMjUwNiAxODcyIDI3NjQgMTYzMyAmIzEwO1EgMzAyMiAxMzk0IDMwMjIgOTY2ICYjMTA7USAzMDIyIDQ3OCAyNjM2IDE5MyAmIzEwO1EgMjI1MCAtOTEgMTU3NSAtOTEgJiMxMDtRIDEyOTQgLTkxIDk4OSAtMzYgJiMxMDtRIDY4NCAxOSAzNDcgMTI4ICYjMTA7TCAzNDcgNzIyICYjMTA7USA2NjYgNTU2IDk3NSA0NzMgJiMxMDtRIDEyODQgMzkxIDE1ODggMzkxICYjMTA7USAxOTk0IDM5MSAyMjEyIDUzMCAmIzEwO1EgMjQzMSA2NjkgMjQzMSA5MjIgJiMxMDtRIDI0MzEgMTE1NiAyMjczIDEyODEgJiMxMDtRIDIxMTYgMTQwNiAxNTgxIDE1MjIgJiMxMDtMIDEzODEgMTU2OSAmIzEwO1EgODQ3IDE2ODEgNjA5IDE5MTQgJiMxMDtRIDM3MiAyMTQ3IDM3MiAyNTUzICYjMTA7USAzNzIgMzA0NyA3MjIgMzMxNSAmIzEwO1EgMTA3MiAzNTg0IDE3MTYgMzU4NCAmIzEwO1EgMjAzNCAzNTg0IDIzMTUgMzUzNyAmIzEwO1EgMjU5NyAzNDkxIDI4MzQgMzM5NyAmIzEwO3oiIGlkPSJEZWphVnVTYW5zLTczIi8+JiN4YTsgICAgICA8L2RlZnM+JiN4YTsgICAgICA8dXNlIHhsaW5rOmhyZWY9IiNEZWphVnVTYW5zLTIzIi8+JiN4YTsgICAgICA8dXNlIHg9IjgzLjc4OTA2MiIgeGxpbms6aHJlZj0iI0RlamFWdVNhbnMtMjAiLz4mI3hhOyAgICAgIDx1c2UgeD0iMTE1LjU3NjE3MiIgeGxpbms6aHJlZj0iI0RlamFWdVNhbnMtNmYiLz4mI3hhOyAgICAgIDx1c2UgeD0iMTc2Ljc1NzgxMiIgeGxpbms6aHJlZj0iI0RlamFWdVNhbnMtNjYiLz4mI3hhOyAgICAgIDx1c2UgeD0iMjExLjk2Mjg5MSIgeGxpbms6aHJlZj0iI0RlamFWdVNhbnMtMjAiLz4mI3hhOyAgICAgIDx1c2UgeD0iMjQzLjc1IiB4bGluazpocmVmPSIjRGVqYVZ1U2Fucy02YyIvPiYjeGE7ICAgICAgPHVzZSB4PSIyNzEuNTMzMjAzIiB4bGluazpocmVmPSIjRGVqYVZ1U2Fucy02MSIvPiYjeGE7ICAgICAgPHVzZSB4PSIzMzIuODEyNSIgeGxpbms6aHJlZj0iI0RlamFWdVNhbnMtNjIiLz4mI3hhOyAgICAgIDx1c2UgeD0iMzk2LjI4OTA2MiIgeGxpbms6aHJlZj0iI0RlamFWdVNhbnMtNjUiLz4mI3hhOyAgICAgIDx1c2UgeD0iNDU3LjgxMjUiIHhsaW5rOmhyZWY9IiNEZWphVnVTYW5zLTZjIi8+JiN4YTsgICAgICA8dXNlIHg9IjQ4NS41OTU3MDMiIHhsaW5rOmhyZWY9IiNEZWphVnVTYW5zLTY1Ii8+JiN4YTsgICAgICA8dXNlIHg9IjU0Ny4xMTkxNDEiIHhsaW5rOmhyZWY9IiNEZWphVnVTYW5zLTY0Ii8+JiN4YTsgICAgICA8dXNlIHg9IjYxMC41OTU3MDMiIHhsaW5rOmhyZWY9IiNEZWphVnVTYW5zLTIwIi8+JiN4YTsgICAgICA8dXNlIHg9IjY0Mi4zODI4MTIiIHhsaW5rOmhyZWY9IiNEZWphVnVTYW5zLTY1Ii8+JiN4YTsgICAgICA8dXNlIHg9IjcwMi4xNTYyNSIgeGxpbms6aHJlZj0iI0RlamFWdVNhbnMtNzgiLz4mI3hhOyAgICAgIDx1c2UgeD0iNzYxLjMzNTkzOCIgeGxpbms6aHJlZj0iI0RlamFWdVNhbnMtNjEiLz4mI3hhOyAgICAgIDx1c2UgeD0iODIyLjYxNTIzNCIgeGxpbms6aHJlZj0iI0RlamFWdVNhbnMtNmQiLz4mI3hhOyAgICAgIDx1c2UgeD0iOTIwLjAyNzM0NCIgeGxpbms6aHJlZj0iI0RlamFWdVNhbnMtNzAiLz4mI3hhOyAgICAgIDx1c2UgeD0iOTgzLjUwMzkwNiIgeGxpbms6aHJlZj0iI0RlamFWdVNhbnMtNmMiLz4mI3hhOyAgICAgIDx1c2UgeD0iMTAxMS4yODcxMDkiIHhsaW5rOmhyZWY9IiNEZWphVnVTYW5zLTY1Ii8+JiN4YTsgICAgICA8dXNlIHg9IjEwNzIuODEwNTQ3IiB4bGluazpocmVmPSIjRGVqYVZ1U2Fucy03MyIvPiYjeGE7ICAgICA8L2c+JiN4YTsgICAgPC9nPiYjeGE7ICAgPC9nPiYjeGE7ICAgPGcgaWQ9Im1hdHBsb3RsaWIuYXhpc18yIj4mI3hhOyAgICA8ZyBpZD0ieXRpY2tfMSI+JiN4YTsgICAgIDxnIGlkPSJsaW5lMmRfMTkiPiYjeGE7ICAgICAgPHBhdGggc3R5bGU9ImZpbGw6IG5vbmU7IHN0cm9rZS1kYXNoYXJyYXk6IDAuOCwxLjMyOyBzdHJva2UtZGFzaG9mZnNldDogMDsgc3Ryb2tlOiAjYjBiMGIwOyBzdHJva2Utd2lkdGg6IDAuOCIgY2xpcC1wYXRoPSJ1cmwoI3AzMTVkMmZjYzNjKSIgZD0iTSA2NC44NTY4NzUgMzgyLjEyICYjMTA7TCA2MTQuMDE2ODc1IDM4Mi4xMiIvPiYjeGE7ICAgICA8L2c+JiN4YTsgICAgIDxnIGlkPSJsaW5lMmRfMjAiPiYjeGE7ICAgICAgPGRlZnM+JiN4YTsgICAgICAgPHBhdGggc3R5bGU9InN0cm9rZTogIzAwMDAwMDsgc3Ryb2tlLXdpZHRoOiAwLjgiIGQ9Ik0gMCAwICYjMTA7TCAtMy41IDAiIGlkPSJtNDdlZGU1Njk2OSIvPiYjeGE7ICAgICAgPC9kZWZzPiYjeGE7ICAgICAgPGc+JiN4YTsgICAgICAgPHVzZSBzdHlsZT0ic3Ryb2tlOiAjMDAwMDAwOyBzdHJva2Utd2lkdGg6IDAuOCIgeT0iMzgyLjEyIiB4PSI2NC44NTY4NzUiIHhsaW5rOmhyZWY9IiNtNDdlZGU1Njk2OSIvPiYjeGE7ICAgICAgPC9nPiYjeGE7ICAgICA8L2c+JiN4YTsgICAgIDxnIGlkPSJ0ZXh0XzExIj4mI3hhOyAgICAgICYjeGE7ICAgICAgPGcgdHJhbnNmb3JtPSJ0cmFuc2xhdGUoMjYuNjg1IDM4Ny40Mzg5MDYpIHNjYWxlKDAuMTQgLTAuMTQpIj4mI3hhOyAgICAgICA8ZGVmcz4mI3hhOyAgICAgICAgPHBhdGggdHJhbnNmb3JtPSJzY2FsZSgwLjAxNTYyNSkiIGQ9Ik0gNjg0IDc5NCAmIzEwO0wgMTM0NCA3OTQgJiMxMDtMIDEzNDQgMCAmIzEwO0wgNjg0IDAgJiMxMDtMIDY4NCA3OTQgJiMxMDt6IiBpZD0iRGVqYVZ1U2Fucy0yZSIvPiYjeGE7ICAgICAgICA8cGF0aCB0cmFuc2Zvcm09InNjYWxlKDAuMDE1NjI1KSIgZD0iTSAyNTk3IDI1MTYgJiMxMDtRIDMwNTAgMjQxOSAzMzA0IDIxMTIgJiMxMDtRIDM1NTkgMTgwNiAzNTU5IDEzNTYgJiMxMDtRIDM1NTkgNjY2IDMwODQgMjg3ICYjMTA7USAyNjA5IC05MSAxNzM0IC05MSAmIzEwO1EgMTQ0MSAtOTEgMTEzMCAtMzMgJiMxMDtRIDgxOSAyNSA0ODggMTQxICYjMTA7TCA0ODggNzUwICYjMTA7USA3NTAgNTk3IDEwNjIgNTE5ICYjMTA7USAxMzc1IDQ0MSAxNzE2IDQ0MSAmIzEwO1EgMjMwOSA0NDEgMjYyMCA2NzUgJiMxMDtRIDI5MzEgOTA5IDI5MzEgMTM1NiAmIzEwO1EgMjkzMSAxNzY5IDI2NDIgMjAwMSAmIzEwO1EgMjM1MyAyMjM0IDE4MzggMjIzNCAmIzEwO0wgMTI5NCAyMjM0ICYjMTA7TCAxMjk0IDI3NTMgJiMxMDtMIDE4NjMgMjc1MyAmIzEwO1EgMjMyOCAyNzUzIDI1NzUgMjkzOSAmIzEwO1EgMjgyMiAzMTI1IDI4MjIgMzQ3NSAmIzEwO1EgMjgyMiAzODM0IDI1NjcgNDAyNiAmIzEwO1EgMjMxMyA0MjE5IDE4MzggNDIxOSAmIzEwO1EgMTU3OCA0MjE5IDEyODEgNDE2MiAmIzEwO1EgOTg0IDQxMDYgNjI4IDM5ODggJiMxMDtMIDYyOCA0NTUwICYjMTA7USA5ODggNDY1MCAxMzAyIDQ3MDAgJiMxMDtRIDE2MTYgNDc1MCAxODk0IDQ3NTAgJiMxMDtRIDI2MTMgNDc1MCAzMDMxIDQ0MjMgJiMxMDtRIDM0NTAgNDA5NyAzNDUwIDM1NDEgJiMxMDtRIDM0NTAgMzE1MyAzMjI4IDI4ODYgJiMxMDtRIDMwMDYgMjYxOSAyNTk3IDI1MTYgJiMxMDt6IiBpZD0iRGVqYVZ1U2Fucy0zMyIvPiYjeGE7ICAgICAgIDwvZGVmcz4mI3hhOyAgICAgICA8dXNlIHhsaW5rOmhyZWY9IiNEZWphVnVTYW5zLTMwIi8+JiN4YTsgICAgICAgPHVzZSB4PSI2My42MjMwNDciIHhsaW5rOmhyZWY9IiNEZWphVnVTYW5zLTJlIi8+JiN4YTsgICAgICAgPHVzZSB4PSI5NS40MTAxNTYiIHhsaW5rOmhyZWY9IiNEZWphVnVTYW5zLTMzIi8+JiN4YTsgICAgICAgPHVzZSB4PSIxNTkuMDMzMjAzIiB4bGluazpocmVmPSIjRGVqYVZ1U2Fucy0zMCIvPiYjeGE7ICAgICAgPC9nPiYjeGE7ICAgICA8L2c+JiN4YTsgICAgPC9nPiYjeGE7ICAgIDxnIGlkPSJ5dGlja18yIj4mI3hhOyAgICAgPGcgaWQ9ImxpbmUyZF8yMSI+JiN4YTsgICAgICA8cGF0aCBzdHlsZT0iZmlsbDogbm9uZTsgc3Ryb2tlLWRhc2hhcnJheTogMC44LDEuMzI7IHN0cm9rZS1kYXNob2Zmc2V0OiAwOyBzdHJva2U6ICNiMGIwYjA7IHN0cm9rZS13aWR0aDogMC44IiBjbGlwLXBhdGg9InVybCgjcDMxNWQyZmNjM2MpIiBkPSJNIDY0Ljg1Njg3NSAzMTMuOTUyNzI3ICYjMTA7TCA2MTQuMDE2ODc1IDMxMy45NTI3MjciLz4mI3hhOyAgICAgPC9nPiYjeGE7ICAgICA8ZyBpZD0ibGluZTJkXzIyIj4mI3hhOyAgICAgIDxnPiYjeGE7ICAgICAgIDx1c2Ugc3R5bGU9InN0cm9rZTogIzAwMDAwMDsgc3Ryb2tlLXdpZHRoOiAwLjgiIHk9IjMxMy45NTI3MjciIHg9IjY0Ljg1Njg3NSIgeGxpbms6aHJlZj0iI200N2VkZTU2OTY5Ii8+JiN4YTsgICAgICA8L2c+JiN4YTsgICAgIDwvZz4mI3hhOyAgICAgPGcgaWQ9InRleHRfMTIiPiYjeGE7ICAgICAgJiN4YTsgICAgICA8ZyB0cmFuc2Zvcm09InRyYW5zbGF0ZSgyNi42ODUgMzE5LjI3MTYzNCkgc2NhbGUoMC4xNCAtMC4xNCkiPiYjeGE7ICAgICAgIDx1c2UgeGxpbms6aHJlZj0iI0RlamFWdVNhbnMtMzAiLz4mI3hhOyAgICAgICA8dXNlIHg9IjYzLjYyMzA0NyIgeGxpbms6aHJlZj0iI0RlamFWdVNhbnMtMmUiLz4mI3hhOyAgICAgICA8dXNlIHg9Ijk1LjQxMDE1NiIgeGxpbms6aHJlZj0iI0RlamFWdVNhbnMtMzQiLz4mI3hhOyAgICAgICA8dXNlIHg9IjE1OS4wMzMyMDMiIHhsaW5rOmhyZWY9IiNEZWphVnVTYW5zLTMwIi8+JiN4YTsgICAgICA8L2c+JiN4YTsgICAgIDwvZz4mI3hhOyAgICA8L2c+JiN4YTsgICAgPGcgaWQ9Inl0aWNrXzMiPiYjeGE7ICAgICA8ZyBpZD0ibGluZTJkXzIzIj4mI3hhOyAgICAgIDxwYXRoIHN0eWxlPSJmaWxsOiBub25lOyBzdHJva2UtZGFzaGFycmF5OiAwLjgsMS4zMjsgc3Ryb2tlLWRhc2hvZmZzZXQ6IDA7IHN0cm9rZTogI2IwYjBiMDsgc3Ryb2tlLXdpZHRoOiAwLjgiIGNsaXAtcGF0aD0idXJsKCNwMzE1ZDJmY2MzYykiIGQ9Ik0gNjQuODU2ODc1IDI0NS43ODU0NTUgJiMxMDtMIDYxNC4wMTY4NzUgMjQ1Ljc4NTQ1NSIvPiYjeGE7ICAgICA8L2c+JiN4YTsgICAgIDxnIGlkPSJsaW5lMmRfMjQiPiYjeGE7ICAgICAgPGc+JiN4YTsgICAgICAgPHVzZSBzdHlsZT0ic3Ryb2tlOiAjMDAwMDAwOyBzdHJva2Utd2lkdGg6IDAuOCIgeT0iMjQ1Ljc4NTQ1NSIgeD0iNjQuODU2ODc1IiB4bGluazpocmVmPSIjbTQ3ZWRlNTY5NjkiLz4mI3hhOyAgICAgIDwvZz4mI3hhOyAgICAgPC9nPiYjeGE7ICAgICA8ZyBpZD0idGV4dF8xMyI+JiN4YTsgICAgICAmI3hhOyAgICAgIDxnIHRyYW5zZm9ybT0idHJhbnNsYXRlKDI2LjY4NSAyNTEuMTA0MzYxKSBzY2FsZSgwLjE0IC0wLjE0KSI+JiN4YTsgICAgICAgPGRlZnM+JiN4YTsgICAgICAgIDxwYXRoIHRyYW5zZm9ybT0ic2NhbGUoMC4wMTU2MjUpIiBkPSJNIDY5MSA0NjY2ICYjMTA7TCAzMTY5IDQ2NjYgJiMxMDtMIDMxNjkgNDEzNCAmIzEwO0wgMTI2OSA0MTM0ICYjMTA7TCAxMjY5IDI5OTEgJiMxMDtRIDE0MDYgMzAzOCAxNTQzIDMwNjEgJiMxMDtRIDE2ODEgMzA4NCAxODE5IDMwODQgJiMxMDtRIDI2MDAgMzA4NCAzMDU2IDI2NTYgJiMxMDtRIDM1MTMgMjIyOCAzNTEzIDE0OTcgJiMxMDtRIDM1MTMgNzQ0IDMwNDQgMzI2ICYjMTA7USAyNTc1IC05MSAxNzIyIC05MSAmIzEwO1EgMTQyOCAtOTEgMTEyMyAtNDEgJiMxMDtRIDgxOSA5IDQ5NCAxMDkgJiMxMDtMIDQ5NCA3NDQgJiMxMDtRIDc3NSA1OTEgMTA3NSA1MTYgJiMxMDtRIDEzNzUgNDQxIDE3MDkgNDQxICYjMTA7USAyMjUwIDQ0MSAyNTY1IDcyNSAmIzEwO1EgMjg4MSAxMDA5IDI4ODEgMTQ5NyAmIzEwO1EgMjg4MSAxOTg0IDI1NjUgMjI2OCAmIzEwO1EgMjI1MCAyNTUzIDE3MDkgMjU1MyAmIzEwO1EgMTQ1NiAyNTUzIDEyMDQgMjQ5NyAmIzEwO1EgOTUzIDI0NDEgNjkxIDIzMjIgJiMxMDtMIDY5MSA0NjY2ICYjMTA7eiIgaWQ9IkRlamFWdVNhbnMtMzUiLz4mI3hhOyAgICAgICA8L2RlZnM+JiN4YTsgICAgICAgPHVzZSB4bGluazpocmVmPSIjRGVqYVZ1U2Fucy0zMCIvPiYjeGE7ICAgICAgIDx1c2UgeD0iNjMuNjIzMDQ3IiB4bGluazpocmVmPSIjRGVqYVZ1U2Fucy0yZSIvPiYjeGE7ICAgICAgIDx1c2UgeD0iOTUuNDEwMTU2IiB4bGluazpocmVmPSIjRGVqYVZ1U2Fucy0zNSIvPiYjeGE7ICAgICAgIDx1c2UgeD0iMTU5LjAzMzIwMyIgeGxpbms6aHJlZj0iI0RlamFWdVNhbnMtMzAiLz4mI3hhOyAgICAgIDwvZz4mI3hhOyAgICAgPC9nPiYjeGE7ICAgIDwvZz4mI3hhOyAgICA8ZyBpZD0ieXRpY2tfNCI+JiN4YTsgICAgIDxnIGlkPSJsaW5lMmRfMjUiPiYjeGE7ICAgICAgPHBhdGggc3R5bGU9ImZpbGw6IG5vbmU7IHN0cm9rZS1kYXNoYXJyYXk6IDAuOCwxLjMyOyBzdHJva2UtZGFzaG9mZnNldDogMDsgc3Ryb2tlOiAjYjBiMGIwOyBzdHJva2Utd2lkdGg6IDAuOCIgY2xpcC1wYXRoPSJ1cmwoI3AzMTVkMmZjYzNjKSIgZD0iTSA2NC44NTY4NzUgMTc3LjYxODE4MiAmIzEwO0wgNjE0LjAxNjg3NSAxNzcuNjE4MTgyIi8+JiN4YTsgICAgIDwvZz4mI3hhOyAgICAgPGcgaWQ9ImxpbmUyZF8yNiI+JiN4YTsgICAgICA8Zz4mI3hhOyAgICAgICA8dXNlIHN0eWxlPSJzdHJva2U6ICMwMDAwMDA7IHN0cm9rZS13aWR0aDogMC44IiB5PSIxNzcuNjE4MTgyIiB4PSI2NC44NTY4NzUiIHhsaW5rOmhyZWY9IiNtNDdlZGU1Njk2OSIvPiYjeGE7ICAgICAgPC9nPiYjeGE7ICAgICA8L2c+JiN4YTsgICAgIDxnIGlkPSJ0ZXh0XzE0Ij4mI3hhOyAgICAgICYjeGE7ICAgICAgPGcgdHJhbnNmb3JtPSJ0cmFuc2xhdGUoMjYuNjg1IDE4Mi45MzcwODgpIHNjYWxlKDAuMTQgLTAuMTQpIj4mI3hhOyAgICAgICA8dXNlIHhsaW5rOmhyZWY9IiNEZWphVnVTYW5zLTMwIi8+JiN4YTsgICAgICAgPHVzZSB4PSI2My42MjMwNDciIHhsaW5rOmhyZWY9IiNEZWphVnVTYW5zLTJlIi8+JiN4YTsgICAgICAgPHVzZSB4PSI5NS40MTAxNTYiIHhsaW5rOmhyZWY9IiNEZWphVnVTYW5zLTM2Ii8+JiN4YTsgICAgICAgPHVzZSB4PSIxNTkuMDMzMjAzIiB4bGluazpocmVmPSIjRGVqYVZ1U2Fucy0zMCIvPiYjeGE7ICAgICAgPC9nPiYjeGE7ICAgICA8L2c+JiN4YTsgICAgPC9nPiYjeGE7ICAgIDxnIGlkPSJ5dGlja181Ij4mI3hhOyAgICAgPGcgaWQ9ImxpbmUyZF8yNyI+JiN4YTsgICAgICA8cGF0aCBzdHlsZT0iZmlsbDogbm9uZTsgc3Ryb2tlLWRhc2hhcnJheTogMC44LDEuMzI7IHN0cm9rZS1kYXNob2Zmc2V0OiAwOyBzdHJva2U6ICNiMGIwYjA7IHN0cm9rZS13aWR0aDogMC44IiBjbGlwLXBhdGg9InVybCgjcDMxNWQyZmNjM2MpIiBkPSJNIDY0Ljg1Njg3NSAxMDkuNDUwOTA5ICYjMTA7TCA2MTQuMDE2ODc1IDEwOS40NTA5MDkiLz4mI3hhOyAgICAgPC9nPiYjeGE7ICAgICA8ZyBpZD0ibGluZTJkXzI4Ij4mI3hhOyAgICAgIDxnPiYjeGE7ICAgICAgIDx1c2Ugc3R5bGU9InN0cm9rZTogIzAwMDAwMDsgc3Ryb2tlLXdpZHRoOiAwLjgiIHk9IjEwOS40NTA5MDkiIHg9IjY0Ljg1Njg3NSIgeGxpbms6aHJlZj0iI200N2VkZTU2OTY5Ii8+JiN4YTsgICAgICA8L2c+JiN4YTsgICAgIDwvZz4mI3hhOyAgICAgPGcgaWQ9InRleHRfMTUiPiYjeGE7ICAgICAgJiN4YTsgICAgICA8ZyB0cmFuc2Zvcm09InRyYW5zbGF0ZSgyNi42ODUgMTE0Ljc2OTgxNSkgc2NhbGUoMC4xNCAtMC4xNCkiPiYjeGE7ICAgICAgIDxkZWZzPiYjeGE7ICAgICAgICA8cGF0aCB0cmFuc2Zvcm09InNjYWxlKDAuMDE1NjI1KSIgZD0iTSA1MjUgNDY2NiAmIzEwO0wgMzUyNSA0NjY2ICYjMTA7TCAzNTI1IDQzOTcgJiMxMDtMIDE4MzEgMCAmIzEwO0wgMTE3MiAwICYjMTA7TCAyNzY2IDQxMzQgJiMxMDtMIDUyNSA0MTM0ICYjMTA7TCA1MjUgNDY2NiAmIzEwO3oiIGlkPSJEZWphVnVTYW5zLTM3Ii8+JiN4YTsgICAgICAgPC9kZWZzPiYjeGE7ICAgICAgIDx1c2UgeGxpbms6aHJlZj0iI0RlamFWdVNhbnMtMzAiLz4mI3hhOyAgICAgICA8dXNlIHg9IjYzLjYyMzA0NyIgeGxpbms6aHJlZj0iI0RlamFWdVNhbnMtMmUiLz4mI3hhOyAgICAgICA8dXNlIHg9Ijk1LjQxMDE1NiIgeGxpbms6aHJlZj0iI0RlamFWdVNhbnMtMzciLz4mI3hhOyAgICAgICA8dXNlIHg9IjE1OS4wMzMyMDMiIHhsaW5rOmhyZWY9IiNEZWphVnVTYW5zLTMwIi8+JiN4YTsgICAgICA8L2c+JiN4YTsgICAgIDwvZz4mI3hhOyAgICA8L2c+JiN4YTsgICAgPGcgaWQ9Inl0aWNrXzYiPiYjeGE7ICAgICA8ZyBpZD0ibGluZTJkXzI5Ij4mI3hhOyAgICAgIDxwYXRoIHN0eWxlPSJmaWxsOiBub25lOyBzdHJva2UtZGFzaGFycmF5OiAwLjgsMS4zMjsgc3Ryb2tlLWRhc2hvZmZzZXQ6IDA7IHN0cm9rZTogI2IwYjBiMDsgc3Ryb2tlLXdpZHRoOiAwLjgiIGNsaXAtcGF0aD0idXJsKCNwMzE1ZDJmY2MzYykiIGQ9Ik0gNjQuODU2ODc1IDQxLjI4MzYzNiAmIzEwO0wgNjE0LjAxNjg3NSA0MS4yODM2MzYiLz4mI3hhOyAgICAgPC9nPiYjeGE7ICAgICA8ZyBpZD0ibGluZTJkXzMwIj4mI3hhOyAgICAgIDxnPiYjeGE7ICAgICAgIDx1c2Ugc3R5bGU9InN0cm9rZTogIzAwMDAwMDsgc3Ryb2tlLXdpZHRoOiAwLjgiIHk9IjQxLjI4MzYzNiIgeD0iNjQuODU2ODc1IiB4bGluazpocmVmPSIjbTQ3ZWRlNTY5NjkiLz4mI3hhOyAgICAgIDwvZz4mI3hhOyAgICAgPC9nPiYjeGE7ICAgICA8ZyBpZD0idGV4dF8xNiI+JiN4YTsgICAgICAmI3hhOyAgICAgIDxnIHRyYW5zZm9ybT0idHJhbnNsYXRlKDI2LjY4NSA0Ni42MDI1NDMpIHNjYWxlKDAuMTQgLTAuMTQpIj4mI3hhOyAgICAgICA8dXNlIHhsaW5rOmhyZWY9IiNEZWphVnVTYW5zLTMwIi8+JiN4YTsgICAgICAgPHVzZSB4PSI2My42MjMwNDciIHhsaW5rOmhyZWY9IiNEZWphVnVTYW5zLTJlIi8+JiN4YTsgICAgICAgPHVzZSB4PSI5NS40MTAxNTYiIHhsaW5rOmhyZWY9IiNEZWphVnVTYW5zLTM4Ii8+JiN4YTsgICAgICAgPHVzZSB4PSIxNTkuMDMzMjAzIiB4bGluazpocmVmPSIjRGVqYVZ1U2Fucy0zMCIvPiYjeGE7ICAgICAgPC9nPiYjeGE7ICAgICA8L2c+JiN4YTsgICAgPC9nPiYjeGE7ICAgIDxnIGlkPSJ0ZXh0XzE3Ij4mI3hhOyAgICAgJiN4YTsgICAgIDxnIHRyYW5zZm9ybT0idHJhbnNsYXRlKDE5LjM1NzUgMjEyLjM2Mzc1KSByb3RhdGUoLTkwKSBzY2FsZSgwLjE2IC0wLjE2KSI+JiN4YTsgICAgICA8ZGVmcz4mI3hhOyAgICAgICA8cGF0aCB0cmFuc2Zvcm09InNjYWxlKDAuMDE1NjI1KSIgZD0iTSAxMjU5IDQxNDcgJiMxMDtMIDEyNTkgNTE5ICYjMTA7TCAyMDIyIDUxOSAmIzEwO1EgMjk4OCA1MTkgMzQzNiA5NTYgJiMxMDtRIDM4ODQgMTM5NCAzODg0IDIzMzggJiMxMDtRIDM4ODQgMzI3NSAzNDM2IDM3MTEgJiMxMDtRIDI5ODggNDE0NyAyMDIyIDQxNDcgJiMxMDtMIDEyNTkgNDE0NyAmIzEwO3omIzEwO00gNjI4IDQ2NjYgJiMxMDtMIDE5MjUgNDY2NiAmIzEwO1EgMzI4MSA0NjY2IDM5MTUgNDEwMiAmIzEwO1EgNDU1MCAzNTM4IDQ1NTAgMjMzOCAmIzEwO1EgNDU1MCAxMTMxIDM5MTIgNTY1ICYjMTA7USAzMjc1IDAgMTkyNSAwICYjMTA7TCA2MjggMCAmIzEwO0wgNjI4IDQ2NjYgJiMxMDt6IiBpZD0iRGVqYVZ1U2Fucy00NCIvPiYjeGE7ICAgICAgIDxwYXRoIHRyYW5zZm9ybT0ic2NhbGUoMC4wMTU2MjUpIiBkPSJNIDYwMyAzNTAwICYjMTA7TCAxMTc4IDM1MDAgJiMxMDtMIDExNzggMCAmIzEwO0wgNjAzIDAgJiMxMDtMIDYwMyAzNTAwICYjMTA7eiYjMTA7TSA2MDMgNDg2MyAmIzEwO0wgMTE3OCA0ODYzICYjMTA7TCAxMTc4IDQxMzQgJiMxMDtMIDYwMyA0MTM0ICYjMTA7TCA2MDMgNDg2MyAmIzEwO3oiIGlkPSJEZWphVnVTYW5zLTY5Ii8+JiN4YTsgICAgICAgPHBhdGggdHJhbnNmb3JtPSJzY2FsZSgwLjAxNTYyNSkiIGQ9Ik0gMzEyMiAzMzY2ICYjMTA7TCAzMTIyIDI4MjggJiMxMDtRIDI4NzggMjk2MyAyNjMzIDMwMzAgJiMxMDtRIDIzODggMzA5NyAyMTM4IDMwOTcgJiMxMDtRIDE1NzggMzA5NyAxMjY4IDI3NDIgJiMxMDtRIDk1OSAyMzg4IDk1OSAxNzQ3ICYjMTA7USA5NTkgMTEwNiAxMjY4IDc1MSAmIzEwO1EgMTU3OCAzOTcgMjEzOCAzOTcgJiMxMDtRIDIzODggMzk3IDI2MzMgNDY0ICYjMTA7USAyODc4IDUzMSAzMTIyIDY2NiAmIzEwO0wgMzEyMiAxMzQgJiMxMDtRIDI4ODEgMjIgMjYyMyAtMzQgJiMxMDtRIDIzNjYgLTkxIDIwNzUgLTkxICYjMTA7USAxMjg0IC05MSA4MTggNDA2ICYjMTA7USAzNTMgOTAzIDM1MyAxNzQ3ICYjMTA7USAzNTMgMjYwMyA4MjMgMzA5MyAmIzEwO1EgMTI5NCAzNTg0IDIxMTMgMzU4NCAmIzEwO1EgMjM3OCAzNTg0IDI2MzEgMzUyOSAmIzEwO1EgMjg4NCAzNDc1IDMxMjIgMzM2NiAmIzEwO3oiIGlkPSJEZWphVnVTYW5zLTYzIi8+JiN4YTsgICAgICA8L2RlZnM+JiN4YTsgICAgICA8dXNlIHhsaW5rOmhyZWY9IiNEZWphVnVTYW5zLTQ0Ii8+JiN4YTsgICAgICA8dXNlIHg9Ijc3LjAwMTk1MyIgeGxpbms6aHJlZj0iI0RlamFWdVNhbnMtNjkiLz4mI3hhOyAgICAgIDx1c2UgeD0iMTA0Ljc4NTE1NiIgeGxpbms6aHJlZj0iI0RlamFWdVNhbnMtNjMiLz4mI3hhOyAgICAgIDx1c2UgeD0iMTU5Ljc2NTYyNSIgeGxpbms6aHJlZj0iI0RlamFWdVNhbnMtNjUiLz4mI3hhOyAgICAgPC9nPiYjeGE7ICAgIDwvZz4mI3hhOyAgIDwvZz4mI3hhOyAgIDxnIGlkPSJsaW5lMmRfMzEiPiYjeGE7ICAgIDxwYXRoIHN0eWxlPSJmaWxsOiBub25lOyBzdHJva2U6ICMxZjc3YjQ7IHN0cm9rZS13aWR0aDogMS41OyBzdHJva2UtbGluZWNhcDogc3F1YXJlIiBjbGlwLXBhdGg9InVybCgjcDMxNWQyZmNjM2MpIiBkPSJNIDEyMS4wMjA5NjYgNzAuMzMzMDI3ICYjMTA7TCAxNTIuMjIzMjM5IDYyLjI0ODY5ICYjMTA7TCAyMTQuNjI3Nzg0IDUxLjQwMzc2NiAmIzEwO0wgMjc3LjAzMjMzIDQ5LjcyNjY1OSAmIzEwO0wgMzM5LjQzNjg3NSA0NC42MzM0OTcgJiMxMDtMIDQwMS44NDE0MiA0NC42NjUwNzEgJiMxMDtMIDQ2NC4yNDU5NjYgNDMuMjYyNjUzICYjMTA7TCA1MjYuNjUwNTExIDQxLjkzMDMxNiAmIzEwO0wgNTg5LjA1NTA1NyA0MS44OTQ4ODYiLz4mI3hhOyAgICA8ZGVmcz4mI3hhOyAgICAgPHBhdGggc3R5bGU9InN0cm9rZTogIzFmNzdiNCIgZD0iTSAwIDMgJiMxMDtDIDAuNzk1NjA5IDMgMS41NTg3NCAyLjY4MzkwMSAyLjEyMTMyIDIuMTIxMzIgJiMxMDtDIDIuNjgzOTAxIDEuNTU4NzQgMyAwLjc5NTYwOSAzIDAgJiMxMDtDIDMgLTAuNzk1NjA5IDIuNjgzOTAxIC0xLjU1ODc0IDIuMTIxMzIgLTIuMTIxMzIgJiMxMDtDIDEuNTU4NzQgLTIuNjgzOTAxIDAuNzk1NjA5IC0zIDAgLTMgJiMxMDtDIC0wLjc5NTYwOSAtMyAtMS41NTg3NCAtMi42ODM5MDEgLTIuMTIxMzIgLTIuMTIxMzIgJiMxMDtDIC0yLjY4MzkwMSAtMS41NTg3NCAtMyAtMC43OTU2MDkgLTMgMCAmIzEwO0MgLTMgMC43OTU2MDkgLTIuNjgzOTAxIDEuNTU4NzQgLTIuMTIxMzIgMi4xMjEzMiAmIzEwO0MgLTEuNTU4NzQgMi42ODM5MDEgLTAuNzk1NjA5IDMgMCAzICYjMTA7eiIgaWQ9Im1jNDQ0YTk1MmY4Ii8+JiN4YTsgICAgPC9kZWZzPiYjeGE7ICAgIDxnIGNsaXAtcGF0aD0idXJsKCNwMzE1ZDJmY2MzYykiPiYjeGE7ICAgICA8dXNlIHN0eWxlPSJmaWxsOiAjMWY3N2I0OyBzdHJva2U6ICMxZjc3YjQiIHk9IjcwLjMzMzAyNyIgeD0iMTIxLjAyMDk2NiIgeGxpbms6aHJlZj0iI21jNDQ0YTk1MmY4Ii8+JiN4YTsgICAgIDx1c2Ugc3R5bGU9ImZpbGw6ICMxZjc3YjQ7IHN0cm9rZTogIzFmNzdiNCIgeT0iNjIuMjQ4NjkiIHg9IjE1Mi4yMjMyMzkiIHhsaW5rOmhyZWY9IiNtYzQ0NGE5NTJmOCIvPiYjeGE7ICAgICA8dXNlIHN0eWxlPSJmaWxsOiAjMWY3N2I0OyBzdHJva2U6ICMxZjc3YjQiIHk9IjUxLjQwMzc2NiIgeD0iMjE0LjYyNzc4NCIgeGxpbms6aHJlZj0iI21jNDQ0YTk1MmY4Ii8+JiN4YTsgICAgIDx1c2Ugc3R5bGU9ImZpbGw6ICMxZjc3YjQ7IHN0cm9rZTogIzFmNzdiNCIgeT0iNDkuNzI2NjU5IiB4PSIyNzcuMDMyMzMiIHhsaW5rOmhyZWY9IiNtYzQ0NGE5NTJmOCIvPiYjeGE7ICAgICA8dXNlIHN0eWxlPSJmaWxsOiAjMWY3N2I0OyBzdHJva2U6ICMxZjc3YjQiIHk9IjQ0LjYzMzQ5NyIgeD0iMzM5LjQzNjg3NSIgeGxpbms6aHJlZj0iI21jNDQ0YTk1MmY4Ii8+JiN4YTsgICAgIDx1c2Ugc3R5bGU9ImZpbGw6ICMxZjc3YjQ7IHN0cm9rZTogIzFmNzdiNCIgeT0iNDQuNjY1MDcxIiB4PSI0MDEuODQxNDIiIHhsaW5rOmhyZWY9IiNtYzQ0NGE5NTJmOCIvPiYjeGE7ICAgICA8dXNlIHN0eWxlPSJmaWxsOiAjMWY3N2I0OyBzdHJva2U6ICMxZjc3YjQiIHk9IjQzLjI2MjY1MyIgeD0iNDY0LjI0NTk2NiIgeGxpbms6aHJlZj0iI21jNDQ0YTk1MmY4Ii8+JiN4YTsgICAgIDx1c2Ugc3R5bGU9ImZpbGw6ICMxZjc3YjQ7IHN0cm9rZTogIzFmNzdiNCIgeT0iNDEuOTMwMzE2IiB4PSI1MjYuNjUwNTExIiB4bGluazpocmVmPSIjbWM0NDRhOTUyZjgiLz4mI3hhOyAgICAgPHVzZSBzdHlsZT0iZmlsbDogIzFmNzdiNDsgc3Ryb2tlOiAjMWY3N2I0IiB5PSI0MS44OTQ4ODYiIHg9IjU4OS4wNTUwNTciIHhsaW5rOmhyZWY9IiNtYzQ0NGE5NTJmOCIvPiYjeGE7ICAgIDwvZz4mI3hhOyAgIDwvZz4mI3hhOyAgIDxnIGlkPSJsaW5lMmRfMzIiPiYjeGE7ICAgIDxwYXRoIHN0eWxlPSJmaWxsOiBub25lOyBzdHJva2U6ICNmZjdmMGU7IHN0cm9rZS13aWR0aDogMS41OyBzdHJva2UtbGluZWNhcDogc3F1YXJlIiBjbGlwLXBhdGg9InVybCgjcDMxNWQyZmNjM2MpIiBkPSJNIDEyMS4wMjA5NjYgNjkuMjc3Nzc3ICYjMTA7TCAxNTIuMjIzMjM5IDY3LjE4ODI0NiAmIzEwO0wgMjE0LjYyNzc4NCA1NS44MDcyNTggJiMxMDtMIDI3Ny4wMzIzMyA1NS42Mzc2ODcgJiMxMDtMIDMzOS40MzY4NzUgNTIuNjUyMzEyICYjMTA7TCA0MDEuODQxNDIgNDkuNTg3MzY5ICYjMTA7TCA0NjQuMjQ1OTY2IDQ3LjM4NTY2OCAmIzEwO0wgNTI2LjY1MDUxMSA0Ni44ODQ5OTEgJiMxMDtMIDU4OS4wNTUwNTcgNDUuNjAwODciLz4mI3hhOyAgICA8ZGVmcz4mI3hhOyAgICAgPHBhdGggc3R5bGU9InN0cm9rZTogI2ZmN2YwZSIgZD0iTSAwIDMgJiMxMDtDIDAuNzk1NjA5IDMgMS41NTg3NCAyLjY4MzkwMSAyLjEyMTMyIDIuMTIxMzIgJiMxMDtDIDIuNjgzOTAxIDEuNTU4NzQgMyAwLjc5NTYwOSAzIDAgJiMxMDtDIDMgLTAuNzk1NjA5IDIuNjgzOTAxIC0xLjU1ODc0IDIuMTIxMzIgLTIuMTIxMzIgJiMxMDtDIDEuNTU4NzQgLTIuNjgzOTAxIDAuNzk1NjA5IC0zIDAgLTMgJiMxMDtDIC0wLjc5NTYwOSAtMyAtMS41NTg3NCAtMi42ODM5MDEgLTIuMTIxMzIgLTIuMTIxMzIgJiMxMDtDIC0yLjY4MzkwMSAtMS41NTg3NCAtMyAtMC43OTU2MDkgLTMgMCAmIzEwO0MgLTMgMC43OTU2MDkgLTIuNjgzOTAxIDEuNTU4NzQgLTIuMTIxMzIgMi4xMjEzMiAmIzEwO0MgLTEuNTU4NzQgMi42ODM5MDEgLTAuNzk1NjA5IDMgMCAzICYjMTA7eiIgaWQ9Im00YmUyNDdkNGFkIi8+JiN4YTsgICAgPC9kZWZzPiYjeGE7ICAgIDxnIGNsaXAtcGF0aD0idXJsKCNwMzE1ZDJmY2MzYykiPiYjeGE7ICAgICA8dXNlIHN0eWxlPSJmaWxsOiAjZmY3ZjBlOyBzdHJva2U6ICNmZjdmMGUiIHk9IjY5LjI3Nzc3NyIgeD0iMTIxLjAyMDk2NiIgeGxpbms6aHJlZj0iI200YmUyNDdkNGFkIi8+JiN4YTsgICAgIDx1c2Ugc3R5bGU9ImZpbGw6ICNmZjdmMGU7IHN0cm9rZTogI2ZmN2YwZSIgeT0iNjcuMTg4MjQ2IiB4PSIxNTIuMjIzMjM5IiB4bGluazpocmVmPSIjbTRiZTI0N2Q0YWQiLz4mI3hhOyAgICAgPHVzZSBzdHlsZT0iZmlsbDogI2ZmN2YwZTsgc3Ryb2tlOiAjZmY3ZjBlIiB5PSI1NS44MDcyNTgiIHg9IjIxNC42Mjc3ODQiIHhsaW5rOmhyZWY9IiNtNGJlMjQ3ZDRhZCIvPiYjeGE7ICAgICA8dXNlIHN0eWxlPSJmaWxsOiAjZmY3ZjBlOyBzdHJva2U6ICNmZjdmMGUiIHk9IjU1LjYzNzY4NyIgeD0iMjc3LjAzMjMzIiB4bGluazpocmVmPSIjbTRiZTI0N2Q0YWQiLz4mI3hhOyAgICAgPHVzZSBzdHlsZT0iZmlsbDogI2ZmN2YwZTsgc3Ryb2tlOiAjZmY3ZjBlIiB5PSI1Mi42NTIzMTIiIHg9IjMzOS40MzY4NzUiIHhsaW5rOmhyZWY9IiNtNGJlMjQ3ZDRhZCIvPiYjeGE7ICAgICA8dXNlIHN0eWxlPSJmaWxsOiAjZmY3ZjBlOyBzdHJva2U6ICNmZjdmMGUiIHk9IjQ5LjU4NzM2OSIgeD0iNDAxLjg0MTQyIiB4bGluazpocmVmPSIjbTRiZTI0N2Q0YWQiLz4mI3hhOyAgICAgPHVzZSBzdHlsZT0iZmlsbDogI2ZmN2YwZTsgc3Ryb2tlOiAjZmY3ZjBlIiB5PSI0Ny4zODU2NjgiIHg9IjQ2NC4yNDU5NjYiIHhsaW5rOmhyZWY9IiNtNGJlMjQ3ZDRhZCIvPiYjeGE7ICAgICA8dXNlIHN0eWxlPSJmaWxsOiAjZmY3ZjBlOyBzdHJva2U6ICNmZjdmMGUiIHk9IjQ2Ljg4NDk5MSIgeD0iNTI2LjY1MDUxMSIgeGxpbms6aHJlZj0iI200YmUyNDdkNGFkIi8+JiN4YTsgICAgIDx1c2Ugc3R5bGU9ImZpbGw6ICNmZjdmMGU7IHN0cm9rZTogI2ZmN2YwZSIgeT0iNDUuNjAwODciIHg9IjU4OS4wNTUwNTciIHhsaW5rOmhyZWY9IiNtNGJlMjQ3ZDRhZCIvPiYjeGE7ICAgIDwvZz4mI3hhOyAgIDwvZz4mI3hhOyAgIDxnIGlkPSJsaW5lMmRfMzMiPiYjeGE7ICAgIDxwYXRoIHN0eWxlPSJmaWxsOiBub25lOyBzdHJva2U6ICMyY2EwMmM7IHN0cm9rZS13aWR0aDogMS41OyBzdHJva2UtbGluZWNhcDogc3F1YXJlIiBjbGlwLXBhdGg9InVybCgjcDMxNWQyZmNjM2MpIiBkPSJNIDEyMS4wMjA5NjYgMTIyLjIwMDgyMiAmIzEwO0wgMTUyLjIyMzIzOSA4My43NDU0MDggJiMxMDtMIDIxNC42Mjc3ODQgNjkuMjYyNDI1ICYjMTA7TCAyNzcuMDMyMzMgNjQuNTEzMjkgJiMxMDtMIDMzOS40MzY4NzUgNjAuMDgxMjYgJiMxMDtMIDQwMS44NDE0MiA1MC4zMTkzMiAmIzEwO0wgNDY0LjI0NTk2NiA1MC4yODA1NjMgJiMxMDtMIDUyNi42NTA1MTEgNTAuMzUwNDc3ICYjMTA7TCA1ODkuMDU1MDU3IDQ5LjcwMzEwNSIvPiYjeGE7ICAgIDxkZWZzPiYjeGE7ICAgICA8cGF0aCBzdHlsZT0ic3Ryb2tlOiAjMmNhMDJjIiBkPSJNIDAgMyAmIzEwO0MgMC43OTU2MDkgMyAxLjU1ODc0IDIuNjgzOTAxIDIuMTIxMzIgMi4xMjEzMiAmIzEwO0MgMi42ODM5MDEgMS41NTg3NCAzIDAuNzk1NjA5IDMgMCAmIzEwO0MgMyAtMC43OTU2MDkgMi42ODM5MDEgLTEuNTU4NzQgMi4xMjEzMiAtMi4xMjEzMiAmIzEwO0MgMS41NTg3NCAtMi42ODM5MDEgMC43OTU2MDkgLTMgMCAtMyAmIzEwO0MgLTAuNzk1NjA5IC0zIC0xLjU1ODc0IC0yLjY4MzkwMSAtMi4xMjEzMiAtMi4xMjEzMiAmIzEwO0MgLTIuNjgzOTAxIC0xLjU1ODc0IC0zIC0wLjc5NTYwOSAtMyAwICYjMTA7QyAtMyAwLjc5NTYwOSAtMi42ODM5MDEgMS41NTg3NCAtMi4xMjEzMiAyLjEyMTMyICYjMTA7QyAtMS41NTg3NCAyLjY4MzkwMSAtMC43OTU2MDkgMyAwIDMgJiMxMDt6IiBpZD0ibTdlMzYzMjk4ZWMiLz4mI3hhOyAgICA8L2RlZnM+JiN4YTsgICAgPGcgY2xpcC1wYXRoPSJ1cmwoI3AzMTVkMmZjYzNjKSI+JiN4YTsgICAgIDx1c2Ugc3R5bGU9ImZpbGw6ICMyY2EwMmM7IHN0cm9rZTogIzJjYTAyYyIgeT0iMTIyLjIwMDgyMiIgeD0iMTIxLjAyMDk2NiIgeGxpbms6aHJlZj0iI203ZTM2MzI5OGVjIi8+JiN4YTsgICAgIDx1c2Ugc3R5bGU9ImZpbGw6ICMyY2EwMmM7IHN0cm9rZTogIzJjYTAyYyIgeT0iODMuNzQ1NDA4IiB4PSIxNTIuMjIzMjM5IiB4bGluazpocmVmPSIjbTdlMzYzMjk4ZWMiLz4mI3hhOyAgICAgPHVzZSBzdHlsZT0iZmlsbDogIzJjYTAyYzsgc3Ryb2tlOiAjMmNhMDJjIiB5PSI2OS4yNjI0MjUiIHg9IjIxNC42Mjc3ODQiIHhsaW5rOmhyZWY9IiNtN2UzNjMyOThlYyIvPiYjeGE7ICAgICA8dXNlIHN0eWxlPSJmaWxsOiAjMmNhMDJjOyBzdHJva2U6ICMyY2EwMmMiIHk9IjY0LjUxMzI5IiB4PSIyNzcuMDMyMzMiIHhsaW5rOmhyZWY9IiNtN2UzNjMyOThlYyIvPiYjeGE7ICAgICA8dXNlIHN0eWxlPSJmaWxsOiAjMmNhMDJjOyBzdHJva2U6ICMyY2EwMmMiIHk9IjYwLjA4MTI2IiB4PSIzMzkuNDM2ODc1IiB4bGluazpocmVmPSIjbTdlMzYzMjk4ZWMiLz4mI3hhOyAgICAgPHVzZSBzdHlsZT0iZmlsbDogIzJjYTAyYzsgc3Ryb2tlOiAjMmNhMDJjIiB5PSI1MC4zMTkzMiIgeD0iNDAxLjg0MTQyIiB4bGluazpocmVmPSIjbTdlMzYzMjk4ZWMiLz4mI3hhOyAgICAgPHVzZSBzdHlsZT0iZmlsbDogIzJjYTAyYzsgc3Ryb2tlOiAjMmNhMDJjIiB5PSI1MC4yODA1NjMiIHg9IjQ2NC4yNDU5NjYiIHhsaW5rOmhyZWY9IiNtN2UzNjMyOThlYyIvPiYjeGE7ICAgICA8dXNlIHN0eWxlPSJmaWxsOiAjMmNhMDJjOyBzdHJva2U6ICMyY2EwMmMiIHk9IjUwLjM1MDQ3NyIgeD0iNTI2LjY1MDUxMSIgeGxpbms6aHJlZj0iI203ZTM2MzI5OGVjIi8+JiN4YTsgICAgIDx1c2Ugc3R5bGU9ImZpbGw6ICMyY2EwMmM7IHN0cm9rZTogIzJjYTAyYyIgeT0iNDkuNzAzMTA1IiB4PSI1ODkuMDU1MDU3IiB4bGluazpocmVmPSIjbTdlMzYzMjk4ZWMiLz4mI3hhOyAgICA8L2c+JiN4YTsgICA8L2c+JiN4YTsgICA8ZyBpZD0ibGluZTJkXzM0Ij4mI3hhOyAgICA8cGF0aCBzdHlsZT0iZmlsbDogbm9uZTsgc3Ryb2tlOiAjZDYyNzI4OyBzdHJva2Utd2lkdGg6IDEuNTsgc3Ryb2tlLWxpbmVjYXA6IHNxdWFyZSIgY2xpcC1wYXRoPSJ1cmwoI3AzMTVkMmZjYzNjKSIgZD0iTSAxMjEuMDIwOTY2IDEyMS44MDc0OCAmIzEwO0wgMTUyLjIyMzIzOSA5MS43ODMyMzUgJiMxMDtMIDIxNC42Mjc3ODQgNzUuNDAxMTY3ICYjMTA7TCAyNzcuMDMyMzMgNjguMTI2Njk5ICYjMTA7TCAzMzkuNDM2ODc1IDY0Ljk5NTUgJiMxMDtMIDQwMS44NDE0MiA1Mi4wNDAyMzIgJiMxMDtMIDQ2NC4yNDU5NjYgNTQuMjU2NDM5ICYjMTA7TCA1MjYuNjUwNTExIDUxLjYwNDIzOSAmIzEwO0wgNTg5LjA1NTA1NyA1MS4yNTg0OTEiLz4mI3hhOyAgICA8ZGVmcz4mI3hhOyAgICAgPHBhdGggc3R5bGU9InN0cm9rZTogI2Q2MjcyOCIgZD0iTSAwIDMgJiMxMDtDIDAuNzk1NjA5IDMgMS41NTg3NCAyLjY4MzkwMSAyLjEyMTMyIDIuMTIxMzIgJiMxMDtDIDIuNjgzOTAxIDEuNTU4NzQgMyAwLjc5NTYwOSAzIDAgJiMxMDtDIDMgLTAuNzk1NjA5IDIuNjgzOTAxIC0xLjU1ODc0IDIuMTIxMzIgLTIuMTIxMzIgJiMxMDtDIDEuNTU4NzQgLTIuNjgzOTAxIDAuNzk1NjA5IC0zIDAgLTMgJiMxMDtDIC0wLjc5NTYwOSAtMyAtMS41NTg3NCAtMi42ODM5MDEgLTIuMTIxMzIgLTIuMTIxMzIgJiMxMDtDIC0yLjY4MzkwMSAtMS41NTg3NCAtMyAtMC43OTU2MDkgLTMgMCAmIzEwO0MgLTMgMC43OTU2MDkgLTIuNjgzOTAxIDEuNTU4NzQgLTIuMTIxMzIgMi4xMjEzMiAmIzEwO0MgLTEuNTU4NzQgMi42ODM5MDEgLTAuNzk1NjA5IDMgMCAzICYjMTA7eiIgaWQ9Im0xNmFlMWQ3ZjdmIi8+JiN4YTsgICAgPC9kZWZzPiYjeGE7ICAgIDxnIGNsaXAtcGF0aD0idXJsKCNwMzE1ZDJmY2MzYykiPiYjeGE7ICAgICA8dXNlIHN0eWxlPSJmaWxsOiAjZDYyNzI4OyBzdHJva2U6ICNkNjI3MjgiIHk9IjEyMS44MDc0OCIgeD0iMTIxLjAyMDk2NiIgeGxpbms6aHJlZj0iI20xNmFlMWQ3ZjdmIi8+JiN4YTsgICAgIDx1c2Ugc3R5bGU9ImZpbGw6ICNkNjI3Mjg7IHN0cm9rZTogI2Q2MjcyOCIgeT0iOTEuNzgzMjM1IiB4PSIxNTIuMjIzMjM5IiB4bGluazpocmVmPSIjbTE2YWUxZDdmN2YiLz4mI3hhOyAgICAgPHVzZSBzdHlsZT0iZmlsbDogI2Q2MjcyODsgc3Ryb2tlOiAjZDYyNzI4IiB5PSI3NS40MDExNjciIHg9IjIxNC42Mjc3ODQiIHhsaW5rOmhyZWY9IiNtMTZhZTFkN2Y3ZiIvPiYjeGE7ICAgICA8dXNlIHN0eWxlPSJmaWxsOiAjZDYyNzI4OyBzdHJva2U6ICNkNjI3MjgiIHk9IjY4LjEyNjY5OSIgeD0iMjc3LjAzMjMzIiB4bGluazpocmVmPSIjbTE2YWUxZDdmN2YiLz4mI3hhOyAgICAgPHVzZSBzdHlsZT0iZmlsbDogI2Q2MjcyODsgc3Ryb2tlOiAjZDYyNzI4IiB5PSI2NC45OTU1IiB4PSIzMzkuNDM2ODc1IiB4bGluazpocmVmPSIjbTE2YWUxZDdmN2YiLz4mI3hhOyAgICAgPHVzZSBzdHlsZT0iZmlsbDogI2Q2MjcyODsgc3Ryb2tlOiAjZDYyNzI4IiB5PSI1Mi4wNDAyMzIiIHg9IjQwMS44NDE0MiIgeGxpbms6aHJlZj0iI20xNmFlMWQ3ZjdmIi8+JiN4YTsgICAgIDx1c2Ugc3R5bGU9ImZpbGw6ICNkNjI3Mjg7IHN0cm9rZTogI2Q2MjcyOCIgeT0iNTQuMjU2NDM5IiB4PSI0NjQuMjQ1OTY2IiB4bGluazpocmVmPSIjbTE2YWUxZDdmN2YiLz4mI3hhOyAgICAgPHVzZSBzdHlsZT0iZmlsbDogI2Q2MjcyODsgc3Ryb2tlOiAjZDYyNzI4IiB5PSI1MS42MDQyMzkiIHg9IjUyNi42NTA1MTEiIHhsaW5rOmhyZWY9IiNtMTZhZTFkN2Y3ZiIvPiYjeGE7ICAgICA8dXNlIHN0eWxlPSJmaWxsOiAjZDYyNzI4OyBzdHJva2U6ICNkNjI3MjgiIHk9IjUxLjI1ODQ5MSIgeD0iNTg5LjA1NTA1NyIgeGxpbms6aHJlZj0iI20xNmFlMWQ3ZjdmIi8+JiN4YTsgICAgPC9nPiYjeGE7ICAgPC9nPiYjeGE7ICAgPGcgaWQ9ImxpbmUyZF8zNSI+JiN4YTsgICAgPHBhdGggc3R5bGU9ImZpbGw6IG5vbmU7IHN0cm9rZTogIzFmNzdiNDsgc3Ryb2tlLXdpZHRoOiAxLjU7IHN0cm9rZS1saW5lY2FwOiBzcXVhcmUiIGNsaXAtcGF0aD0idXJsKCNwMzE1ZDJmY2MzYykiIGQ9Ik0gODkuODE4NjkzIDMzNi43NDk4MjkiLz4mI3hhOyAgICA8ZGVmcz4mI3hhOyAgICAgPHBhdGggc3R5bGU9InN0cm9rZTogIzFmNzdiNDsgc3Ryb2tlLWxpbmVqb2luOiBiZXZlbCIgZD0iTSAwIC01ICYjMTA7TCAtMS4xMjI1NyAtMS41NDUwODUgJiMxMDtMIC00Ljc1NTI4MyAtMS41NDUwODUgJiMxMDtMIC0xLjgxNjM1NiAwLjU5MDE3ICYjMTA7TCAtMi45Mzg5MjYgNC4wNDUwODUgJiMxMDtMIC0wIDEuOTA5ODMgJiMxMDtMIDIuOTM4OTI2IDQuMDQ1MDg1ICYjMTA7TCAxLjgxNjM1NiAwLjU5MDE3ICYjMTA7TCA0Ljc1NTI4MyAtMS41NDUwODUgJiMxMDtMIDEuMTIyNTcgLTEuNTQ1MDg1ICYjMTA7eiIgaWQ9Im0zODFkMGRhYjFiIi8+JiN4YTsgICAgPC9kZWZzPiYjeGE7ICAgIDxnIGNsaXAtcGF0aD0idXJsKCNwMzE1ZDJmY2MzYykiPiYjeGE7ICAgICA8dXNlIHN0eWxlPSJmaWxsOiAjMWY3N2I0OyBzdHJva2U6ICMxZjc3YjQ7IHN0cm9rZS1saW5lam9pbjogYmV2ZWwiIHk9IjMzNi43NDk4MjkiIHg9Ijg5LjgxODY5MyIgeGxpbms6aHJlZj0iI20zODFkMGRhYjFiIi8+JiN4YTsgICAgPC9nPiYjeGE7ICAgPC9nPiYjeGE7ICAgPGcgaWQ9ImxpbmUyZF8zNiI+JiN4YTsgICAgPHBhdGggc3R5bGU9ImZpbGw6IG5vbmU7IHN0cm9rZTogI2ZmN2YwZTsgc3Ryb2tlLXdpZHRoOiAxLjU7IHN0cm9rZS1saW5lY2FwOiBzcXVhcmUiIGNsaXAtcGF0aD0idXJsKCNwMzE1ZDJmY2MzYykiIGQ9Ik0gODkuODE4NjkzIDEzOS4zNTcxNjciLz4mI3hhOyAgICA8ZGVmcz4mI3hhOyAgICAgPHBhdGggc3R5bGU9InN0cm9rZTogI2ZmN2YwZTsgc3Ryb2tlLWxpbmVqb2luOiBiZXZlbCIgZD0iTSAwIC01ICYjMTA7TCAtMS4xMjI1NyAtMS41NDUwODUgJiMxMDtMIC00Ljc1NTI4MyAtMS41NDUwODUgJiMxMDtMIC0xLjgxNjM1NiAwLjU5MDE3ICYjMTA7TCAtMi45Mzg5MjYgNC4wNDUwODUgJiMxMDtMIC0wIDEuOTA5ODMgJiMxMDtMIDIuOTM4OTI2IDQuMDQ1MDg1ICYjMTA7TCAxLjgxNjM1NiAwLjU5MDE3ICYjMTA7TCA0Ljc1NTI4MyAtMS41NDUwODUgJiMxMDtMIDEuMTIyNTcgLTEuNTQ1MDg1ICYjMTA7eiIgaWQ9Im05YTU3ODk3Y2MwIi8+JiN4YTsgICAgPC9kZWZzPiYjeGE7ICAgIDxnIGNsaXAtcGF0aD0idXJsKCNwMzE1ZDJmY2MzYykiPiYjeGE7ICAgICA8dXNlIHN0eWxlPSJmaWxsOiAjZmY3ZjBlOyBzdHJva2U6ICNmZjdmMGU7IHN0cm9rZS1saW5lam9pbjogYmV2ZWwiIHk9IjEzOS4zNTcxNjciIHg9Ijg5LjgxODY5MyIgeGxpbms6aHJlZj0iI205YTU3ODk3Y2MwIi8+JiN4YTsgICAgPC9nPiYjeGE7ICAgPC9nPiYjeGE7ICAgPGcgaWQ9InBhdGNoXzMiPiYjeGE7ICAgIDxwYXRoIHN0eWxlPSJmaWxsOiBub25lOyBzdHJva2U6ICMwMDAwMDA7IHN0cm9rZS13aWR0aDogMC44OyBzdHJva2UtbGluZWpvaW46IG1pdGVyOyBzdHJva2UtbGluZWNhcDogc3F1YXJlIiBkPSJNIDY0Ljg1Njg3NSAzODIuMTIgJiMxMDtMIDY0Ljg1Njg3NSA3LjIiLz4mI3hhOyAgIDwvZz4mI3hhOyAgIDxnIGlkPSJwYXRjaF80Ij4mI3hhOyAgICA8cGF0aCBzdHlsZT0iZmlsbDogbm9uZTsgc3Ryb2tlOiAjMDAwMDAwOyBzdHJva2Utd2lkdGg6IDAuODsgc3Ryb2tlLWxpbmVqb2luOiBtaXRlcjsgc3Ryb2tlLWxpbmVjYXA6IHNxdWFyZSIgZD0iTSA2MTQuMDE2ODc1IDM4Mi4xMiAmIzEwO0wgNjE0LjAxNjg3NSA3LjIiLz4mI3hhOyAgIDwvZz4mI3hhOyAgIDxnIGlkPSJwYXRjaF81Ij4mI3hhOyAgICA8cGF0aCBzdHlsZT0iZmlsbDogbm9uZTsgc3Ryb2tlOiAjMDAwMDAwOyBzdHJva2Utd2lkdGg6IDAuODsgc3Ryb2tlLWxpbmVqb2luOiBtaXRlcjsgc3Ryb2tlLWxpbmVjYXA6IHNxdWFyZSIgZD0iTSA2NC44NTY4NzUgMzgyLjEyICYjMTA7TCA2MTQuMDE2ODc1IDM4Mi4xMiIvPiYjeGE7ICAgPC9nPiYjeGE7ICAgPGcgaWQ9InBhdGNoXzYiPiYjeGE7ICAgIDxwYXRoIHN0eWxlPSJmaWxsOiBub25lOyBzdHJva2U6ICMwMDAwMDA7IHN0cm9rZS13aWR0aDogMC44OyBzdHJva2UtbGluZWpvaW46IG1pdGVyOyBzdHJva2UtbGluZWNhcDogc3F1YXJlIiBkPSJNIDY0Ljg1Njg3NSA3LjIgJiMxMDtMIDYxNC4wMTY4NzUgNy4yIi8+JiN4YTsgICA8L2c+JiN4YTsgICA8ZyBpZD0idGV4dF8xOCI+JiN4YTsgICAgPGcgY2xpcC1wYXRoPSJ1cmwoI3AzMTVkMmZjYzNjKSI+JiN4YTsgICAgICYjeGE7ICAgICA8ZyB0cmFuc2Zvcm09InRyYW5zbGF0ZSg2NS4wNTQ2MzEgMzIwLjA2Mzk2Nikgc2NhbGUoMC4xIC0wLjEpIiBzdHlsZT0iZmlsbDogIzFmNzdiNCI+JiN4YTsgICAgICA8ZGVmcz4mI3hhOyAgICAgICA8cGF0aCB0cmFuc2Zvcm09InNjYWxlKDAuMDE1NjI1KSIgZD0iTSAzNTkgNDY2NiAmIzEwO0wgNDAyNSA0NjY2ICYjMTA7TCA0MDI1IDQxODQgJiMxMDtMIDEwNzUgNTMxICYjMTA7TCA0MDk3IDUzMSAmIzEwO0wgNDA5NyAwICYjMTA7TCAyODggMCAmIzEwO0wgMjg4IDQ4MSAmIzEwO0wgMzIzOCA0MTM0ICYjMTA7TCAzNTkgNDEzNCAmIzEwO0wgMzU5IDQ2NjYgJiMxMDt6IiBpZD0iRGVqYVZ1U2Fucy01YSIvPiYjeGE7ICAgICAgIDxwYXRoIHRyYW5zZm9ybT0ic2NhbGUoMC4wMTU2MjUpIiBkPSJNIDI2MzEgMjk2MyAmIzEwO1EgMjUzNCAzMDE5IDI0MjAgMzA0NSAmIzEwO1EgMjMwNiAzMDcyIDIxNjkgMzA3MiAmIzEwO1EgMTY4MSAzMDcyIDE0MjAgMjc1NSAmIzEwO1EgMTE1OSAyNDM4IDExNTkgMTg0NCAmIzEwO0wgMTE1OSAwICYjMTA7TCA1ODEgMCAmIzEwO0wgNTgxIDM1MDAgJiMxMDtMIDExNTkgMzUwMCAmIzEwO0wgMTE1OSAyOTU2ICYjMTA7USAxMzQxIDMyNzUgMTYzMSAzNDI5ICYjMTA7USAxOTIyIDM1ODQgMjMzOCAzNTg0ICYjMTA7USAyMzk3IDM1ODQgMjQ2OSAzNTc2ICYjMTA7USAyNTQxIDM1NjkgMjYyOCAzNTUzICYjMTA7TCAyNjMxIDI5NjMgJiMxMDt6IiBpZD0iRGVqYVZ1U2Fucy03MiIvPiYjeGE7ICAgICAgIDxwYXRoIHRyYW5zZm9ybT0ic2NhbGUoMC4wMTU2MjUpIiBkPSJNIDMxMyAyMDA5ICYjMTA7TCAxOTk3IDIwMDkgJiMxMDtMIDE5OTcgMTQ5NyAmIzEwO0wgMzEzIDE0OTcgJiMxMDtMIDMxMyAyMDA5ICYjMTA7eiIgaWQ9IkRlamFWdVNhbnMtMmQiLz4mI3hhOyAgICAgICA8cGF0aCB0cmFuc2Zvcm09InNjYWxlKDAuMDE1NjI1KSIgZD0iTSAzNDI1IDQ1MTMgJiMxMDtMIDM0MjUgMzg5NyAmIzEwO1EgMzA2NiA0MDY5IDI3NDcgNDE1MyAmIzEwO1EgMjQyOCA0MjM4IDIxMzEgNDIzOCAmIzEwO1EgMTYxNiA0MjM4IDEzMzYgNDAzOCAmIzEwO1EgMTA1NiAzODM4IDEwNTYgMzQ2OSAmIzEwO1EgMTA1NiAzMTU5IDEyNDIgMzAwMSAmIzEwO1EgMTQyOCAyODQ0IDE5NDcgMjc0NyAmIzEwO0wgMjMyOCAyNjY5ICYjMTA7USAzMDM0IDI1MzQgMzM3MCAyMTk1ICYjMTA7USAzNzA2IDE4NTYgMzcwNiAxMjg4ICYjMTA7USAzNzA2IDYwOSAzMjUxIDI1OSAmIzEwO1EgMjc5NyAtOTEgMTkxOSAtOTEgJiMxMDtRIDE1ODggLTkxIDEyMTQgLTE2ICYjMTA7USA4NDEgNTkgNDQxIDIwNiAmIzEwO0wgNDQxIDg1NiAmIzEwO1EgODI1IDY0MSAxMTk0IDUzMSAmIzEwO1EgMTU2MyA0MjIgMTkxOSA0MjIgJiMxMDtRIDI0NTkgNDIyIDI3NTMgNjM0ICYjMTA7USAzMDQ3IDg0NyAzMDQ3IDEyNDEgJiMxMDtRIDMwNDcgMTU4NCAyODM2IDE3NzggJiMxMDtRIDI2MjUgMTk3MiAyMTQ0IDIwNjkgJiMxMDtMIDE3NTkgMjE0NCAmIzEwO1EgMTA1MyAyMjg0IDczNyAyNTg0ICYjMTA7USA0MjIgMjg4NCA0MjIgMzQxOSAmIzEwO1EgNDIyIDQwMzggODU4IDQzOTQgJiMxMDtRIDEyOTQgNDc1MCAyMDU5IDQ3NTAgJiMxMDtRIDIzODggNDc1MCAyNzI4IDQ2OTAgJiMxMDtRIDMwNjkgNDYzMSAzNDI1IDQ1MTMgJiMxMDt6IiBpZD0iRGVqYVZ1U2Fucy01MyIvPiYjeGE7ICAgICAgIDxwYXRoIHRyYW5zZm9ybT0ic2NhbGUoMC4wMTU2MjUpIiBkPSJNIDM1MTMgMjExMyAmIzEwO0wgMzUxMyAwICYjMTA7TCAyOTM4IDAgJiMxMDtMIDI5MzggMjA5NCAmIzEwO1EgMjkzOCAyNTkxIDI3NDQgMjgzNyAmIzEwO1EgMjU1MCAzMDg0IDIxNjMgMzA4NCAmIzEwO1EgMTY5NyAzMDg0IDE0MjggMjc4NyAmIzEwO1EgMTE1OSAyNDkxIDExNTkgMTk3OCAmIzEwO0wgMTE1OSAwICYjMTA7TCA1ODEgMCAmIzEwO0wgNTgxIDQ4NjMgJiMxMDtMIDExNTkgNDg2MyAmIzEwO0wgMTE1OSAyOTU2ICYjMTA7USAxMzY2IDMyNzIgMTY0NSAzNDI4ICYjMTA7USAxOTI1IDM1ODQgMjI5MSAzNTg0ICYjMTA7USAyODk0IDM1ODQgMzIwMyAzMjExICYjMTA7USAzNTEzIDI4MzggMzUxMyAyMTEzICYjMTA7eiIgaWQ9IkRlamFWdVNhbnMtNjgiLz4mI3hhOyAgICAgICA8cGF0aCB0cmFuc2Zvcm09InNjYWxlKDAuMDE1NjI1KSIgZD0iTSAxMTcyIDQ0OTQgJiMxMDtMIDExNzIgMzUwMCAmIzEwO0wgMjM1NiAzNTAwICYjMTA7TCAyMzU2IDMwNTMgJiMxMDtMIDExNzIgMzA1MyAmIzEwO0wgMTE3MiAxMTUzICYjMTA7USAxMTcyIDcyNSAxMjg5IDYwMyAmIzEwO1EgMTQwNiA0ODEgMTc2NiA0ODEgJiMxMDtMIDIzNTYgNDgxICYjMTA7TCAyMzU2IDAgJiMxMDtMIDE3NjYgMCAmIzEwO1EgMTEwMCAwIDg0NyAyNDggJiMxMDtRIDU5NCA0OTcgNTk0IDExNTMgJiMxMDtMIDU5NCAzMDUzICYjMTA7TCAxNzIgMzA1MyAmIzEwO0wgMTcyIDM1MDAgJiMxMDtMIDU5NCAzNTAwICYjMTA7TCA1OTQgNDQ5NCAmIzEwO0wgMTE3MiA0NDk0ICYjMTA7eiIgaWQ9IkRlamFWdVNhbnMtNzQiLz4mI3hhOyAgICAgIDwvZGVmcz4mI3hhOyAgICAgIDx1c2UgeGxpbms6aHJlZj0iI0RlamFWdVNhbnMtNWEiLz4mI3hhOyAgICAgIDx1c2UgeD0iNjguNTA1ODU5IiB4bGluazpocmVmPSIjRGVqYVZ1U2Fucy02NSIvPiYjeGE7ICAgICAgPHVzZSB4PSIxMzAuMDI5Mjk3IiB4bGluazpocmVmPSIjRGVqYVZ1U2Fucy03MiIvPiYjeGE7ICAgICAgPHVzZSB4PSIxNjguODkyNTc4IiB4bGluazpocmVmPSIjRGVqYVZ1U2Fucy02ZiIvPiYjeGE7ICAgICAgPHVzZSB4PSIyMzEuOTQ5MjE5IiB4bGluazpocmVmPSIjRGVqYVZ1U2Fucy0yZCIvPiYjeGE7ICAgICAgPHVzZSB4PSIyNjguMDMzMjAzIiB4bGluazpocmVmPSIjRGVqYVZ1U2Fucy01MyIvPiYjeGE7ICAgICAgPHVzZSB4PSIzMzEuNTA5NzY2IiB4bGluazpocmVmPSIjRGVqYVZ1U2Fucy02OCIvPiYjeGE7ICAgICAgPHVzZSB4PSIzOTQuODg4NjcyIiB4bGluazpocmVmPSIjRGVqYVZ1U2Fucy02ZiIvPiYjeGE7ICAgICAgPHVzZSB4PSI0NTYuMDcwMzEyIiB4bGluazpocmVmPSIjRGVqYVZ1U2Fucy03NCIvPiYjeGE7ICAgICA8L2c+JiN4YTsgICAgPC9nPiYjeGE7ICAgIDxnIGNsaXAtcGF0aD0idXJsKCNwMzE1ZDJmY2MzYykiPiYjeGE7ICAgICAmI3hhOyAgICAgPGcgdHJhbnNmb3JtPSJ0cmFuc2xhdGUoNjUuNzQ4MzgxIDMzMS4yNjE3NzgpIHNjYWxlKDAuMSAtMC4xKSIgc3R5bGU9ImZpbGw6ICMxZjc3YjQiPiYjeGE7ICAgICAgPGRlZnM+JiN4YTsgICAgICAgPHBhdGggdHJhbnNmb3JtPSJzY2FsZSgwLjAxNTYyNSkiIGQ9Ik0gMjg0MSAyMTg4ICYjMTA7USAzMDQ0IDIxMTkgMzIzNiAxODk0ICYjMTA7USAzNDI4IDE2NjkgMzYyMiAxMjc1ICYjMTA7TCA0MjYzIDAgJiMxMDtMIDM1ODQgMCAmIzEwO0wgMjk4OCAxMTk3ICYjMTA7USAyNzU2IDE2NjYgMjUzOSAxODE5ICYjMTA7USAyMzIyIDE5NzIgMTk0NyAxOTcyICYjMTA7TCAxMjU5IDE5NzIgJiMxMDtMIDEyNTkgMCAmIzEwO0wgNjI4IDAgJiMxMDtMIDYyOCA0NjY2ICYjMTA7TCAyMDUzIDQ2NjYgJiMxMDtRIDI4NTMgNDY2NiAzMjQ3IDQzMzEgJiMxMDtRIDM2NDEgMzk5NyAzNjQxIDMzMjIgJiMxMDtRIDM2NDEgMjg4MSAzNDM2IDI1OTAgJiMxMDtRIDMyMzEgMjMwMCAyODQxIDIxODggJiMxMDt6JiMxMDtNIDEyNTkgNDE0NyAmIzEwO0wgMTI1OSAyNDkxICYjMTA7TCAyMDUzIDI0OTEgJiMxMDtRIDI1MDkgMjQ5MSAyNzQyIDI3MDIgJiMxMDtRIDI5NzUgMjkxMyAyOTc1IDMzMjIgJiMxMDtRIDI5NzUgMzczMSAyNzQyIDM5MzkgJiMxMDtRIDI1MDkgNDE0NyAyMDUzIDQxNDcgJiMxMDtMIDEyNTkgNDE0NyAmIzEwO3oiIGlkPSJEZWphVnVTYW5zLTUyIi8+JiN4YTsgICAgICAgPHBhdGggdHJhbnNmb3JtPSJzY2FsZSgwLjAxNTYyNSkiIGQ9Ik0gNjI4IDQ2NjYgJiMxMDtMIDE0NzggNDY2NiAmIzEwO0wgMzU0NyA3NjMgJiMxMDtMIDM1NDcgNDY2NiAmIzEwO0wgNDE1OSA0NjY2ICYjMTA7TCA0MTU5IDAgJiMxMDtMIDMzMDkgMCAmIzEwO0wgMTI0MSAzOTAzICYjMTA7TCAxMjQxIDAgJiMxMDtMIDYyOCAwICYjMTA7TCA2MjggNDY2NiAmIzEwO3oiIGlkPSJEZWphVnVTYW5zLTRlIi8+JiN4YTsgICAgICA8L2RlZnM+JiN4YTsgICAgICA8dXNlIHhsaW5rOmhyZWY9IiNEZWphVnVTYW5zLTUyIi8+JiN4YTsgICAgICA8dXNlIHg9IjY0Ljk4MjQyMiIgeGxpbms6aHJlZj0iI0RlamFWdVNhbnMtNjUiLz4mI3hhOyAgICAgIDx1c2UgeD0iMTI2LjUwNTg1OSIgeGxpbms6aHJlZj0iI0RlamFWdVNhbnMtNzMiLz4mI3hhOyAgICAgIDx1c2UgeD0iMTc4LjYwNTQ2OSIgeGxpbms6aHJlZj0iI0RlamFWdVNhbnMtNGUiLz4mI3hhOyAgICAgIDx1c2UgeD0iMjUzLjQxMDE1NiIgeGxpbms6aHJlZj0iI0RlamFWdVNhbnMtNjUiLz4mI3hhOyAgICAgIDx1c2UgeD0iMzE0LjkzMzU5NCIgeGxpbms6aHJlZj0iI0RlamFWdVNhbnMtNzQiLz4mI3hhOyAgICAgIDx1c2UgeD0iMzU0LjE0MjU3OCIgeGxpbms6aHJlZj0iI0RlamFWdVNhbnMtMzUiLz4mI3hhOyAgICAgIDx1c2UgeD0iNDE3Ljc2NTYyNSIgeGxpbms6aHJlZj0iI0RlamFWdVNhbnMtMzAiLz4mI3hhOyAgICAgPC9nPiYjeGE7ICAgIDwvZz4mI3hhOyAgIDwvZz4mI3hhOyAgIDxnIGlkPSJ0ZXh0XzE5Ij4mI3hhOyAgICA8ZyBjbGlwLXBhdGg9InVybCgjcDMxNWQyZmNjM2MpIj4mI3hhOyAgICAgJiN4YTsgICAgIDxnIHRyYW5zZm9ybT0idHJhbnNsYXRlKDY1LjA1NDYzMSAxMjIuNjcxMzAzKSBzY2FsZSgwLjEgLTAuMSkiIHN0eWxlPSJmaWxsOiAjZmY3ZjBlIj4mI3hhOyAgICAgIDx1c2UgeGxpbms6aHJlZj0iI0RlamFWdVNhbnMtNWEiLz4mI3hhOyAgICAgIDx1c2UgeD0iNjguNTA1ODU5IiB4bGluazpocmVmPSIjRGVqYVZ1U2Fucy02NSIvPiYjeGE7ICAgICAgPHVzZSB4PSIxMzAuMDI5Mjk3IiB4bGluazpocmVmPSIjRGVqYVZ1U2Fucy03MiIvPiYjeGE7ICAgICAgPHVzZSB4PSIxNjguODkyNTc4IiB4bGluazpocmVmPSIjRGVqYVZ1U2Fucy02ZiIvPiYjeGE7ICAgICAgPHVzZSB4PSIyMzEuOTQ5MjE5IiB4bGluazpocmVmPSIjRGVqYVZ1U2Fucy0yZCIvPiYjeGE7ICAgICAgPHVzZSB4PSIyNjguMDMzMjAzIiB4bGluazpocmVmPSIjRGVqYVZ1U2Fucy01MyIvPiYjeGE7ICAgICAgPHVzZSB4PSIzMzEuNTA5NzY2IiB4bGluazpocmVmPSIjRGVqYVZ1U2Fucy02OCIvPiYjeGE7ICAgICAgPHVzZSB4PSIzOTQuODg4NjcyIiB4bGluazpocmVmPSIjRGVqYVZ1U2Fucy02ZiIvPiYjeGE7ICAgICAgPHVzZSB4PSI0NTYuMDcwMzEyIiB4bGluazpocmVmPSIjRGVqYVZ1U2Fucy03NCIvPiYjeGE7ICAgICA8L2c+JiN4YTsgICAgPC9nPiYjeGE7ICAgIDxnIGNsaXAtcGF0aD0idXJsKCNwMzE1ZDJmY2MzYykiPiYjeGE7ICAgICAmI3hhOyAgICAgPGcgdHJhbnNmb3JtPSJ0cmFuc2xhdGUoNjUuNzQ4MzgxIDEzMy44NjkxMTYpIHNjYWxlKDAuMSAtMC4xKSIgc3R5bGU9ImZpbGw6ICNmZjdmMGUiPiYjeGE7ICAgICAgPHVzZSB4bGluazpocmVmPSIjRGVqYVZ1U2Fucy01MiIvPiYjeGE7ICAgICAgPHVzZSB4PSI2NC45ODI0MjIiIHhsaW5rOmhyZWY9IiNEZWphVnVTYW5zLTY1Ii8+JiN4YTsgICAgICA8dXNlIHg9IjEyNi41MDU4NTkiIHhsaW5rOmhyZWY9IiNEZWphVnVTYW5zLTczIi8+JiN4YTsgICAgICA8dXNlIHg9IjE3OC42MDU0NjkiIHhsaW5rOmhyZWY9IiNEZWphVnVTYW5zLTRlIi8+JiN4YTsgICAgICA8dXNlIHg9IjI1My40MTAxNTYiIHhsaW5rOmhyZWY9IiNEZWphVnVTYW5zLTY1Ii8+JiN4YTsgICAgICA8dXNlIHg9IjMxNC45MzM1OTQiIHhsaW5rOmhyZWY9IiNEZWphVnVTYW5zLTc0Ii8+JiN4YTsgICAgICA8dXNlIHg9IjM1NC4xNDI1NzgiIHhsaW5rOmhyZWY9IiNEZWphVnVTYW5zLTMxIi8+JiN4YTsgICAgICA8dXNlIHg9IjQxNy43NjU2MjUiIHhsaW5rOmhyZWY9IiNEZWphVnVTYW5zLTM4Ii8+JiN4YTsgICAgIDwvZz4mI3hhOyAgICA8L2c+JiN4YTsgICA8L2c+JiN4YTsgICA8ZyBpZD0ibGVnZW5kXzEiPiYjeGE7ICAgIDxnIGlkPSJwYXRjaF83Ij4mI3hhOyAgICAgPHBhdGggc3R5bGU9ImZpbGw6ICNmZmZmZmY7IG9wYWNpdHk6IDAuODsgc3Ryb2tlOiAjY2NjY2NjOyBzdHJva2UtbGluZWpvaW46IG1pdGVyIiBkPSJNIDQyNi4zNDA2MjUgMzc3LjEyICYjMTA7TCA2MDcuMDE2ODc1IDM3Ny4xMiAmIzEwO1EgNjA5LjAxNjg3NSAzNzcuMTIgNjA5LjAxNjg3NSAzNzUuMTIgJiMxMDtMIDYwOS4wMTY4NzUgMjkzLjA1MTI1ICYjMTA7USA2MDkuMDE2ODc1IDI5MS4wNTEyNSA2MDcuMDE2ODc1IDI5MS4wNTEyNSAmIzEwO0wgNDI2LjM0MDYyNSAyOTEuMDUxMjUgJiMxMDtRIDQyNC4zNDA2MjUgMjkxLjA1MTI1IDQyNC4zNDA2MjUgMjkzLjA1MTI1ICYjMTA7TCA0MjQuMzQwNjI1IDM3NS4xMiAmIzEwO1EgNDI0LjM0MDYyNSAzNzcuMTIgNDI2LjM0MDYyNSAzNzcuMTIgJiMxMDt6Ii8+JiN4YTsgICAgPC9nPiYjeGE7ICAgIDxnIGlkPSJ0ZXh0XzIwIj4mI3hhOyAgICAgJiN4YTsgICAgIDxnIHRyYW5zZm9ybT0idHJhbnNsYXRlKDQ4Mi45NzY1NjIgMzA0LjE2OTM3NSkgc2NhbGUoMC4xMiAtMC4xMikiPiYjeGE7ICAgICAgPGRlZnM+JiN4YTsgICAgICAgPHBhdGggdHJhbnNmb3JtPSJzY2FsZSgwLjAxNTYyNSkiIGQ9Ik0gNjI4IDQ2NjYgJiMxMDtMIDE1NjkgNDY2NiAmIzEwO0wgMjc1OSAxNDkxICYjMTA7TCAzOTU2IDQ2NjYgJiMxMDtMIDQ4OTcgNDY2NiAmIzEwO0wgNDg5NyAwICYjMTA7TCA0MjgxIDAgJiMxMDtMIDQyODEgNDA5NyAmIzEwO0wgMzA3OCA4OTcgJiMxMDtMIDI0NDQgODk3ICYjMTA7TCAxMjQxIDQwOTcgJiMxMDtMIDEyNDEgMCAmIzEwO0wgNjI4IDAgJiMxMDtMIDYyOCA0NjY2ICYjMTA7eiIgaWQ9IkRlamFWdVNhbnMtNGQiLz4mI3hhOyAgICAgICA8cGF0aCB0cmFuc2Zvcm09InNjYWxlKDAuMDE1NjI1KSIgZD0iTSAtMTkgNDY2NiAmIzEwO0wgMzkyOCA0NjY2ICYjMTA7TCAzOTI4IDQxMzQgJiMxMDtMIDIyNzIgNDEzNCAmIzEwO0wgMjI3MiAwICYjMTA7TCAxNjM4IDAgJiMxMDtMIDE2MzggNDEzNCAmIzEwO0wgLTE5IDQxMzQgJiMxMDtMIC0xOSA0NjY2ICYjMTA7eiIgaWQ9IkRlamFWdVNhbnMtNTQiLz4mI3hhOyAgICAgICA8cGF0aCB0cmFuc2Zvcm09InNjYWxlKDAuMDE1NjI1KSIgZD0iTSAyMDU5IC0zMjUgJiMxMDtRIDE4MTYgLTk1MCAxNTg0IC0xMTQwICYjMTA7USAxMzUzIC0xMzMxIDk2NiAtMTMzMSAmIzEwO0wgNTA2IC0xMzMxICYjMTA7TCA1MDYgLTg1MCAmIzEwO0wgODQ0IC04NTAgJiMxMDtRIDEwODEgLTg1MCAxMjEyIC03MzcgJiMxMDtRIDEzNDQgLTYyNSAxNTAzIC0yMDYgJiMxMDtMIDE2MDYgNTYgJiMxMDtMIDE5MSAzNTAwICYjMTA7TCA4MDAgMzUwMCAmIzEwO0wgMTg5NCA3NjMgJiMxMDtMIDI5ODggMzUwMCAmIzEwO0wgMzU5NyAzNTAwICYjMTA7TCAyMDU5IC0zMjUgJiMxMDt6IiBpZD0iRGVqYVZ1U2Fucy03OSIvPiYjeGE7ICAgICAgPC9kZWZzPiYjeGE7ICAgICAgPHVzZSB4bGluazpocmVmPSIjRGVqYVZ1U2Fucy00ZCIvPiYjeGE7ICAgICAgPHVzZSB4PSI4Ni4yNzkyOTciIHhsaW5rOmhyZWY9IiNEZWphVnVTYW5zLTZmIi8+JiN4YTsgICAgICA8dXNlIHg9IjE0Ny40NjA5MzgiIHhsaW5rOmhyZWY9IiNEZWphVnVTYW5zLTY0Ii8+JiN4YTsgICAgICA8dXNlIHg9IjIxMC45Mzc1IiB4bGluazpocmVmPSIjRGVqYVZ1U2Fucy02NSIvPiYjeGE7ICAgICAgPHVzZSB4PSIyNzIuNDYwOTM4IiB4bGluazpocmVmPSIjRGVqYVZ1U2Fucy02YyIvPiYjeGE7ICAgICAgPHVzZSB4PSIzMDAuMjQ0MTQxIiB4bGluazpocmVmPSIjRGVqYVZ1U2Fucy0yMCIvPiYjeGE7ICAgICAgPHVzZSB4PSIzMzIuMDMxMjUiIHhsaW5rOmhyZWY9IiNEZWphVnVTYW5zLTU0Ii8+JiN4YTsgICAgICA8dXNlIHg9IjM3Ny40OTAyMzQiIHhsaW5rOmhyZWY9IiNEZWphVnVTYW5zLTc5Ii8+JiN4YTsgICAgICA8dXNlIHg9IjQzNi42Njk5MjIiIHhsaW5rOmhyZWY9IiNEZWphVnVTYW5zLTcwIi8+JiN4YTsgICAgICA8dXNlIHg9IjUwMC4xNDY0ODQiIHhsaW5rOmhyZWY9IiNEZWphVnVTYW5zLTY1Ii8+JiN4YTsgICAgIDwvZz4mI3hhOyAgICA8L2c+JiN4YTsgICAgPGcgaWQ9ImxpbmUyZF8zNyI+JiN4YTsgICAgIDxwYXRoIHN0eWxlPSJmaWxsOiBub25lOyBzdHJva2U6ICMxZjc3YjQ7IHN0cm9rZS13aWR0aDogMS41OyBzdHJva2UtbGluZWNhcDogc3F1YXJlIiBkPSJNIDQyOC4zNDA2MjUgMzE3LjI4MzEyNSAmIzEwO0wgNDM4LjM0MDYyNSAzMTcuMjgzMTI1ICYjMTA7TCA0NDguMzQwNjI1IDMxNy4yODMxMjUiLz4mI3hhOyAgICAgPGc+JiN4YTsgICAgICA8dXNlIHN0eWxlPSJmaWxsOiAjMWY3N2I0OyBzdHJva2U6ICMxZjc3YjQiIHk9IjMxNy4yODMxMjUiIHg9IjQzOC4zNDA2MjUiIHhsaW5rOmhyZWY9IiNtYzQ0NGE5NTJmOCIvPiYjeGE7ICAgICA8L2c+JiN4YTsgICAgPC9nPiYjeGE7ICAgIDxnIGlkPSJ0ZXh0XzIxIj4mI3hhOyAgICAgJiN4YTsgICAgIDxnIHRyYW5zZm9ybT0idHJhbnNsYXRlKDQ1Ni4zNDA2MjUgMzIwLjc4MzEyNSkgc2NhbGUoMC4xMiAtMC4xMikiPiYjeGE7ICAgICAgPGRlZnM+JiN4YTsgICAgICAgPHBhdGggdHJhbnNmb3JtPSJzY2FsZSgwLjAxNTYyNSkiIGQ9Ik0gNjI4IDQ2NjYgJiMxMDtMIDMzMDkgNDY2NiAmIzEwO0wgMzMwOSA0MTM0ICYjMTA7TCAxMjU5IDQxMzQgJiMxMDtMIDEyNTkgMjc1OSAmIzEwO0wgMzEwOSAyNzU5ICYjMTA7TCAzMTA5IDIyMjggJiMxMDtMIDEyNTkgMjIyOCAmIzEwO0wgMTI1OSAwICYjMTA7TCA2MjggMCAmIzEwO0wgNjI4IDQ2NjYgJiMxMDt6IiBpZD0iRGVqYVZ1U2Fucy00NiIvPiYjeGE7ICAgICAgIDxwYXRoIHRyYW5zZm9ybT0ic2NhbGUoMC4wMTU2MjUpIiBkPSJNIDM1MTMgMjExMyAmIzEwO0wgMzUxMyAwICYjMTA7TCAyOTM4IDAgJiMxMDtMIDI5MzggMjA5NCAmIzEwO1EgMjkzOCAyNTkxIDI3NDQgMjgzNyAmIzEwO1EgMjU1MCAzMDg0IDIxNjMgMzA4NCAmIzEwO1EgMTY5NyAzMDg0IDE0MjggMjc4NyAmIzEwO1EgMTE1OSAyNDkxIDExNTkgMTk3OCAmIzEwO0wgMTE1OSAwICYjMTA7TCA1ODEgMCAmIzEwO0wgNTgxIDM1MDAgJiMxMDtMIDExNTkgMzUwMCAmIzEwO0wgMTE1OSAyOTU2ICYjMTA7USAxMzY2IDMyNzIgMTY0NSAzNDI4ICYjMTA7USAxOTI1IDM1ODQgMjI5MSAzNTg0ICYjMTA7USAyODk0IDM1ODQgMzIwMyAzMjExICYjMTA7USAzNTEzIDI4MzggMzUxMyAyMTEzICYjMTA7eiIgaWQ9IkRlamFWdVNhbnMtNmUiLz4mI3hhOyAgICAgICA8cGF0aCB0cmFuc2Zvcm09InNjYWxlKDAuMDE1NjI1KSIgZD0iTSA1NDQgMTM4MSAmIzEwO0wgNTQ0IDM1MDAgJiMxMDtMIDExMTkgMzUwMCAmIzEwO0wgMTExOSAxNDAzICYjMTA7USAxMTE5IDkwNiAxMzEyIDY1NyAmIzEwO1EgMTUwNiA0MDkgMTg5NCA0MDkgJiMxMDtRIDIzNTkgNDA5IDI2MjkgNzA2ICYjMTA7USAyOTAwIDEwMDMgMjkwMCAxNTE2ICYjMTA7TCAyOTAwIDM1MDAgJiMxMDtMIDM0NzUgMzUwMCAmIzEwO0wgMzQ3NSAwICYjMTA7TCAyOTAwIDAgJiMxMDtMIDI5MDAgNTM4ICYjMTA7USAyNjkxIDIxOSAyNDE0IDY0ICYjMTA7USAyMTM4IC05MSAxNzcyIC05MSAmIzEwO1EgMTE2OSAtOTEgODU2IDI4NCAmIzEwO1EgNTQ0IDY1OSA1NDQgMTM4MSAmIzEwO3omIzEwO00gMTk5MSAzNTg0ICYjMTA7TCAxOTkxIDM1ODQgJiMxMDt6IiBpZD0iRGVqYVZ1U2Fucy03NSIvPiYjeGE7ICAgICAgPC9kZWZzPiYjeGE7ICAgICAgPHVzZSB4bGluazpocmVmPSIjRGVqYVZ1U2Fucy01MiIvPiYjeGE7ICAgICAgPHVzZSB4PSI2NC45ODI0MjIiIHhsaW5rOmhyZWY9IiNEZWphVnVTYW5zLTY1Ii8+JiN4YTsgICAgICA8dXNlIHg9IjEyNi41MDU4NTkiIHhsaW5rOmhyZWY9IiNEZWphVnVTYW5zLTczIi8+JiN4YTsgICAgICA8dXNlIHg9IjE3OC42MDU0NjkiIHhsaW5rOmhyZWY9IiNEZWphVnVTYW5zLTRlIi8+JiN4YTsgICAgICA8dXNlIHg9IjI1My40MTAxNTYiIHhsaW5rOmhyZWY9IiNEZWphVnVTYW5zLTY1Ii8+JiN4YTsgICAgICA8dXNlIHg9IjMxNC45MzM1OTQiIHhsaW5rOmhyZWY9IiNEZWphVnVTYW5zLTc0Ii8+JiN4YTsgICAgICA8dXNlIHg9IjM1NC4xNDI1NzgiIHhsaW5rOmhyZWY9IiNEZWphVnVTYW5zLTM1Ii8+JiN4YTsgICAgICA8dXNlIHg9IjQxNy43NjU2MjUiIHhsaW5rOmhyZWY9IiNEZWphVnVTYW5zLTMwIi8+JiN4YTsgICAgICA8dXNlIHg9IjQ4MS4zODg2NzIiIHhsaW5rOmhyZWY9IiNEZWphVnVTYW5zLTIwIi8+JiN4YTsgICAgICA8dXNlIHg9IjUxMy4xNzU3ODEiIHhsaW5rOmhyZWY9IiNEZWphVnVTYW5zLTJkIi8+JiN4YTsgICAgICA8dXNlIHg9IjU0OS4yNTk3NjYiIHhsaW5rOmhyZWY9IiNEZWphVnVTYW5zLTIwIi8+JiN4YTsgICAgICA8dXNlIHg9IjU4MS4wNDY4NzUiIHhsaW5rOmhyZWY9IiNEZWphVnVTYW5zLTQ2Ii8+JiN4YTsgICAgICA8dXNlIHg9IjYzMS4zMTY0MDYiIHhsaW5rOmhyZWY9IiNEZWphVnVTYW5zLTY5Ii8+JiN4YTsgICAgICA8dXNlIHg9IjY1OS4wOTk2MDkiIHhsaW5rOmhyZWY9IiNEZWphVnVTYW5zLTZlIi8+JiN4YTsgICAgICA8dXNlIHg9IjcyMi40Nzg1MTYiIHhsaW5rOmhyZWY9IiNEZWphVnVTYW5zLTY1Ii8+JiN4YTsgICAgICA8dXNlIHg9Ijc4NC4wMDE5NTMiIHhsaW5rOmhyZWY9IiNEZWphVnVTYW5zLTJkIi8+JiN4YTsgICAgICA8dXNlIHg9IjgyMC4wODU5MzgiIHhsaW5rOmhyZWY9IiNEZWphVnVTYW5zLTc0Ii8+JiN4YTsgICAgICA8dXNlIHg9Ijg1OS4yOTQ5MjIiIHhsaW5rOmhyZWY9IiNEZWphVnVTYW5zLTc1Ii8+JiN4YTsgICAgICA8dXNlIHg9IjkyMi42NzM4MjgiIHhsaW5rOmhyZWY9IiNEZWphVnVTYW5zLTZlIi8+JiN4YTsgICAgICA8dXNlIHg9Ijk4Ni4wNTI3MzQiIHhsaW5rOmhyZWY9IiNEZWphVnVTYW5zLTY1Ii8+JiN4YTsgICAgICA8dXNlIHg9IjEwNDcuNTc2MTcyIiB4bGluazpocmVmPSIjRGVqYVZ1U2Fucy02NCIvPiYjeGE7ICAgICA8L2c+JiN4YTsgICAgPC9nPiYjeGE7ICAgIDxnIGlkPSJsaW5lMmRfMzgiPiYjeGE7ICAgICA8cGF0aCBzdHlsZT0iZmlsbDogbm9uZTsgc3Ryb2tlOiAjZmY3ZjBlOyBzdHJva2Utd2lkdGg6IDEuNTsgc3Ryb2tlLWxpbmVjYXA6IHNxdWFyZSIgZD0iTSA0MjguMzQwNjI1IDMzMy44OTY4NzUgJiMxMDtMIDQzOC4zNDA2MjUgMzMzLjg5Njg3NSAmIzEwO0wgNDQ4LjM0MDYyNSAzMzMuODk2ODc1Ii8+JiN4YTsgICAgIDxnPiYjeGE7ICAgICAgPHVzZSBzdHlsZT0iZmlsbDogI2ZmN2YwZTsgc3Ryb2tlOiAjZmY3ZjBlIiB5PSIzMzMuODk2ODc1IiB4PSI0MzguMzQwNjI1IiB4bGluazpocmVmPSIjbTRiZTI0N2Q0YWQiLz4mI3hhOyAgICAgPC9nPiYjeGE7ICAgIDwvZz4mI3hhOyAgICA8ZyBpZD0idGV4dF8yMiI+JiN4YTsgICAgICYjeGE7ICAgICA8ZyB0cmFuc2Zvcm09InRyYW5zbGF0ZSg0NTYuMzQwNjI1IDMzNy4zOTY4NzUpIHNjYWxlKDAuMTIgLTAuMTIpIj4mI3hhOyAgICAgIDx1c2UgeGxpbms6aHJlZj0iI0RlamFWdVNhbnMtNTIiLz4mI3hhOyAgICAgIDx1c2UgeD0iNjQuOTgyNDIyIiB4bGluazpocmVmPSIjRGVqYVZ1U2Fucy02NSIvPiYjeGE7ICAgICAgPHVzZSB4PSIxMjYuNTA1ODU5IiB4bGluazpocmVmPSIjRGVqYVZ1U2Fucy03MyIvPiYjeGE7ICAgICAgPHVzZSB4PSIxNzguNjA1NDY5IiB4bGluazpocmVmPSIjRGVqYVZ1U2Fucy00ZSIvPiYjeGE7ICAgICAgPHVzZSB4PSIyNTMuNDEwMTU2IiB4bGluazpocmVmPSIjRGVqYVZ1U2Fucy02NSIvPiYjeGE7ICAgICAgPHVzZSB4PSIzMTQuOTMzNTk0IiB4bGluazpocmVmPSIjRGVqYVZ1U2Fucy03NCIvPiYjeGE7ICAgICAgPHVzZSB4PSIzNTQuMTQyNTc4IiB4bGluazpocmVmPSIjRGVqYVZ1U2Fucy0zMSIvPiYjeGE7ICAgICAgPHVzZSB4PSI0MTcuNzY1NjI1IiB4bGluazpocmVmPSIjRGVqYVZ1U2Fucy0zOCIvPiYjeGE7ICAgICAgPHVzZSB4PSI0ODEuMzg4NjcyIiB4bGluazpocmVmPSIjRGVqYVZ1U2Fucy0yMCIvPiYjeGE7ICAgICAgPHVzZSB4PSI1MTMuMTc1NzgxIiB4bGluazpocmVmPSIjRGVqYVZ1U2Fucy0yZCIvPiYjeGE7ICAgICAgPHVzZSB4PSI1NDkuMjU5NzY2IiB4bGluazpocmVmPSIjRGVqYVZ1U2Fucy0yMCIvPiYjeGE7ICAgICAgPHVzZSB4PSI1ODEuMDQ2ODc1IiB4bGluazpocmVmPSIjRGVqYVZ1U2Fucy00NiIvPiYjeGE7ICAgICAgPHVzZSB4PSI2MzEuMzE2NDA2IiB4bGluazpocmVmPSIjRGVqYVZ1U2Fucy02OSIvPiYjeGE7ICAgICAgPHVzZSB4PSI2NTkuMDk5NjA5IiB4bGluazpocmVmPSIjRGVqYVZ1U2Fucy02ZSIvPiYjeGE7ICAgICAgPHVzZSB4PSI3MjIuNDc4NTE2IiB4bGluazpocmVmPSIjRGVqYVZ1U2Fucy02NSIvPiYjeGE7ICAgICAgPHVzZSB4PSI3ODQuMDAxOTUzIiB4bGluazpocmVmPSIjRGVqYVZ1U2Fucy0yZCIvPiYjeGE7ICAgICAgPHVzZSB4PSI4MjAuMDg1OTM4IiB4bGluazpocmVmPSIjRGVqYVZ1U2Fucy03NCIvPiYjeGE7ICAgICAgPHVzZSB4PSI4NTkuMjk0OTIyIiB4bGluazpocmVmPSIjRGVqYVZ1U2Fucy03NSIvPiYjeGE7ICAgICAgPHVzZSB4PSI5MjIuNjczODI4IiB4bGluazpocmVmPSIjRGVqYVZ1U2Fucy02ZSIvPiYjeGE7ICAgICAgPHVzZSB4PSI5ODYuMDUyNzM0IiB4bGluazpocmVmPSIjRGVqYVZ1U2Fucy02NSIvPiYjeGE7ICAgICAgPHVzZSB4PSIxMDQ3LjU3NjE3MiIgeGxpbms6aHJlZj0iI0RlamFWdVNhbnMtNjQiLz4mI3hhOyAgICAgPC9nPiYjeGE7ICAgIDwvZz4mI3hhOyAgICA8ZyBpZD0ibGluZTJkXzM5Ij4mI3hhOyAgICAgPHBhdGggc3R5bGU9ImZpbGw6IG5vbmU7IHN0cm9rZTogIzJjYTAyYzsgc3Ryb2tlLXdpZHRoOiAxLjU7IHN0cm9rZS1saW5lY2FwOiBzcXVhcmUiIGQ9Ik0gNDI4LjM0MDYyNSAzNTAuNTEwNjI1ICYjMTA7TCA0MzguMzQwNjI1IDM1MC41MTA2MjUgJiMxMDtMIDQ0OC4zNDA2MjUgMzUwLjUxMDYyNSIvPiYjeGE7ICAgICA8Zz4mI3hhOyAgICAgIDx1c2Ugc3R5bGU9ImZpbGw6ICMyY2EwMmM7IHN0cm9rZTogIzJjYTAyYyIgeT0iMzUwLjUxMDYyNSIgeD0iNDM4LjM0MDYyNSIgeGxpbms6aHJlZj0iI203ZTM2MzI5OGVjIi8+JiN4YTsgICAgIDwvZz4mI3hhOyAgICA8L2c+JiN4YTsgICAgPGcgaWQ9InRleHRfMjMiPiYjeGE7ICAgICAmI3hhOyAgICAgPGcgdHJhbnNmb3JtPSJ0cmFuc2xhdGUoNDU2LjM0MDYyNSAzNTQuMDEwNjI1KSBzY2FsZSgwLjEyIC0wLjEyKSI+JiN4YTsgICAgICA8dXNlIHhsaW5rOmhyZWY9IiNEZWphVnVTYW5zLTUyIi8+JiN4YTsgICAgICA8dXNlIHg9IjY0Ljk4MjQyMiIgeGxpbms6aHJlZj0iI0RlamFWdVNhbnMtNjUiLz4mI3hhOyAgICAgIDx1c2UgeD0iMTI2LjUwNTg1OSIgeGxpbms6aHJlZj0iI0RlamFWdVNhbnMtNzMiLz4mI3hhOyAgICAgIDx1c2UgeD0iMTc4LjYwNTQ2OSIgeGxpbms6aHJlZj0iI0RlamFWdVNhbnMtNGUiLz4mI3hhOyAgICAgIDx1c2UgeD0iMjUzLjQxMDE1NiIgeGxpbms6aHJlZj0iI0RlamFWdVNhbnMtNjUiLz4mI3hhOyAgICAgIDx1c2UgeD0iMzE0LjkzMzU5NCIgeGxpbms6aHJlZj0iI0RlamFWdVNhbnMtNzQiLz4mI3hhOyAgICAgIDx1c2UgeD0iMzU0LjE0MjU3OCIgeGxpbms6aHJlZj0iI0RlamFWdVNhbnMtMzUiLz4mI3hhOyAgICAgIDx1c2UgeD0iNDE3Ljc2NTYyNSIgeGxpbms6aHJlZj0iI0RlamFWdVNhbnMtMzAiLz4mI3hhOyAgICAgIDx1c2UgeD0iNDgxLjM4ODY3MiIgeGxpbms6aHJlZj0iI0RlamFWdVNhbnMtMjAiLz4mI3hhOyAgICAgIDx1c2UgeD0iNTEzLjE3NTc4MSIgeGxpbms6aHJlZj0iI0RlamFWdVNhbnMtMmQiLz4mI3hhOyAgICAgIDx1c2UgeD0iNTQ5LjI1OTc2NiIgeGxpbms6aHJlZj0iI0RlamFWdVNhbnMtMjAiLz4mI3hhOyAgICAgIDx1c2UgeD0iNTgxLjA0Njg3NSIgeGxpbms6aHJlZj0iI0RlamFWdVNhbnMtNDYiLz4mI3hhOyAgICAgIDx1c2UgeD0iNjMxLjMxNjQwNiIgeGxpbms6aHJlZj0iI0RlamFWdVNhbnMtNzIiLz4mI3hhOyAgICAgIDx1c2UgeD0iNjcwLjE3OTY4OCIgeGxpbms6aHJlZj0iI0RlamFWdVNhbnMtNmYiLz4mI3hhOyAgICAgIDx1c2UgeD0iNzMxLjM2MTMyOCIgeGxpbms6aHJlZj0iI0RlamFWdVNhbnMtNmQiLz4mI3hhOyAgICAgIDx1c2UgeD0iODI4Ljc3MzQzOCIgeGxpbms6aHJlZj0iI0RlamFWdVNhbnMtMjAiLz4mI3hhOyAgICAgIDx1c2UgeD0iODYwLjU2MDU0NyIgeGxpbms6aHJlZj0iI0RlamFWdVNhbnMtNTMiLz4mI3hhOyAgICAgIDx1c2UgeD0iOTI0LjAzNzEwOSIgeGxpbms6aHJlZj0iI0RlamFWdVNhbnMtNjMiLz4mI3hhOyAgICAgIDx1c2UgeD0iOTc5LjAxNzU3OCIgeGxpbms6aHJlZj0iI0RlamFWdVNhbnMtNzIiLz4mI3hhOyAgICAgIDx1c2UgeD0iMTAyMC4xMzA4NTkiIHhsaW5rOmhyZWY9IiNEZWphVnVTYW5zLTYxIi8+JiN4YTsgICAgICA8dXNlIHg9IjEwODEuNDEwMTU2IiB4bGluazpocmVmPSIjRGVqYVZ1U2Fucy03NCIvPiYjeGE7ICAgICAgPHVzZSB4PSIxMTIwLjYxOTE0MSIgeGxpbms6aHJlZj0iI0RlamFWdVNhbnMtNjMiLz4mI3hhOyAgICAgIDx1c2UgeD0iMTE3NS41OTk2MDkiIHhsaW5rOmhyZWY9IiNEZWphVnVTYW5zLTY4Ii8+JiN4YTsgICAgIDwvZz4mI3hhOyAgICA8L2c+JiN4YTsgICAgPGcgaWQ9ImxpbmUyZF80MCI+JiN4YTsgICAgIDxwYXRoIHN0eWxlPSJmaWxsOiBub25lOyBzdHJva2U6ICNkNjI3Mjg7IHN0cm9rZS13aWR0aDogMS41OyBzdHJva2UtbGluZWNhcDogc3F1YXJlIiBkPSJNIDQyOC4zNDA2MjUgMzY3LjEyNDM3NSAmIzEwO0wgNDM4LjM0MDYyNSAzNjcuMTI0Mzc1ICYjMTA7TCA0NDguMzQwNjI1IDM2Ny4xMjQzNzUiLz4mI3hhOyAgICAgPGc+JiN4YTsgICAgICA8dXNlIHN0eWxlPSJmaWxsOiAjZDYyNzI4OyBzdHJva2U6ICNkNjI3MjgiIHk9IjM2Ny4xMjQzNzUiIHg9IjQzOC4zNDA2MjUiIHhsaW5rOmhyZWY9IiNtMTZhZTFkN2Y3ZiIvPiYjeGE7ICAgICA8L2c+JiN4YTsgICAgPC9nPiYjeGE7ICAgIDxnIGlkPSJ0ZXh0XzI0Ij4mI3hhOyAgICAgJiN4YTsgICAgIDxnIHRyYW5zZm9ybT0idHJhbnNsYXRlKDQ1Ni4zNDA2MjUgMzcwLjYyNDM3NSkgc2NhbGUoMC4xMiAtMC4xMikiPiYjeGE7ICAgICAgPHVzZSB4bGluazpocmVmPSIjRGVqYVZ1U2Fucy01MiIvPiYjeGE7ICAgICAgPHVzZSB4PSI2NC45ODI0MjIiIHhsaW5rOmhyZWY9IiNEZWphVnVTYW5zLTY1Ii8+JiN4YTsgICAgICA8dXNlIHg9IjEyNi41MDU4NTkiIHhsaW5rOmhyZWY9IiNEZWphVnVTYW5zLTczIi8+JiN4YTsgICAgICA8dXNlIHg9IjE3OC42MDU0NjkiIHhsaW5rOmhyZWY9IiNEZWphVnVTYW5zLTRlIi8+JiN4YTsgICAgICA8dXNlIHg9IjI1My40MTAxNTYiIHhsaW5rOmhyZWY9IiNEZWphVnVTYW5zLTY1Ii8+JiN4YTsgICAgICA8dXNlIHg9IjMxNC45MzM1OTQiIHhsaW5rOmhyZWY9IiNEZWphVnVTYW5zLTc0Ii8+JiN4YTsgICAgICA8dXNlIHg9IjM1NC4xNDI1NzgiIHhsaW5rOmhyZWY9IiNEZWphVnVTYW5zLTMxIi8+JiN4YTsgICAgICA8dXNlIHg9IjQxNy43NjU2MjUiIHhsaW5rOmhyZWY9IiNEZWphVnVTYW5zLTM4Ii8+JiN4YTsgICAgICA8dXNlIHg9IjQ4MS4zODg2NzIiIHhsaW5rOmhyZWY9IiNEZWphVnVTYW5zLTIwIi8+JiN4YTsgICAgICA8dXNlIHg9IjUxMy4xNzU3ODEiIHhsaW5rOmhyZWY9IiNEZWphVnVTYW5zLTJkIi8+JiN4YTsgICAgICA8dXNlIHg9IjU0OS4yNTk3NjYiIHhsaW5rOmhyZWY9IiNEZWphVnVTYW5zLTIwIi8+JiN4YTsgICAgICA8dXNlIHg9IjU4MS4wNDY4NzUiIHhsaW5rOmhyZWY9IiNEZWphVnVTYW5zLTQ2Ii8+JiN4YTsgICAgICA8dXNlIHg9IjYzMS4zMTY0MDYiIHhsaW5rOmhyZWY9IiNEZWphVnVTYW5zLTcyIi8+JiN4YTsgICAgICA8dXNlIHg9IjY3MC4xNzk2ODgiIHhsaW5rOmhyZWY9IiNEZWphVnVTYW5zLTZmIi8+JiN4YTsgICAgICA8dXNlIHg9IjczMS4zNjEzMjgiIHhsaW5rOmhyZWY9IiNEZWphVnVTYW5zLTZkIi8+JiN4YTsgICAgICA8dXNlIHg9IjgyOC43NzM0MzgiIHhsaW5rOmhyZWY9IiNEZWphVnVTYW5zLTIwIi8+JiN4YTsgICAgICA8dXNlIHg9Ijg2MC41NjA1NDciIHhsaW5rOmhyZWY9IiNEZWphVnVTYW5zLTUzIi8+JiN4YTsgICAgICA8dXNlIHg9IjkyNC4wMzcxMDkiIHhsaW5rOmhyZWY9IiNEZWphVnVTYW5zLTYzIi8+JiN4YTsgICAgICA8dXNlIHg9Ijk3OS4wMTc1NzgiIHhsaW5rOmhyZWY9IiNEZWphVnVTYW5zLTcyIi8+JiN4YTsgICAgICA8dXNlIHg9IjEwMjAuMTMwODU5IiB4bGluazpocmVmPSIjRGVqYVZ1U2Fucy02MSIvPiYjeGE7ICAgICAgPHVzZSB4PSIxMDgxLjQxMDE1NiIgeGxpbms6aHJlZj0iI0RlamFWdVNhbnMtNzQiLz4mI3hhOyAgICAgIDx1c2UgeD0iMTEyMC42MTkxNDEiIHhsaW5rOmhyZWY9IiNEZWphVnVTYW5zLTYzIi8+JiN4YTsgICAgICA8dXNlIHg9IjExNzUuNTk5NjA5IiB4bGluazpocmVmPSIjRGVqYVZ1U2Fucy02OCIvPiYjeGE7ICAgICA8L2c+JiN4YTsgICAgPC9nPiYjeGE7ICAgPC9nPiYjeGE7ICA8L2c+JiN4YTsgPC9nPiYjeGE7IDxkZWZzPiYjeGE7ICA8Y2xpcFBhdGggaWQ9InAzMTVkMmZjYzNjIj4mI3hhOyAgIDxyZWN0IGhlaWdodD0iMzc0LjkyIiB3aWR0aD0iNTQ5LjE2IiB5PSI3LjIiIHg9IjY0Ljg1Njg3NSIvPiYjeGE7ICA8L2NsaXBQYXRoPiYjeGE7IDwvZGVmcz4mI3hhOzwvc3ZnPg==;" vertex="1" parent="1">
          <mxGeometry x="530" y="600" width="621" height="429" as="geometry" />
        </mxCell>
        <mxCell id="8TiJv9mUatl6CJzkFgJi-4" value="" style="shape=image;verticalLabelPosition=bottom;labelBackgroundColor=default;verticalAlign=top;aspect=fixed;imageAspect=0;editableCssRules=.*;image=data:image/svg+xml,PHN2ZyB4bWxucz0iaHR0cDovL3d3dy53My5vcmcvMjAwMC9zdmciIHhtbG5zOnhsaW5rPSJodHRwOi8vd3d3LnczLm9yZy8xOTk5L3hsaW5rIiB2ZXJzaW9uPSIxLjEiIHZpZXdCb3g9IjAgMCA2MjEuMjE2ODU3OTEwMTU2MiA0MzQuNjczMjc4ODA4NTkzNzUiIGhlaWdodD0iNDM0LjY3MzI3ODgwODU5Mzc1IiB3aWR0aD0iNjIxLjIxNjg1NzkxMDE1NjIiPiYjeGE7IDxtZXRhZGF0YT4mI3hhOyAgJiN4YTsgICAmI3hhOyAgICAmI3hhOyAgICAyMDI1LTA5LTEyVDA1OjUyOjE5Ljg3NDUyMyYjeGE7ICAgIGltYWdlL3N2Zyt4bWwmI3hhOyAgICAmI3hhOyAgICAgJiN4YTsgICAgICBNYXRwbG90bGliIHYzLjkuMiwgaHR0cHM6Ly9tYXRwbG90bGliLm9yZy8mI3hhOyAgICAgJiN4YTsgICAgJiN4YTsgICAmI3hhOyAgJiN4YTsgPC9tZXRhZGF0YT4mI3hhOyA8ZGVmcz4mI3hhOyAgPHN0eWxlIHR5cGU9InRleHQvY3NzIj4qe3N0cm9rZS1saW5lam9pbjogcm91bmQ7IHN0cm9rZS1saW5lY2FwOiBidXR0fTwvc3R5bGU+JiN4YTsgPC9kZWZzPiYjeGE7IDxnIGlkPSJmaWd1cmVfMSI+JiN4YTsgIDxnIGlkPSJwYXRjaF8xIj4mI3hhOyAgIDxwYXRoIHN0eWxlPSJmaWxsOiAjZmZmZmZmIiBkPSJNIDAgNDM0LjY3MzI4MSAmIzEwO0wgNjIxLjIxNjg3NSA0MzQuNjczMjgxICYjMTA7TCA2MjEuMjE2ODc1IC0wICYjMTA7TCAwIC0wICYjMTA7eiIvPiYjeGE7ICA8L2c+JiN4YTsgIDxnIGlkPSJheGVzXzEiPiYjeGE7ICAgPGcgaWQ9InBhdGNoXzIiPiYjeGE7ICAgIDxwYXRoIHN0eWxlPSJmaWxsOiAjZmZmZmZmIiBkPSJNIDY0Ljg1Njg3NSAzODcuNDM4OTA2ICYjMTA7TCA2MTQuMDE2ODc1IDM4Ny40Mzg5MDYgJiMxMDtMIDYxNC4wMTY4NzUgMTIuNTE4OTA2ICYjMTA7TCA2NC44NTY4NzUgMTIuNTE4OTA2ICYjMTA7eiIvPiYjeGE7ICAgPC9nPiYjeGE7ICAgPGcgaWQ9IlBvbHlDb2xsZWN0aW9uXzEiPiYjeGE7ICAgIDxkZWZzPiYjeGE7ICAgICA8cGF0aCBkPSJNIDExNC43ODA1MTEgLTI3Ny45NTg4OTQgJiMxMDtMIDExNC43ODA1MTEgLTE3Ny42NjcyODUgJiMxMDtMIDEzOS43NDIzMyAtMjgxLjg1NjM3NiAmIzEwO0wgMTg5LjY2NTk2NiAtMjg1LjEzOTc2MiAmIzEwO0wgMjM5LjU4OTYwMiAtMzI3LjM4NzA3MSAmIzEwO0wgMjg5LjUxMzIzOSAtMzQ0LjA5MzE4OSAmIzEwO0wgMzM5LjQzNjg3NSAtMzU5LjA2NDUzMiAmIzEwO0wgMzg5LjM2MDUxMSAtMzcxLjM2ODc3OSAmIzEwO0wgNDM5LjI4NDE0OCAtMzcxLjgwNzg3NyAmIzEwO0wgNDg5LjIwNzc4NCAtMzc2LjYzNDQ1ICYjMTA7TCA1MzkuMTMxNDIgLTM3Mi45NTk3ODIgJiMxMDtMIDU4OS4wNTUwNTcgLTM3Ny45NzYwMjQgJiMxMDtMIDU4OS4wNTUwNTcgLTM5NC43Mjg3MDYgJiMxMDtMIDU4OS4wNTUwNTcgLTM5NC43Mjg3MDYgJiMxMDtMIDUzOS4xMzE0MiAtMzkzLjQyMTQ2MSAmIzEwO0wgNDg5LjIwNzc4NCAtMzk1LjA3MTY5OSAmIzEwO0wgNDM5LjI4NDE0OCAtMzkzLjYxMjg3MyAmIzEwO0wgMzg5LjM2MDUxMSAtMzkwLjk4NzU1MSAmIzEwO0wgMzM5LjQzNjg3NSAtMzc2Ljc1MzA3MSAmIzEwO0wgMjg5LjUxMzIzOSAtMzc1LjQ0NDI1NiAmIzEwO0wgMjM5LjU4OTYwMiAtMzU0LjEzNjgwNCAmIzEwO0wgMTg5LjY2NTk2NiAtMzY0LjMyNDk1OSAmIzEwO0wgMTM5Ljc0MjMzIC0zNjMuNjA1MTY5ICYjMTA7TCAxMTQuNzgwNTExIC0yNzcuOTU4ODk0ICYjMTA7eiIgaWQ9Im03NTVkY2IyZDViIi8+JiN4YTsgICAgPC9kZWZzPiYjeGE7ICAgIDxnIGNsaXAtcGF0aD0idXJsKCNwZWQzM2IzMGM2NSkiPiYjeGE7ICAgICA8dXNlIHN0eWxlPSJmaWxsOiAjMWY3N2I0OyBmaWxsLW9wYWNpdHk6IDAuMTUiIHk9IjQzNC42NzMyODEiIHg9IjAiIHhsaW5rOmhyZWY9IiNtNzU1ZGNiMmQ1YiIvPiYjeGE7ICAgIDwvZz4mI3hhOyAgIDwvZz4mI3hhOyAgIDxnIGlkPSJQb2x5Q29sbGVjdGlvbl8yIj4mI3hhOyAgICA8ZGVmcz4mI3hhOyAgICAgPHBhdGggZD0iTSAxMTQuNzgwNTExIC0yNTQuNTkzMTU5ICYjMTA7TCAxMTQuNzgwNTExIC0xNzUuNDM4MzQgJiMxMDtMIDEzOS43NDIzMyAtMjc2LjY5ODQ3MSAmIzEwO0wgMTg5LjY2NTk2NiAtMzIzLjE5NTU4NyAmIzEwO0wgMjM5LjU4OTYwMiAtMzQyLjQwNzIxNCAmIzEwO0wgMjg5LjUxMzIzOSAtMzU0LjQzNDQwNSAmIzEwO0wgMzM5LjQzNjg3NSAtMzU0LjkxMjk2NiAmIzEwO0wgMzg5LjM2MDUxMSAtMzYzLjE1MjA2ICYjMTA7TCA0MzkuMjg0MTQ4IC0zNzEuNTI2MjgxICYjMTA7TCA0ODkuMjA3Nzg0IC0zNjYuMjI0NjkxICYjMTA7TCA1MzkuMTMxNDIgLTM1OS4wODc5MDMgJiMxMDtMIDU4OS4wNTUwNTcgLTM3MC42MDI5ODkgJiMxMDtMIDU4OS4wNTUwNTcgLTM5NS41Njk5MTYgJiMxMDtMIDU4OS4wNTUwNTcgLTM5NS41Njk5MTYgJiMxMDtMIDUzOS4xMzE0MiAtMzk2LjQ5OTAxOCAmIzEwO0wgNDg5LjIwNzc4NCAtMzk3LjAzMDU4OCAmIzEwO0wgNDM5LjI4NDE0OCAtMzkzLjA1NDY3MiAmIzEwO0wgMzg5LjM2MDUxMSAtMzg1LjA1MTE2OSAmIzEwO0wgMzM5LjQzNjg3NSAtMzc3Ljc0MjE5MiAmIzEwO0wgMjg5LjUxMzIzOSAtMzc2LjIzODE2OSAmIzEwO0wgMjM5LjU4OTYwMiAtMzc0LjEyNTMyMSAmIzEwO0wgMTg5LjY2NTk2NiAtMzczLjI4MjIxNCAmIzEwO0wgMTM5Ljc0MjMzIC0zNzMuMTQyNzM1ICYjMTA7TCAxMTQuNzgwNTExIC0yNTQuNTkzMTU5ICYjMTA7eiIgaWQ9Im0xNDczYWUwZmIwIi8+JiN4YTsgICAgPC9kZWZzPiYjeGE7ICAgIDxnIGNsaXAtcGF0aD0idXJsKCNwZWQzM2IzMGM2NSkiPiYjeGE7ICAgICA8dXNlIHN0eWxlPSJmaWxsOiAjZmY3ZjBlOyBmaWxsLW9wYWNpdHk6IDAuMTUiIHk9IjQzNC42NzMyODEiIHg9IjAiIHhsaW5rOmhyZWY9IiNtMTQ3M2FlMGZiMCIvPiYjeGE7ICAgIDwvZz4mI3hhOyAgIDwvZz4mI3hhOyAgIDxnIGlkPSJQb2x5Q29sbGVjdGlvbl8zIj4mI3hhOyAgICA8ZGVmcz4mI3hhOyAgICAgPHBhdGggZD0iTSAxMTQuNzgwNTExIC0xNjMuNTA1MjM2ICYjMTA7TCAxMTQuNzgwNTExIC0xMzguNzI2MjczICYjMTA7TCAxMzkuNzQyMzMgLTEzNS4wMTY4NjQgJiMxMDtMIDE4OS42NjU5NjYgLTE3My40MzUxOTggJiMxMDtMIDIzOS41ODk2MDIgLTI1Ny45OTA1MDEgJiMxMDtMIDI4OS41MTMyMzkgLTI5NC4wNDExODIgJiMxMDtMIDMzOS40MzY4NzUgLTI3Ny44NTgzNDcgJiMxMDtMIDM4OS4zNjA1MTEgLTMzMi4xMjk2NDMgJiMxMDtMIDQzOS4yODQxNDggLTI5Ni4yNTYyNiAmIzEwO0wgNDg5LjIwNzc4NCAtMzI0LjYxODEwNCAmIzEwO0wgNTM5LjEzMTQyIC0zMDMuNzQ3NTI0ICYjMTA7TCA1ODkuMDU1MDU3IC0zMjEuNTQxMDc3ICYjMTA7TCA1ODkuMDU1MDU3IC0zNjcuNzE3MTY5ICYjMTA7TCA1ODkuMDU1MDU3IC0zNjcuNzE3MTY5ICYjMTA7TCA1MzkuMTMxNDIgLTM2NS45MjQxODcgJiMxMDtMIDQ4OS4yMDc3ODQgLTM1My41OTUyMDcgJiMxMDtMIDQzOS4yODQxNDggLTM0OS44MDgwNDkgJiMxMDtMIDM4OS4zNjA1MTEgLTM0OS40OTI5OTMgJiMxMDtMIDMzOS40MzY4NzUgLTMyOC45OTg3OTUgJiMxMDtMIDI4OS41MTMyMzkgLTMyNS43MjAxNzYgJiMxMDtMIDIzOS41ODk2MDIgLTMwNC42ODc0MzIgJiMxMDtMIDE4OS42NjU5NjYgLTI2Ny41ODAxNjkgJiMxMDtMIDEzOS43NDIzMyAtMjUwLjMwODAzNSAmIzEwO0wgMTE0Ljc4MDUxMSAtMTYzLjUwNTIzNiAmIzEwO3oiIGlkPSJtNjBkY2ZlYzI2NCIvPiYjeGE7ICAgIDwvZGVmcz4mI3hhOyAgICA8ZyBjbGlwLXBhdGg9InVybCgjcGVkMzNiMzBjNjUpIj4mI3hhOyAgICAgPHVzZSBzdHlsZT0iZmlsbDogIzJjYTAyYzsgZmlsbC1vcGFjaXR5OiAwLjE1IiB5PSI0MzQuNjczMjgxIiB4PSIwIiB4bGluazpocmVmPSIjbTYwZGNmZWMyNjQiLz4mI3hhOyAgICA8L2c+JiN4YTsgICA8L2c+JiN4YTsgICA8ZyBpZD0iUG9seUNvbGxlY3Rpb25fNCI+JiN4YTsgICAgPGRlZnM+JiN4YTsgICAgIDxwYXRoIGQ9Ik0gMTE0Ljc4MDUxMSAtMTgxLjgzMzMxNCAmIzEwO0wgMTE0Ljc4MDUxMSAtMTQ4LjEwMzYgJiMxMDtMIDEzOS43NDIzMyAtMTQ2LjI2MDMxNiAmIzEwO0wgMTg5LjY2NTk2NiAtMTgyLjgwMjcgJiMxMDtMIDIzOS41ODk2MDIgLTI2MS42MjcwNCAmIzEwO0wgMjg5LjUxMzIzOSAtMjkwLjkwNTA1MiAmIzEwO0wgMzM5LjQzNjg3NSAtMjgyLjgxMzkxICYjMTA7TCAzODkuMzYwNTExIC0zMjguMDc5NjU1ICYjMTA7TCA0MzkuMjg0MTQ4IC0zMDEuOTQ2NzkgJiMxMDtMIDQ4OS4yMDc3ODQgLTMyMi4wMDA0OTEgJiMxMDtMIDUzOS4xMzE0MiAtMzQxLjE5MjI1MiAmIzEwO0wgNTg5LjA1NTA1NyAtMzAxLjk0MDA3OSAmIzEwO0wgNTg5LjA1NTA1NyAtMzc4LjgyNzQ0MiAmIzEwO0wgNTg5LjA1NTA1NyAtMzc4LjgyNzQ0MiAmIzEwO0wgNTM5LjEzMTQyIC0zNjEuODAwOTA1ICYjMTA7TCA0ODkuMjA3Nzg0IC0zNTUuNjg1ODk0ICYjMTA7TCA0MzkuMjg0MTQ4IC0zNTMuMjM2OTkzICYjMTA7TCAzODkuMzYwNTExIC0zNTguNzI2MDczICYjMTA7TCAzMzkuNDM2ODc1IC0zNDMuMzQ1MzEyICYjMTA7TCAyODkuNTEzMjM5IC0zNDEuMjc2ODU5ICYjMTA7TCAyMzkuNTg5NjAyIC0zMDMuODMwNDA4ICYjMTA7TCAxODkuNjY1OTY2IC0yNzYuMDIzMDI3ICYjMTA7TCAxMzkuNzQyMzMgLTIzOS44MjY4MzYgJiMxMDtMIDExNC43ODA1MTEgLTE4MS44MzMzMTQgJiMxMDt6IiBpZD0ibWI2YjE5NzkzNmEiLz4mI3hhOyAgICA8L2RlZnM+JiN4YTsgICAgPGcgY2xpcC1wYXRoPSJ1cmwoI3BlZDMzYjMwYzY1KSI+JiN4YTsgICAgIDx1c2Ugc3R5bGU9ImZpbGw6ICNkNjI3Mjg7IGZpbGwtb3BhY2l0eTogMC4xNSIgeT0iNDM0LjY3MzI4MSIgeD0iMCIgeGxpbms6aHJlZj0iI21iNmIxOTc5MzZhIi8+JiN4YTsgICAgPC9nPiYjeGE7ICAgPC9nPiYjeGE7ICAgPGcgaWQ9Im1hdHBsb3RsaWIuYXhpc18xIj4mI3hhOyAgICA8ZyBpZD0ieHRpY2tfMSI+JiN4YTsgICAgIDxnIGlkPSJsaW5lMmRfMSI+JiN4YTsgICAgICA8cGF0aCBzdHlsZT0iZmlsbDogbm9uZTsgc3Ryb2tlLWRhc2hhcnJheTogMC44LDEuMzI7IHN0cm9rZS1kYXNob2Zmc2V0OiAwOyBzdHJva2U6ICNiMGIwYjA7IHN0cm9rZS13aWR0aDogMC44IiBjbGlwLXBhdGg9InVybCgjcGVkMzNiMzBjNjUpIiBkPSJNIDg5LjgxODY5MyAzODcuNDM4OTA2ICYjMTA7TCA4OS44MTg2OTMgMTIuNTE4OTA2Ii8+JiN4YTsgICAgIDwvZz4mI3hhOyAgICAgPGcgaWQ9ImxpbmUyZF8yIj4mI3hhOyAgICAgIDxkZWZzPiYjeGE7ICAgICAgIDxwYXRoIHN0eWxlPSJzdHJva2U6ICMwMDAwMDA7IHN0cm9rZS13aWR0aDogMC44IiBkPSJNIDAgMCAmIzEwO0wgMCAzLjUiIGlkPSJtYTMxMGI4N2NhYiIvPiYjeGE7ICAgICAgPC9kZWZzPiYjeGE7ICAgICAgPGc+JiN4YTsgICAgICAgPHVzZSBzdHlsZT0ic3Ryb2tlOiAjMDAwMDAwOyBzdHJva2Utd2lkdGg6IDAuOCIgeT0iMzg3LjQzODkwNiIgeD0iODkuODE4NjkzIiB4bGluazpocmVmPSIjbWEzMTBiODdjYWIiLz4mI3hhOyAgICAgIDwvZz4mI3hhOyAgICAgPC9nPiYjeGE7ICAgICA8ZyBpZD0idGV4dF8xIj4mI3hhOyAgICAgICYjeGE7ICAgICAgPGcgdHJhbnNmb3JtPSJ0cmFuc2xhdGUoODUuMzY0OTQzIDQwNS4wNzY3MTkpIHNjYWxlKDAuMTQgLTAuMTQpIj4mI3hhOyAgICAgICA8ZGVmcz4mI3hhOyAgICAgICAgPHBhdGggdHJhbnNmb3JtPSJzY2FsZSgwLjAxNTYyNSkiIGQ9Ik0gMjAzNCA0MjUwICYjMTA7USAxNTQ3IDQyNTAgMTMwMSAzNzcwICYjMTA7USAxMDU2IDMyOTEgMTA1NiAyMzI4ICYjMTA7USAxMDU2IDEzNjkgMTMwMSA4ODkgJiMxMDtRIDE1NDcgNDA5IDIwMzQgNDA5ICYjMTA7USAyNTI1IDQwOSAyNzcwIDg4OSAmIzEwO1EgMzAxNiAxMzY5IDMwMTYgMjMyOCAmIzEwO1EgMzAxNiAzMjkxIDI3NzAgMzc3MCAmIzEwO1EgMjUyNSA0MjUwIDIwMzQgNDI1MCAmIzEwO3omIzEwO00gMjAzNCA0NzUwICYjMTA7USAyODE5IDQ3NTAgMzIzMyA0MTI5ICYjMTA7USAzNjQ3IDM1MDkgMzY0NyAyMzI4ICYjMTA7USAzNjQ3IDExNTAgMzIzMyA1MjkgJiMxMDtRIDI4MTkgLTkxIDIwMzQgLTkxICYjMTA7USAxMjUwIC05MSA4MzYgNTI5ICYjMTA7USA0MjIgMTE1MCA0MjIgMjMyOCAmIzEwO1EgNDIyIDM1MDkgODM2IDQxMjkgJiMxMDtRIDEyNTAgNDc1MCAyMDM0IDQ3NTAgJiMxMDt6IiBpZD0iRGVqYVZ1U2Fucy0zMCIvPiYjeGE7ICAgICAgIDwvZGVmcz4mI3hhOyAgICAgICA8dXNlIHhsaW5rOmhyZWY9IiNEZWphVnVTYW5zLTMwIi8+JiN4YTsgICAgICA8L2c+JiN4YTsgICAgIDwvZz4mI3hhOyAgICA8L2c+JiN4YTsgICAgPGcgaWQ9Inh0aWNrXzIiPiYjeGE7ICAgICA8ZyBpZD0ibGluZTJkXzMiPiYjeGE7ICAgICAgPHBhdGggc3R5bGU9ImZpbGw6IG5vbmU7IHN0cm9rZS1kYXNoYXJyYXk6IDAuOCwxLjMyOyBzdHJva2UtZGFzaG9mZnNldDogMDsgc3Ryb2tlOiAjYjBiMGIwOyBzdHJva2Utd2lkdGg6IDAuOCIgY2xpcC1wYXRoPSJ1cmwoI3BlZDMzYjMwYzY1KSIgZD0iTSAxMzkuNzQyMzMgMzg3LjQzODkwNiAmIzEwO0wgMTM5Ljc0MjMzIDEyLjUxODkwNiIvPiYjeGE7ICAgICA8L2c+JiN4YTsgICAgIDxnIGlkPSJsaW5lMmRfNCI+JiN4YTsgICAgICA8Zz4mI3hhOyAgICAgICA8dXNlIHN0eWxlPSJzdHJva2U6ICMwMDAwMDA7IHN0cm9rZS13aWR0aDogMC44IiB5PSIzODcuNDM4OTA2IiB4PSIxMzkuNzQyMzMiIHhsaW5rOmhyZWY9IiNtYTMxMGI4N2NhYiIvPiYjeGE7ICAgICAgPC9nPiYjeGE7ICAgICA8L2c+JiN4YTsgICAgIDxnIGlkPSJ0ZXh0XzIiPiYjeGE7ICAgICAgJiN4YTsgICAgICA8ZyB0cmFuc2Zvcm09InRyYW5zbGF0ZSgxMzUuMjg4NTggNDA1LjA3NjcxOSkgc2NhbGUoMC4xNCAtMC4xNCkiPiYjeGE7ICAgICAgIDxkZWZzPiYjeGE7ICAgICAgICA8cGF0aCB0cmFuc2Zvcm09InNjYWxlKDAuMDE1NjI1KSIgZD0iTSAxMjI4IDUzMSAmIzEwO0wgMzQzMSA1MzEgJiMxMDtMIDM0MzEgMCAmIzEwO0wgNDY5IDAgJiMxMDtMIDQ2OSA1MzEgJiMxMDtRIDgyOCA5MDMgMTQ0OCAxNTI5ICYjMTA7USAyMDY5IDIxNTYgMjIyOCAyMzM4ICYjMTA7USAyNTMxIDI2NzggMjY1MSAyOTE0ICYjMTA7USAyNzcyIDMxNTAgMjc3MiAzMzc4ICYjMTA7USAyNzcyIDM3NTAgMjUxMSAzOTg0ICYjMTA7USAyMjUwIDQyMTkgMTgzMSA0MjE5ICYjMTA7USAxNTM0IDQyMTkgMTIwNCA0MTE2ICYjMTA7USA4NzUgNDAxMyA1MDAgMzgwMyAmIzEwO0wgNTAwIDQ0NDEgJiMxMDtRIDg4MSA0NTk0IDEyMTIgNDY3MiAmIzEwO1EgMTU0NCA0NzUwIDE4MTkgNDc1MCAmIzEwO1EgMjU0NCA0NzUwIDI5NzUgNDM4NyAmIzEwO1EgMzQwNiA0MDI1IDM0MDYgMzQxOSAmIzEwO1EgMzQwNiAzMTMxIDMyOTggMjg3MyAmIzEwO1EgMzE5MSAyNjE2IDI5MDYgMjI2NiAmIzEwO1EgMjgyOCAyMTc1IDI0MDkgMTc0MiAmIzEwO1EgMTk5MSAxMzA5IDEyMjggNTMxICYjMTA7eiIgaWQ9IkRlamFWdVNhbnMtMzIiLz4mI3hhOyAgICAgICA8L2RlZnM+JiN4YTsgICAgICAgPHVzZSB4bGluazpocmVmPSIjRGVqYVZ1U2Fucy0zMiIvPiYjeGE7ICAgICAgPC9nPiYjeGE7ICAgICA8L2c+JiN4YTsgICAgPC9nPiYjeGE7ICAgIDxnIGlkPSJ4dGlja18zIj4mI3hhOyAgICAgPGcgaWQ9ImxpbmUyZF81Ij4mI3hhOyAgICAgIDxwYXRoIHN0eWxlPSJmaWxsOiBub25lOyBzdHJva2UtZGFzaGFycmF5OiAwLjgsMS4zMjsgc3Ryb2tlLWRhc2hvZmZzZXQ6IDA7IHN0cm9rZTogI2IwYjBiMDsgc3Ryb2tlLXdpZHRoOiAwLjgiIGNsaXAtcGF0aD0idXJsKCNwZWQzM2IzMGM2NSkiIGQ9Ik0gMTg5LjY2NTk2NiAzODcuNDM4OTA2ICYjMTA7TCAxODkuNjY1OTY2IDEyLjUxODkwNiIvPiYjeGE7ICAgICA8L2c+JiN4YTsgICAgIDxnIGlkPSJsaW5lMmRfNiI+JiN4YTsgICAgICA8Zz4mI3hhOyAgICAgICA8dXNlIHN0eWxlPSJzdHJva2U6ICMwMDAwMDA7IHN0cm9rZS13aWR0aDogMC44IiB5PSIzODcuNDM4OTA2IiB4PSIxODkuNjY1OTY2IiB4bGluazpocmVmPSIjbWEzMTBiODdjYWIiLz4mI3hhOyAgICAgIDwvZz4mI3hhOyAgICAgPC9nPiYjeGE7ICAgICA8ZyBpZD0idGV4dF8zIj4mI3hhOyAgICAgICYjeGE7ICAgICAgPGcgdHJhbnNmb3JtPSJ0cmFuc2xhdGUoMTg1LjIxMjIxNiA0MDUuMDc2NzE5KSBzY2FsZSgwLjE0IC0wLjE0KSI+JiN4YTsgICAgICAgPGRlZnM+JiN4YTsgICAgICAgIDxwYXRoIHRyYW5zZm9ybT0ic2NhbGUoMC4wMTU2MjUpIiBkPSJNIDI0MTkgNDExNiAmIzEwO0wgODI1IDE2MjUgJiMxMDtMIDI0MTkgMTYyNSAmIzEwO0wgMjQxOSA0MTE2ICYjMTA7eiYjMTA7TSAyMjUzIDQ2NjYgJiMxMDtMIDMwNDcgNDY2NiAmIzEwO0wgMzA0NyAxNjI1ICYjMTA7TCAzNzEzIDE2MjUgJiMxMDtMIDM3MTMgMTEwMCAmIzEwO0wgMzA0NyAxMTAwICYjMTA7TCAzMDQ3IDAgJiMxMDtMIDI0MTkgMCAmIzEwO0wgMjQxOSAxMTAwICYjMTA7TCAzMTMgMTEwMCAmIzEwO0wgMzEzIDE3MDkgJiMxMDtMIDIyNTMgNDY2NiAmIzEwO3oiIGlkPSJEZWphVnVTYW5zLTM0Ii8+JiN4YTsgICAgICAgPC9kZWZzPiYjeGE7ICAgICAgIDx1c2UgeGxpbms6aHJlZj0iI0RlamFWdVNhbnMtMzQiLz4mI3hhOyAgICAgIDwvZz4mI3hhOyAgICAgPC9nPiYjeGE7ICAgIDwvZz4mI3hhOyAgICA8ZyBpZD0ieHRpY2tfNCI+JiN4YTsgICAgIDxnIGlkPSJsaW5lMmRfNyI+JiN4YTsgICAgICA8cGF0aCBzdHlsZT0iZmlsbDogbm9uZTsgc3Ryb2tlLWRhc2hhcnJheTogMC44LDEuMzI7IHN0cm9rZS1kYXNob2Zmc2V0OiAwOyBzdHJva2U6ICNiMGIwYjA7IHN0cm9rZS13aWR0aDogMC44IiBjbGlwLXBhdGg9InVybCgjcGVkMzNiMzBjNjUpIiBkPSJNIDIzOS41ODk2MDIgMzg3LjQzODkwNiAmIzEwO0wgMjM5LjU4OTYwMiAxMi41MTg5MDYiLz4mI3hhOyAgICAgPC9nPiYjeGE7ICAgICA8ZyBpZD0ibGluZTJkXzgiPiYjeGE7ICAgICAgPGc+JiN4YTsgICAgICAgPHVzZSBzdHlsZT0ic3Ryb2tlOiAjMDAwMDAwOyBzdHJva2Utd2lkdGg6IDAuOCIgeT0iMzg3LjQzODkwNiIgeD0iMjM5LjU4OTYwMiIgeGxpbms6aHJlZj0iI21hMzEwYjg3Y2FiIi8+JiN4YTsgICAgICA8L2c+JiN4YTsgICAgIDwvZz4mI3hhOyAgICAgPGcgaWQ9InRleHRfNCI+JiN4YTsgICAgICAmI3hhOyAgICAgIDxnIHRyYW5zZm9ybT0idHJhbnNsYXRlKDIzNS4xMzU4NTIgNDA1LjA3NjcxOSkgc2NhbGUoMC4xNCAtMC4xNCkiPiYjeGE7ICAgICAgIDxkZWZzPiYjeGE7ICAgICAgICA8cGF0aCB0cmFuc2Zvcm09InNjYWxlKDAuMDE1NjI1KSIgZD0iTSAyMTEzIDI1ODQgJiMxMDtRIDE2ODggMjU4NCAxNDM5IDIyOTMgJiMxMDtRIDExOTEgMjAwMyAxMTkxIDE0OTcgJiMxMDtRIDExOTEgOTk0IDE0MzkgNzAxICYjMTA7USAxNjg4IDQwOSAyMTEzIDQwOSAmIzEwO1EgMjUzOCA0MDkgMjc4NiA3MDEgJiMxMDtRIDMwMzQgOTk0IDMwMzQgMTQ5NyAmIzEwO1EgMzAzNCAyMDAzIDI3ODYgMjI5MyAmIzEwO1EgMjUzOCAyNTg0IDIxMTMgMjU4NCAmIzEwO3omIzEwO00gMzM2NiA0NTYzICYjMTA7TCAzMzY2IDM5ODggJiMxMDtRIDMxMjggNDEwMCAyODg2IDQxNTkgJiMxMDtRIDI2NDQgNDIxOSAyNDA2IDQyMTkgJiMxMDtRIDE3ODEgNDIxOSAxNDUxIDM3OTcgJiMxMDtRIDExMjIgMzM3NSAxMDc1IDI1MjIgJiMxMDtRIDEyNTkgMjc5NCAxNTM3IDI5MzkgJiMxMDtRIDE4MTYgMzA4NCAyMTUwIDMwODQgJiMxMDtRIDI4NTMgMzA4NCAzMjYxIDI2NTcgJiMxMDtRIDM2NjkgMjIzMSAzNjY5IDE0OTcgJiMxMDtRIDM2NjkgNzc4IDMyNDQgMzQzICYjMTA7USAyODE5IC05MSAyMTEzIC05MSAmIzEwO1EgMTMwMyAtOTEgODc1IDUyOSAmIzEwO1EgNDQ3IDExNTAgNDQ3IDIzMjggJiMxMDtRIDQ0NyAzNDM0IDk3MiA0MDkyICYjMTA7USAxNDk3IDQ3NTAgMjM4MSA0NzUwICYjMTA7USAyNjE5IDQ3NTAgMjg2MSA0NzAzICYjMTA7USAzMTAzIDQ2NTYgMzM2NiA0NTYzICYjMTA7eiIgaWQ9IkRlamFWdVNhbnMtMzYiLz4mI3hhOyAgICAgICA8L2RlZnM+JiN4YTsgICAgICAgPHVzZSB4bGluazpocmVmPSIjRGVqYVZ1U2Fucy0zNiIvPiYjeGE7ICAgICAgPC9nPiYjeGE7ICAgICA8L2c+JiN4YTsgICAgPC9nPiYjeGE7ICAgIDxnIGlkPSJ4dGlja181Ij4mI3hhOyAgICAgPGcgaWQ9ImxpbmUyZF85Ij4mI3hhOyAgICAgIDxwYXRoIHN0eWxlPSJmaWxsOiBub25lOyBzdHJva2UtZGFzaGFycmF5OiAwLjgsMS4zMjsgc3Ryb2tlLWRhc2hvZmZzZXQ6IDA7IHN0cm9rZTogI2IwYjBiMDsgc3Ryb2tlLXdpZHRoOiAwLjgiIGNsaXAtcGF0aD0idXJsKCNwZWQzM2IzMGM2NSkiIGQ9Ik0gMjg5LjUxMzIzOSAzODcuNDM4OTA2ICYjMTA7TCAyODkuNTEzMjM5IDEyLjUxODkwNiIvPiYjeGE7ICAgICA8L2c+JiN4YTsgICAgIDxnIGlkPSJsaW5lMmRfMTAiPiYjeGE7ICAgICAgPGc+JiN4YTsgICAgICAgPHVzZSBzdHlsZT0ic3Ryb2tlOiAjMDAwMDAwOyBzdHJva2Utd2lkdGg6IDAuOCIgeT0iMzg3LjQzODkwNiIgeD0iMjg5LjUxMzIzOSIgeGxpbms6aHJlZj0iI21hMzEwYjg3Y2FiIi8+JiN4YTsgICAgICA8L2c+JiN4YTsgICAgIDwvZz4mI3hhOyAgICAgPGcgaWQ9InRleHRfNSI+JiN4YTsgICAgICAmI3hhOyAgICAgIDxnIHRyYW5zZm9ybT0idHJhbnNsYXRlKDI4NS4wNTk0ODkgNDA1LjA3NjcxOSkgc2NhbGUoMC4xNCAtMC4xNCkiPiYjeGE7ICAgICAgIDxkZWZzPiYjeGE7ICAgICAgICA8cGF0aCB0cmFuc2Zvcm09InNjYWxlKDAuMDE1NjI1KSIgZD0iTSAyMDM0IDIyMTYgJiMxMDtRIDE1ODQgMjIxNiAxMzI2IDE5NzUgJiMxMDtRIDEwNjkgMTczNCAxMDY5IDEzMTMgJiMxMDtRIDEwNjkgODkxIDEzMjYgNjUwICYjMTA7USAxNTg0IDQwOSAyMDM0IDQwOSAmIzEwO1EgMjQ4NCA0MDkgMjc0MyA2NTEgJiMxMDtRIDMwMDMgODk0IDMwMDMgMTMxMyAmIzEwO1EgMzAwMyAxNzM0IDI3NDUgMTk3NSAmIzEwO1EgMjQ4OCAyMjE2IDIwMzQgMjIxNiAmIzEwO3omIzEwO00gMTQwMyAyNDg0ICYjMTA7USA5OTcgMjU4NCA3NzAgMjg2MiAmIzEwO1EgNTQ0IDMxNDEgNTQ0IDM1NDEgJiMxMDtRIDU0NCA0MTAwIDk0MiA0NDI1ICYjMTA7USAxMzQxIDQ3NTAgMjAzNCA0NzUwICYjMTA7USAyNzMxIDQ3NTAgMzEyOCA0NDI1ICYjMTA7USAzNTI1IDQxMDAgMzUyNSAzNTQxICYjMTA7USAzNTI1IDMxNDEgMzI5OCAyODYyICYjMTA7USAzMDcyIDI1ODQgMjY2OSAyNDg0ICYjMTA7USAzMTI1IDIzNzggMzM3OSAyMDY4ICYjMTA7USAzNjM0IDE3NTkgMzYzNCAxMzEzICYjMTA7USAzNjM0IDYzNCAzMjIwIDI3MSAmIzEwO1EgMjgwNiAtOTEgMjAzNCAtOTEgJiMxMDtRIDEyNjMgLTkxIDg0OCAyNzEgJiMxMDtRIDQzNCA2MzQgNDM0IDEzMTMgJiMxMDtRIDQzNCAxNzU5IDY5MCAyMDY4ICYjMTA7USA5NDcgMjM3OCAxNDAzIDI0ODQgJiMxMDt6JiMxMDtNIDExNzIgMzQ4MSAmIzEwO1EgMTE3MiAzMTE5IDEzOTggMjkxNiAmIzEwO1EgMTYyNSAyNzEzIDIwMzQgMjcxMyAmIzEwO1EgMjQ0MSAyNzEzIDI2NzAgMjkxNiAmIzEwO1EgMjkwMCAzMTE5IDI5MDAgMzQ4MSAmIzEwO1EgMjkwMCAzODQ0IDI2NzAgNDA0NyAmIzEwO1EgMjQ0MSA0MjUwIDIwMzQgNDI1MCAmIzEwO1EgMTYyNSA0MjUwIDEzOTggNDA0NyAmIzEwO1EgMTE3MiAzODQ0IDExNzIgMzQ4MSAmIzEwO3oiIGlkPSJEZWphVnVTYW5zLTM4Ii8+JiN4YTsgICAgICAgPC9kZWZzPiYjeGE7ICAgICAgIDx1c2UgeGxpbms6aHJlZj0iI0RlamFWdVNhbnMtMzgiLz4mI3hhOyAgICAgIDwvZz4mI3hhOyAgICAgPC9nPiYjeGE7ICAgIDwvZz4mI3hhOyAgICA8ZyBpZD0ieHRpY2tfNiI+JiN4YTsgICAgIDxnIGlkPSJsaW5lMmRfMTEiPiYjeGE7ICAgICAgPHBhdGggc3R5bGU9ImZpbGw6IG5vbmU7IHN0cm9rZS1kYXNoYXJyYXk6IDAuOCwxLjMyOyBzdHJva2UtZGFzaG9mZnNldDogMDsgc3Ryb2tlOiAjYjBiMGIwOyBzdHJva2Utd2lkdGg6IDAuOCIgY2xpcC1wYXRoPSJ1cmwoI3BlZDMzYjMwYzY1KSIgZD0iTSAzMzkuNDM2ODc1IDM4Ny40Mzg5MDYgJiMxMDtMIDMzOS40MzY4NzUgMTIuNTE4OTA2Ii8+JiN4YTsgICAgIDwvZz4mI3hhOyAgICAgPGcgaWQ9ImxpbmUyZF8xMiI+JiN4YTsgICAgICA8Zz4mI3hhOyAgICAgICA8dXNlIHN0eWxlPSJzdHJva2U6ICMwMDAwMDA7IHN0cm9rZS13aWR0aDogMC44IiB5PSIzODcuNDM4OTA2IiB4PSIzMzkuNDM2ODc1IiB4bGluazpocmVmPSIjbWEzMTBiODdjYWIiLz4mI3hhOyAgICAgIDwvZz4mI3hhOyAgICAgPC9nPiYjeGE7ICAgICA8ZyBpZD0idGV4dF82Ij4mI3hhOyAgICAgICYjeGE7ICAgICAgPGcgdHJhbnNmb3JtPSJ0cmFuc2xhdGUoMzMwLjUyOTM3NSA0MDUuMDc2NzE5KSBzY2FsZSgwLjE0IC0wLjE0KSI+JiN4YTsgICAgICAgPGRlZnM+JiN4YTsgICAgICAgIDxwYXRoIHRyYW5zZm9ybT0ic2NhbGUoMC4wMTU2MjUpIiBkPSJNIDc5NCA1MzEgJiMxMDtMIDE4MjUgNTMxICYjMTA7TCAxODI1IDQwOTEgJiMxMDtMIDcwMyAzODY2ICYjMTA7TCA3MDMgNDQ0MSAmIzEwO0wgMTgxOSA0NjY2ICYjMTA7TCAyNDUwIDQ2NjYgJiMxMDtMIDI0NTAgNTMxICYjMTA7TCAzNDgxIDUzMSAmIzEwO0wgMzQ4MSAwICYjMTA7TCA3OTQgMCAmIzEwO0wgNzk0IDUzMSAmIzEwO3oiIGlkPSJEZWphVnVTYW5zLTMxIi8+JiN4YTsgICAgICAgPC9kZWZzPiYjeGE7ICAgICAgIDx1c2UgeGxpbms6aHJlZj0iI0RlamFWdVNhbnMtMzEiLz4mI3hhOyAgICAgICA8dXNlIHg9IjYzLjYyMzA0NyIgeGxpbms6aHJlZj0iI0RlamFWdVNhbnMtMzAiLz4mI3hhOyAgICAgIDwvZz4mI3hhOyAgICAgPC9nPiYjeGE7ICAgIDwvZz4mI3hhOyAgICA8ZyBpZD0ieHRpY2tfNyI+JiN4YTsgICAgIDxnIGlkPSJsaW5lMmRfMTMiPiYjeGE7ICAgICAgPHBhdGggc3R5bGU9ImZpbGw6IG5vbmU7IHN0cm9rZS1kYXNoYXJyYXk6IDAuOCwxLjMyOyBzdHJva2UtZGFzaG9mZnNldDogMDsgc3Ryb2tlOiAjYjBiMGIwOyBzdHJva2Utd2lkdGg6IDAuOCIgY2xpcC1wYXRoPSJ1cmwoI3BlZDMzYjMwYzY1KSIgZD0iTSAzODkuMzYwNTExIDM4Ny40Mzg5MDYgJiMxMDtMIDM4OS4zNjA1MTEgMTIuNTE4OTA2Ii8+JiN4YTsgICAgIDwvZz4mI3hhOyAgICAgPGcgaWQ9ImxpbmUyZF8xNCI+JiN4YTsgICAgICA8Zz4mI3hhOyAgICAgICA8dXNlIHN0eWxlPSJzdHJva2U6ICMwMDAwMDA7IHN0cm9rZS13aWR0aDogMC44IiB5PSIzODcuNDM4OTA2IiB4PSIzODkuMzYwNTExIiB4bGluazpocmVmPSIjbWEzMTBiODdjYWIiLz4mI3hhOyAgICAgIDwvZz4mI3hhOyAgICAgPC9nPiYjeGE7ICAgICA8ZyBpZD0idGV4dF83Ij4mI3hhOyAgICAgICYjeGE7ICAgICAgPGcgdHJhbnNmb3JtPSJ0cmFuc2xhdGUoMzgwLjQ1MzAxMSA0MDUuMDc2NzE5KSBzY2FsZSgwLjE0IC0wLjE0KSI+JiN4YTsgICAgICAgPHVzZSB4bGluazpocmVmPSIjRGVqYVZ1U2Fucy0zMSIvPiYjeGE7ICAgICAgIDx1c2UgeD0iNjMuNjIzMDQ3IiB4bGluazpocmVmPSIjRGVqYVZ1U2Fucy0zMiIvPiYjeGE7ICAgICAgPC9nPiYjeGE7ICAgICA8L2c+JiN4YTsgICAgPC9nPiYjeGE7ICAgIDxnIGlkPSJ4dGlja184Ij4mI3hhOyAgICAgPGcgaWQ9ImxpbmUyZF8xNSI+JiN4YTsgICAgICA8cGF0aCBzdHlsZT0iZmlsbDogbm9uZTsgc3Ryb2tlLWRhc2hhcnJheTogMC44LDEuMzI7IHN0cm9rZS1kYXNob2Zmc2V0OiAwOyBzdHJva2U6ICNiMGIwYjA7IHN0cm9rZS13aWR0aDogMC44IiBjbGlwLXBhdGg9InVybCgjcGVkMzNiMzBjNjUpIiBkPSJNIDQzOS4yODQxNDggMzg3LjQzODkwNiAmIzEwO0wgNDM5LjI4NDE0OCAxMi41MTg5MDYiLz4mI3hhOyAgICAgPC9nPiYjeGE7ICAgICA8ZyBpZD0ibGluZTJkXzE2Ij4mI3hhOyAgICAgIDxnPiYjeGE7ICAgICAgIDx1c2Ugc3R5bGU9InN0cm9rZTogIzAwMDAwMDsgc3Ryb2tlLXdpZHRoOiAwLjgiIHk9IjM4Ny40Mzg5MDYiIHg9IjQzOS4yODQxNDgiIHhsaW5rOmhyZWY9IiNtYTMxMGI4N2NhYiIvPiYjeGE7ICAgICAgPC9nPiYjeGE7ICAgICA8L2c+JiN4YTsgICAgIDxnIGlkPSJ0ZXh0XzgiPiYjeGE7ICAgICAgJiN4YTsgICAgICA8ZyB0cmFuc2Zvcm09InRyYW5zbGF0ZSg0MzAuMzc2NjQ4IDQwNS4wNzY3MTkpIHNjYWxlKDAuMTQgLTAuMTQpIj4mI3hhOyAgICAgICA8dXNlIHhsaW5rOmhyZWY9IiNEZWphVnVTYW5zLTMxIi8+JiN4YTsgICAgICAgPHVzZSB4PSI2My42MjMwNDciIHhsaW5rOmhyZWY9IiNEZWphVnVTYW5zLTM0Ii8+JiN4YTsgICAgICA8L2c+JiN4YTsgICAgIDwvZz4mI3hhOyAgICA8L2c+JiN4YTsgICAgPGcgaWQ9Inh0aWNrXzkiPiYjeGE7ICAgICA8ZyBpZD0ibGluZTJkXzE3Ij4mI3hhOyAgICAgIDxwYXRoIHN0eWxlPSJmaWxsOiBub25lOyBzdHJva2UtZGFzaGFycmF5OiAwLjgsMS4zMjsgc3Ryb2tlLWRhc2hvZmZzZXQ6IDA7IHN0cm9rZTogI2IwYjBiMDsgc3Ryb2tlLXdpZHRoOiAwLjgiIGNsaXAtcGF0aD0idXJsKCNwZWQzM2IzMGM2NSkiIGQ9Ik0gNDg5LjIwNzc4NCAzODcuNDM4OTA2ICYjMTA7TCA0ODkuMjA3Nzg0IDEyLjUxODkwNiIvPiYjeGE7ICAgICA8L2c+JiN4YTsgICAgIDxnIGlkPSJsaW5lMmRfMTgiPiYjeGE7ICAgICAgPGc+JiN4YTsgICAgICAgPHVzZSBzdHlsZT0ic3Ryb2tlOiAjMDAwMDAwOyBzdHJva2Utd2lkdGg6IDAuOCIgeT0iMzg3LjQzODkwNiIgeD0iNDg5LjIwNzc4NCIgeGxpbms6aHJlZj0iI21hMzEwYjg3Y2FiIi8+JiN4YTsgICAgICA8L2c+JiN4YTsgICAgIDwvZz4mI3hhOyAgICAgPGcgaWQ9InRleHRfOSI+JiN4YTsgICAgICAmI3hhOyAgICAgIDxnIHRyYW5zZm9ybT0idHJhbnNsYXRlKDQ4MC4zMDAyODQgNDA1LjA3NjcxOSkgc2NhbGUoMC4xNCAtMC4xNCkiPiYjeGE7ICAgICAgIDx1c2UgeGxpbms6aHJlZj0iI0RlamFWdVNhbnMtMzEiLz4mI3hhOyAgICAgICA8dXNlIHg9IjYzLjYyMzA0NyIgeGxpbms6aHJlZj0iI0RlamFWdVNhbnMtMzYiLz4mI3hhOyAgICAgIDwvZz4mI3hhOyAgICAgPC9nPiYjeGE7ICAgIDwvZz4mI3hhOyAgICA8ZyBpZD0ieHRpY2tfMTAiPiYjeGE7ICAgICA8ZyBpZD0ibGluZTJkXzE5Ij4mI3hhOyAgICAgIDxwYXRoIHN0eWxlPSJmaWxsOiBub25lOyBzdHJva2UtZGFzaGFycmF5OiAwLjgsMS4zMjsgc3Ryb2tlLWRhc2hvZmZzZXQ6IDA7IHN0cm9rZTogI2IwYjBiMDsgc3Ryb2tlLXdpZHRoOiAwLjgiIGNsaXAtcGF0aD0idXJsKCNwZWQzM2IzMGM2NSkiIGQ9Ik0gNTM5LjEzMTQyIDM4Ny40Mzg5MDYgJiMxMDtMIDUzOS4xMzE0MiAxMi41MTg5MDYiLz4mI3hhOyAgICAgPC9nPiYjeGE7ICAgICA8ZyBpZD0ibGluZTJkXzIwIj4mI3hhOyAgICAgIDxnPiYjeGE7ICAgICAgIDx1c2Ugc3R5bGU9InN0cm9rZTogIzAwMDAwMDsgc3Ryb2tlLXdpZHRoOiAwLjgiIHk9IjM4Ny40Mzg5MDYiIHg9IjUzOS4xMzE0MiIgeGxpbms6aHJlZj0iI21hMzEwYjg3Y2FiIi8+JiN4YTsgICAgICA8L2c+JiN4YTsgICAgIDwvZz4mI3hhOyAgICAgPGcgaWQ9InRleHRfMTAiPiYjeGE7ICAgICAgJiN4YTsgICAgICA8ZyB0cmFuc2Zvcm09InRyYW5zbGF0ZSg1MzAuMjIzOTIgNDA1LjA3NjcxOSkgc2NhbGUoMC4xNCAtMC4xNCkiPiYjeGE7ICAgICAgIDx1c2UgeGxpbms6aHJlZj0iI0RlamFWdVNhbnMtMzEiLz4mI3hhOyAgICAgICA8dXNlIHg9IjYzLjYyMzA0NyIgeGxpbms6aHJlZj0iI0RlamFWdVNhbnMtMzgiLz4mI3hhOyAgICAgIDwvZz4mI3hhOyAgICAgPC9nPiYjeGE7ICAgIDwvZz4mI3hhOyAgICA8ZyBpZD0ieHRpY2tfMTEiPiYjeGE7ICAgICA8ZyBpZD0ibGluZTJkXzIxIj4mI3hhOyAgICAgIDxwYXRoIHN0eWxlPSJmaWxsOiBub25lOyBzdHJva2UtZGFzaGFycmF5OiAwLjgsMS4zMjsgc3Ryb2tlLWRhc2hvZmZzZXQ6IDA7IHN0cm9rZTogI2IwYjBiMDsgc3Ryb2tlLXdpZHRoOiAwLjgiIGNsaXAtcGF0aD0idXJsKCNwZWQzM2IzMGM2NSkiIGQ9Ik0gNTg5LjA1NTA1NyAzODcuNDM4OTA2ICYjMTA7TCA1ODkuMDU1MDU3IDEyLjUxODkwNiIvPiYjeGE7ICAgICA8L2c+JiN4YTsgICAgIDxnIGlkPSJsaW5lMmRfMjIiPiYjeGE7ICAgICAgPGc+JiN4YTsgICAgICAgPHVzZSBzdHlsZT0ic3Ryb2tlOiAjMDAwMDAwOyBzdHJva2Utd2lkdGg6IDAuOCIgeT0iMzg3LjQzODkwNiIgeD0iNTg5LjA1NTA1NyIgeGxpbms6aHJlZj0iI21hMzEwYjg3Y2FiIi8+JiN4YTsgICAgICA8L2c+JiN4YTsgICAgIDwvZz4mI3hhOyAgICAgPGcgaWQ9InRleHRfMTEiPiYjeGE7ICAgICAgJiN4YTsgICAgICA8ZyB0cmFuc2Zvcm09InRyYW5zbGF0ZSg1ODAuMTQ3NTU3IDQwNS4wNzY3MTkpIHNjYWxlKDAuMTQgLTAuMTQpIj4mI3hhOyAgICAgICA8dXNlIHhsaW5rOmhyZWY9IiNEZWphVnVTYW5zLTMyIi8+JiN4YTsgICAgICAgPHVzZSB4PSI2My42MjMwNDciIHhsaW5rOmhyZWY9IiNEZWphVnVTYW5zLTMwIi8+JiN4YTsgICAgICA8L2c+JiN4YTsgICAgIDwvZz4mI3hhOyAgICA8L2c+JiN4YTsgICAgPGcgaWQ9InRleHRfMTIiPiYjeGE7ICAgICAmI3hhOyAgICAgPGcgdHJhbnNmb3JtPSJ0cmFuc2xhdGUoMjQ5LjQ0MDYyNSA0MjQuMTQ1NzgxKSBzY2FsZSgwLjE2IC0wLjE2KSI+JiN4YTsgICAgICA8ZGVmcz4mI3hhOyAgICAgICA8cGF0aCB0cmFuc2Zvcm09InNjYWxlKDAuMDE1NjI1KSIgZD0iTSAzMjcyIDI4MTYgJiMxMDtMIDIzNjMgMjgxNiAmIzEwO0wgMjEwMCAxNzcyICYjMTA7TCAzMDE2IDE3NzIgJiMxMDtMIDMyNzIgMjgxNiAmIzEwO3omIzEwO00gMjgwMyA0NTk0ICYjMTA7TCAyNDc4IDMyOTcgJiMxMDtMIDMzOTEgMzI5NyAmIzEwO0wgMzcxOSA0NTk0ICYjMTA7TCA0MjE5IDQ1OTQgJiMxMDtMIDM4OTcgMzI5NyAmIzEwO0wgNDg3MiAzMjk3ICYjMTA7TCA0ODcyIDI4MTYgJiMxMDtMIDM3NzUgMjgxNiAmIzEwO0wgMzUxOSAxNzcyICYjMTA7TCA0NTEzIDE3NzIgJiMxMDtMIDQ1MTMgMTI5NCAmIzEwO0wgMzM5NyAxMjk0ICYjMTA7TCAzMDcyIDAgJiMxMDtMIDI1NzIgMCAmIzEwO0wgMjg5NCAxMjk0ICYjMTA7TCAxOTc4IDEyOTQgJiMxMDtMIDE2NTYgMCAmIzEwO0wgMTE1MyAwICYjMTA7TCAxNDc4IDEyOTQgJiMxMDtMIDQ5NCAxMjk0ICYjMTA7TCA0OTQgMTc3MiAmIzEwO0wgMTU5NCAxNzcyICYjMTA7TCAxODU2IDI4MTYgJiMxMDtMIDg1MCAyODE2ICYjMTA7TCA4NTAgMzI5NyAmIzEwO0wgMTk3OCAzMjk3ICYjMTA7TCAyMjk3IDQ1OTQgJiMxMDtMIDI4MDMgNDU5NCAmIzEwO3oiIGlkPSJEZWphVnVTYW5zLTIzIi8+JiN4YTsgICAgICAgPHBhdGggdHJhbnNmb3JtPSJzY2FsZSgwLjAxNTYyNSkiIGlkPSJEZWphVnVTYW5zLTIwIi8+JiN4YTsgICAgICAgPHBhdGggdHJhbnNmb3JtPSJzY2FsZSgwLjAxNTYyNSkiIGQ9Ik0gMTk1OSAzMDk3ICYjMTA7USAxNDk3IDMwOTcgMTIyOCAyNzM2ICYjMTA7USA5NTkgMjM3NSA5NTkgMTc0NyAmIzEwO1EgOTU5IDExMTkgMTIyNiA3NTggJiMxMDtRIDE0OTQgMzk3IDE5NTkgMzk3ICYjMTA7USAyNDE5IDM5NyAyNjg3IDc1OSAmIzEwO1EgMjk1NiAxMTIyIDI5NTYgMTc0NyAmIzEwO1EgMjk1NiAyMzY5IDI2ODcgMjczMyAmIzEwO1EgMjQxOSAzMDk3IDE5NTkgMzA5NyAmIzEwO3omIzEwO00gMTk1OSAzNTg0ICYjMTA7USAyNzA5IDM1ODQgMzEzNyAzMDk2ICYjMTA7USAzNTY2IDI2MDkgMzU2NiAxNzQ3ICYjMTA7USAzNTY2IDg4OCAzMTM3IDM5OCAmIzEwO1EgMjcwOSAtOTEgMTk1OSAtOTEgJiMxMDtRIDEyMDYgLTkxIDc3OSAzOTggJiMxMDtRIDM1MyA4ODggMzUzIDE3NDcgJiMxMDtRIDM1MyAyNjA5IDc3OSAzMDk2ICYjMTA7USAxMjA2IDM1ODQgMTk1OSAzNTg0ICYjMTA7eiIgaWQ9IkRlamFWdVNhbnMtNmYiLz4mI3hhOyAgICAgICA8cGF0aCB0cmFuc2Zvcm09InNjYWxlKDAuMDE1NjI1KSIgZD0iTSAyMzc1IDQ4NjMgJiMxMDtMIDIzNzUgNDM4NCAmIzEwO0wgMTgyNSA0Mzg0ICYjMTA7USAxNTE2IDQzODQgMTM5NSA0MjU5ICYjMTA7USAxMjc1IDQxMzQgMTI3NSAzODA5ICYjMTA7TCAxMjc1IDM1MDAgJiMxMDtMIDIyMjIgMzUwMCAmIzEwO0wgMjIyMiAzMDUzICYjMTA7TCAxMjc1IDMwNTMgJiMxMDtMIDEyNzUgMCAmIzEwO0wgNjk3IDAgJiMxMDtMIDY5NyAzMDUzICYjMTA7TCAxNDcgMzA1MyAmIzEwO0wgMTQ3IDM1MDAgJiMxMDtMIDY5NyAzNTAwICYjMTA7TCA2OTcgMzc0NCAmIzEwO1EgNjk3IDQzMjggOTY5IDQ1OTUgJiMxMDtRIDEyNDEgNDg2MyAxODMxIDQ4NjMgJiMxMDtMIDIzNzUgNDg2MyAmIzEwO3oiIGlkPSJEZWphVnVTYW5zLTY2Ii8+JiN4YTsgICAgICAgPHBhdGggdHJhbnNmb3JtPSJzY2FsZSgwLjAxNTYyNSkiIGQ9Ik0gNjAzIDQ4NjMgJiMxMDtMIDExNzggNDg2MyAmIzEwO0wgMTE3OCAwICYjMTA7TCA2MDMgMCAmIzEwO0wgNjAzIDQ4NjMgJiMxMDt6IiBpZD0iRGVqYVZ1U2Fucy02YyIvPiYjeGE7ICAgICAgIDxwYXRoIHRyYW5zZm9ybT0ic2NhbGUoMC4wMTU2MjUpIiBkPSJNIDIxOTQgMTc1OSAmIzEwO1EgMTQ5NyAxNzU5IDEyMjggMTYwMCAmIzEwO1EgOTU5IDE0NDEgOTU5IDEwNTYgJiMxMDtRIDk1OSA3NTAgMTE2MSA1NzAgJiMxMDtRIDEzNjMgMzkxIDE3MDkgMzkxICYjMTA7USAyMTg4IDM5MSAyNDc3IDczMCAmIzEwO1EgMjc2NiAxMDY5IDI3NjYgMTYzMSAmIzEwO0wgMjc2NiAxNzU5ICYjMTA7TCAyMTk0IDE3NTkgJiMxMDt6JiMxMDtNIDMzNDEgMTk5NyAmIzEwO0wgMzM0MSAwICYjMTA7TCAyNzY2IDAgJiMxMDtMIDI3NjYgNTMxICYjMTA7USAyNTY5IDIxMyAyMjc1IDYxICYjMTA7USAxOTgxIC05MSAxNTU2IC05MSAmIzEwO1EgMTAxOSAtOTEgNzAxIDIxMSAmIzEwO1EgMzg0IDUxMyAzODQgMTAxOSAmIzEwO1EgMzg0IDE2MDkgNzc5IDE5MDkgJiMxMDtRIDExNzUgMjIwOSAxOTU5IDIyMDkgJiMxMDtMIDI3NjYgMjIwOSAmIzEwO0wgMjc2NiAyMjY2ICYjMTA7USAyNzY2IDI2NjMgMjUwNSAyODgwICYjMTA7USAyMjQ0IDMwOTcgMTc3MiAzMDk3ICYjMTA7USAxNDcyIDMwOTcgMTE4NyAzMDI1ICYjMTA7USA5MDMgMjk1MyA2NDEgMjgwOSAmIzEwO0wgNjQxIDMzNDEgJiMxMDtRIDk1NiAzNDYzIDEyNTMgMzUyMyAmIzEwO1EgMTU1MCAzNTg0IDE4MzEgMzU4NCAmIzEwO1EgMjU5MSAzNTg0IDI5NjYgMzE5MCAmIzEwO1EgMzM0MSAyNzk3IDMzNDEgMTk5NyAmIzEwO3oiIGlkPSJEZWphVnVTYW5zLTYxIi8+JiN4YTsgICAgICAgPHBhdGggdHJhbnNmb3JtPSJzY2FsZSgwLjAxNTYyNSkiIGQ9Ik0gMzExNiAxNzQ3ICYjMTA7USAzMTE2IDIzODEgMjg1NSAyNzQyICYjMTA7USAyNTk0IDMxMDMgMjEzOCAzMTAzICYjMTA7USAxNjgxIDMxMDMgMTQyMCAyNzQyICYjMTA7USAxMTU5IDIzODEgMTE1OSAxNzQ3ICYjMTA7USAxMTU5IDExMTMgMTQyMCA3NTIgJiMxMDtRIDE2ODEgMzkxIDIxMzggMzkxICYjMTA7USAyNTk0IDM5MSAyODU1IDc1MiAmIzEwO1EgMzExNiAxMTEzIDMxMTYgMTc0NyAmIzEwO3omIzEwO00gMTE1OSAyOTY5ICYjMTA7USAxMzQxIDMyODEgMTYxNyAzNDMyICYjMTA7USAxODk0IDM1ODQgMjI3OCAzNTg0ICYjMTA7USAyOTE2IDM1ODQgMzMxNCAzMDc4ICYjMTA7USAzNzEzIDI1NzIgMzcxMyAxNzQ3ICYjMTA7USAzNzEzIDkyMiAzMzE0IDQxNSAmIzEwO1EgMjkxNiAtOTEgMjI3OCAtOTEgJiMxMDtRIDE4OTQgLTkxIDE2MTcgNjEgJiMxMDtRIDEzNDEgMjEzIDExNTkgNTI1ICYjMTA7TCAxMTU5IDAgJiMxMDtMIDU4MSAwICYjMTA7TCA1ODEgNDg2MyAmIzEwO0wgMTE1OSA0ODYzICYjMTA7TCAxMTU5IDI5NjkgJiMxMDt6IiBpZD0iRGVqYVZ1U2Fucy02MiIvPiYjeGE7ICAgICAgIDxwYXRoIHRyYW5zZm9ybT0ic2NhbGUoMC4wMTU2MjUpIiBkPSJNIDM1OTcgMTg5NCAmIzEwO0wgMzU5NyAxNjEzICYjMTA7TCA5NTMgMTYxMyAmIzEwO1EgOTkxIDEwMTkgMTMxMSA3MDggJiMxMDtRIDE2MzEgMzk3IDIyMDMgMzk3ICYjMTA7USAyNTM0IDM5NyAyODQ1IDQ3OCAmIzEwO1EgMzE1NiA1NTkgMzQ2MyA3MjIgJiMxMDtMIDM0NjMgMTc4ICYjMTA7USAzMTUzIDQ3IDI4MjggLTIyICYjMTA7USAyNTAzIC05MSAyMTY5IC05MSAmIzEwO1EgMTMzMSAtOTEgODQyIDM5NiAmIzEwO1EgMzUzIDg4NCAzNTMgMTcxNiAmIzEwO1EgMzUzIDI1NzUgODE3IDMwNzkgJiMxMDtRIDEyODEgMzU4NCAyMDY5IDM1ODQgJiMxMDtRIDI3NzUgMzU4NCAzMTg2IDMxMjkgJiMxMDtRIDM1OTcgMjY3NSAzNTk3IDE4OTQgJiMxMDt6JiMxMDtNIDMwMjIgMjA2MyAmIzEwO1EgMzAxNiAyNTM0IDI3NTggMjgxNSAmIzEwO1EgMjUwMCAzMDk3IDIwNzUgMzA5NyAmIzEwO1EgMTU5NCAzMDk3IDEzMDUgMjgyNSAmIzEwO1EgMTAxNiAyNTUzIDk3MiAyMDU5ICYjMTA7TCAzMDIyIDIwNjMgJiMxMDt6IiBpZD0iRGVqYVZ1U2Fucy02NSIvPiYjeGE7ICAgICAgIDxwYXRoIHRyYW5zZm9ybT0ic2NhbGUoMC4wMTU2MjUpIiBkPSJNIDI5MDYgMjk2OSAmIzEwO0wgMjkwNiA0ODYzICYjMTA7TCAzNDgxIDQ4NjMgJiMxMDtMIDM0ODEgMCAmIzEwO0wgMjkwNiAwICYjMTA7TCAyOTA2IDUyNSAmIzEwO1EgMjcyNSAyMTMgMjQ0OCA2MSAmIzEwO1EgMjE3MiAtOTEgMTc4NCAtOTEgJiMxMDtRIDExNTAgLTkxIDc1MSA0MTUgJiMxMDtRIDM1MyA5MjIgMzUzIDE3NDcgJiMxMDtRIDM1MyAyNTcyIDc1MSAzMDc4ICYjMTA7USAxMTUwIDM1ODQgMTc4NCAzNTg0ICYjMTA7USAyMTcyIDM1ODQgMjQ0OCAzNDMyICYjMTA7USAyNzI1IDMyODEgMjkwNiAyOTY5ICYjMTA7eiYjMTA7TSA5NDcgMTc0NyAmIzEwO1EgOTQ3IDExMTMgMTIwOCA3NTIgJiMxMDtRIDE0NjkgMzkxIDE5MjUgMzkxICYjMTA7USAyMzgxIDM5MSAyNjQzIDc1MiAmIzEwO1EgMjkwNiAxMTEzIDI5MDYgMTc0NyAmIzEwO1EgMjkwNiAyMzgxIDI2NDMgMjc0MiAmIzEwO1EgMjM4MSAzMTAzIDE5MjUgMzEwMyAmIzEwO1EgMTQ2OSAzMTAzIDEyMDggMjc0MiAmIzEwO1EgOTQ3IDIzODEgOTQ3IDE3NDcgJiMxMDt6IiBpZD0iRGVqYVZ1U2Fucy02NCIvPiYjeGE7ICAgICAgIDxwYXRoIHRyYW5zZm9ybT0ic2NhbGUoMC4wMTU2MjUpIiBkPSJNIDM1MTMgMzUwMCAmIzEwO0wgMjI0NyAxNzk3ICYjMTA7TCAzNTc4IDAgJiMxMDtMIDI5MDAgMCAmIzEwO0wgMTg4MSAxMzc1ICYjMTA7TCA4NjMgMCAmIzEwO0wgMTg0IDAgJiMxMDtMIDE1NDQgMTgzMSAmIzEwO0wgMzAwIDM1MDAgJiMxMDtMIDk3OCAzNTAwICYjMTA7TCAxOTA2IDIyNTMgJiMxMDtMIDI4MzQgMzUwMCAmIzEwO0wgMzUxMyAzNTAwICYjMTA7eiIgaWQ9IkRlamFWdVNhbnMtNzgiLz4mI3hhOyAgICAgICA8cGF0aCB0cmFuc2Zvcm09InNjYWxlKDAuMDE1NjI1KSIgZD0iTSAzMzI4IDI4MjggJiMxMDtRIDM1NDQgMzIxNiAzODQ0IDM0MDAgJiMxMDtRIDQxNDQgMzU4NCA0NTUwIDM1ODQgJiMxMDtRIDUwOTcgMzU4NCA1Mzk0IDMyMDEgJiMxMDtRIDU2OTEgMjgxOSA1NjkxIDIxMTMgJiMxMDtMIDU2OTEgMCAmIzEwO0wgNTExMyAwICYjMTA7TCA1MTEzIDIwOTQgJiMxMDtRIDUxMTMgMjU5NyA0OTM0IDI4NDAgJiMxMDtRIDQ3NTYgMzA4NCA0MzkxIDMwODQgJiMxMDtRIDM5NDQgMzA4NCAzNjg0IDI3ODcgJiMxMDtRIDM0MjUgMjQ5MSAzNDI1IDE5NzggJiMxMDtMIDM0MjUgMCAmIzEwO0wgMjg0NyAwICYjMTA7TCAyODQ3IDIwOTQgJiMxMDtRIDI4NDcgMjYwMCAyNjY5IDI4NDIgJiMxMDtRIDI0OTEgMzA4NCAyMTE5IDMwODQgJiMxMDtRIDE2NzggMzA4NCAxNDE4IDI3ODYgJiMxMDtRIDExNTkgMjQ4OCAxMTU5IDE5NzggJiMxMDtMIDExNTkgMCAmIzEwO0wgNTgxIDAgJiMxMDtMIDU4MSAzNTAwICYjMTA7TCAxMTU5IDM1MDAgJiMxMDtMIDExNTkgMjk1NiAmIzEwO1EgMTM1NiAzMjc4IDE2MzEgMzQzMSAmIzEwO1EgMTkwNiAzNTg0IDIyODQgMzU4NCAmIzEwO1EgMjY2NiAzNTg0IDI5MzMgMzM5MCAmIzEwO1EgMzIwMCAzMTk3IDMzMjggMjgyOCAmIzEwO3oiIGlkPSJEZWphVnVTYW5zLTZkIi8+JiN4YTsgICAgICAgPHBhdGggdHJhbnNmb3JtPSJzY2FsZSgwLjAxNTYyNSkiIGQ9Ik0gMTE1OSA1MjUgJiMxMDtMIDExNTkgLTEzMzEgJiMxMDtMIDU4MSAtMTMzMSAmIzEwO0wgNTgxIDM1MDAgJiMxMDtMIDExNTkgMzUwMCAmIzEwO0wgMTE1OSAyOTY5ICYjMTA7USAxMzQxIDMyODEgMTYxNyAzNDMyICYjMTA7USAxODk0IDM1ODQgMjI3OCAzNTg0ICYjMTA7USAyOTE2IDM1ODQgMzMxNCAzMDc4ICYjMTA7USAzNzEzIDI1NzIgMzcxMyAxNzQ3ICYjMTA7USAzNzEzIDkyMiAzMzE0IDQxNSAmIzEwO1EgMjkxNiAtOTEgMjI3OCAtOTEgJiMxMDtRIDE4OTQgLTkxIDE2MTcgNjEgJiMxMDtRIDEzNDEgMjEzIDExNTkgNTI1ICYjMTA7eiYjMTA7TSAzMTE2IDE3NDcgJiMxMDtRIDMxMTYgMjM4MSAyODU1IDI3NDIgJiMxMDtRIDI1OTQgMzEwMyAyMTM4IDMxMDMgJiMxMDtRIDE2ODEgMzEwMyAxNDIwIDI3NDIgJiMxMDtRIDExNTkgMjM4MSAxMTU5IDE3NDcgJiMxMDtRIDExNTkgMTExMyAxNDIwIDc1MiAmIzEwO1EgMTY4MSAzOTEgMjEzOCAzOTEgJiMxMDtRIDI1OTQgMzkxIDI4NTUgNzUyICYjMTA7USAzMTE2IDExMTMgMzExNiAxNzQ3ICYjMTA7eiIgaWQ9IkRlamFWdVNhbnMtNzAiLz4mI3hhOyAgICAgICA8cGF0aCB0cmFuc2Zvcm09InNjYWxlKDAuMDE1NjI1KSIgZD0iTSAyODM0IDMzOTcgJiMxMDtMIDI4MzQgMjg1MyAmIzEwO1EgMjU5MSAyOTc4IDIzMjggMzA0MCAmIzEwO1EgMjA2NiAzMTAzIDE3ODQgMzEwMyAmIzEwO1EgMTM1NiAzMTAzIDExNDIgMjk3MiAmIzEwO1EgOTI4IDI4NDEgOTI4IDI1NzggJiMxMDtRIDkyOCAyMzc4IDEwODEgMjI2NCAmIzEwO1EgMTIzNCAyMTUwIDE2OTcgMjA0NyAmIzEwO0wgMTg5NCAyMDAzICYjMTA7USAyNTA2IDE4NzIgMjc2NCAxNjMzICYjMTA7USAzMDIyIDEzOTQgMzAyMiA5NjYgJiMxMDtRIDMwMjIgNDc4IDI2MzYgMTkzICYjMTA7USAyMjUwIC05MSAxNTc1IC05MSAmIzEwO1EgMTI5NCAtOTEgOTg5IC0zNiAmIzEwO1EgNjg0IDE5IDM0NyAxMjggJiMxMDtMIDM0NyA3MjIgJiMxMDtRIDY2NiA1NTYgOTc1IDQ3MyAmIzEwO1EgMTI4NCAzOTEgMTU4OCAzOTEgJiMxMDtRIDE5OTQgMzkxIDIyMTIgNTMwICYjMTA7USAyNDMxIDY2OSAyNDMxIDkyMiAmIzEwO1EgMjQzMSAxMTU2IDIyNzMgMTI4MSAmIzEwO1EgMjExNiAxNDA2IDE1ODEgMTUyMiAmIzEwO0wgMTM4MSAxNTY5ICYjMTA7USA4NDcgMTY4MSA2MDkgMTkxNCAmIzEwO1EgMzcyIDIxNDcgMzcyIDI1NTMgJiMxMDtRIDM3MiAzMDQ3IDcyMiAzMzE1ICYjMTA7USAxMDcyIDM1ODQgMTcxNiAzNTg0ICYjMTA7USAyMDM0IDM1ODQgMjMxNSAzNTM3ICYjMTA7USAyNTk3IDM0OTEgMjgzNCAzMzk3ICYjMTA7eiIgaWQ9IkRlamFWdVNhbnMtNzMiLz4mI3hhOyAgICAgIDwvZGVmcz4mI3hhOyAgICAgIDx1c2UgeGxpbms6aHJlZj0iI0RlamFWdVNhbnMtMjMiLz4mI3hhOyAgICAgIDx1c2UgeD0iODMuNzg5MDYyIiB4bGluazpocmVmPSIjRGVqYVZ1U2Fucy0yMCIvPiYjeGE7ICAgICAgPHVzZSB4PSIxMTUuNTc2MTcyIiB4bGluazpocmVmPSIjRGVqYVZ1U2Fucy02ZiIvPiYjeGE7ICAgICAgPHVzZSB4PSIxNzYuNzU3ODEyIiB4bGluazpocmVmPSIjRGVqYVZ1U2Fucy02NiIvPiYjeGE7ICAgICAgPHVzZSB4PSIyMTEuOTYyODkxIiB4bGluazpocmVmPSIjRGVqYVZ1U2Fucy0yMCIvPiYjeGE7ICAgICAgPHVzZSB4PSIyNDMuNzUiIHhsaW5rOmhyZWY9IiNEZWphVnVTYW5zLTZjIi8+JiN4YTsgICAgICA8dXNlIHg9IjI3MS41MzMyMDMiIHhsaW5rOmhyZWY9IiNEZWphVnVTYW5zLTYxIi8+JiN4YTsgICAgICA8dXNlIHg9IjMzMi44MTI1IiB4bGluazpocmVmPSIjRGVqYVZ1U2Fucy02MiIvPiYjeGE7ICAgICAgPHVzZSB4PSIzOTYuMjg5MDYyIiB4bGluazpocmVmPSIjRGVqYVZ1U2Fucy02NSIvPiYjeGE7ICAgICAgPHVzZSB4PSI0NTcuODEyNSIgeGxpbms6aHJlZj0iI0RlamFWdVNhbnMtNmMiLz4mI3hhOyAgICAgIDx1c2UgeD0iNDg1LjU5NTcwMyIgeGxpbms6aHJlZj0iI0RlamFWdVNhbnMtNjUiLz4mI3hhOyAgICAgIDx1c2UgeD0iNTQ3LjExOTE0MSIgeGxpbms6aHJlZj0iI0RlamFWdVNhbnMtNjQiLz4mI3hhOyAgICAgIDx1c2UgeD0iNjEwLjU5NTcwMyIgeGxpbms6aHJlZj0iI0RlamFWdVNhbnMtMjAiLz4mI3hhOyAgICAgIDx1c2UgeD0iNjQyLjM4MjgxMiIgeGxpbms6aHJlZj0iI0RlamFWdVNhbnMtNjUiLz4mI3hhOyAgICAgIDx1c2UgeD0iNzAyLjE1NjI1IiB4bGluazpocmVmPSIjRGVqYVZ1U2Fucy03OCIvPiYjeGE7ICAgICAgPHVzZSB4PSI3NjEuMzM1OTM4IiB4bGluazpocmVmPSIjRGVqYVZ1U2Fucy02MSIvPiYjeGE7ICAgICAgPHVzZSB4PSI4MjIuNjE1MjM0IiB4bGluazpocmVmPSIjRGVqYVZ1U2Fucy02ZCIvPiYjeGE7ICAgICAgPHVzZSB4PSI5MjAuMDI3MzQ0IiB4bGluazpocmVmPSIjRGVqYVZ1U2Fucy03MCIvPiYjeGE7ICAgICAgPHVzZSB4PSI5ODMuNTAzOTA2IiB4bGluazpocmVmPSIjRGVqYVZ1U2Fucy02YyIvPiYjeGE7ICAgICAgPHVzZSB4PSIxMDExLjI4NzEwOSIgeGxpbms6aHJlZj0iI0RlamFWdVNhbnMtNjUiLz4mI3hhOyAgICAgIDx1c2UgeD0iMTA3Mi44MTA1NDciIHhsaW5rOmhyZWY9IiNEZWphVnVTYW5zLTczIi8+JiN4YTsgICAgIDwvZz4mI3hhOyAgICA8L2c+JiN4YTsgICA8L2c+JiN4YTsgICA8ZyBpZD0ibWF0cGxvdGxpYi5heGlzXzIiPiYjeGE7ICAgIDxnIGlkPSJ5dGlja18xIj4mI3hhOyAgICAgPGcgaWQ9ImxpbmUyZF8yMyI+JiN4YTsgICAgICA8cGF0aCBzdHlsZT0iZmlsbDogbm9uZTsgc3Ryb2tlLWRhc2hhcnJheTogMC44LDEuMzI7IHN0cm9rZS1kYXNob2Zmc2V0OiAwOyBzdHJva2U6ICNiMGIwYjA7IHN0cm9rZS13aWR0aDogMC44IiBjbGlwLXBhdGg9InVybCgjcGVkMzNiMzBjNjUpIiBkPSJNIDY0Ljg1Njg3NSAzODcuNDM4OTA2ICYjMTA7TCA2MTQuMDE2ODc1IDM4Ny40Mzg5MDYiLz4mI3hhOyAgICAgPC9nPiYjeGE7ICAgICA8ZyBpZD0ibGluZTJkXzI0Ij4mI3hhOyAgICAgIDxkZWZzPiYjeGE7ICAgICAgIDxwYXRoIHN0eWxlPSJzdHJva2U6ICMwMDAwMDA7IHN0cm9rZS13aWR0aDogMC44IiBkPSJNIDAgMCAmIzEwO0wgLTMuNSAwIiBpZD0ibTIwMWI4NWE2ZDciLz4mI3hhOyAgICAgIDwvZGVmcz4mI3hhOyAgICAgIDxnPiYjeGE7ICAgICAgIDx1c2Ugc3R5bGU9InN0cm9rZTogIzAwMDAwMDsgc3Ryb2tlLXdpZHRoOiAwLjgiIHk9IjM4Ny40Mzg5MDYiIHg9IjY0Ljg1Njg3NSIgeGxpbms6aHJlZj0iI20yMDFiODVhNmQ3Ii8+JiN4YTsgICAgICA8L2c+JiN4YTsgICAgIDwvZz4mI3hhOyAgICAgPGcgaWQ9InRleHRfMTMiPiYjeGE7ICAgICAgJiN4YTsgICAgICA8ZyB0cmFuc2Zvcm09InRyYW5zbGF0ZSgyNi42ODUgMzkyLjc1NzgxMikgc2NhbGUoMC4xNCAtMC4xNCkiPiYjeGE7ICAgICAgIDxkZWZzPiYjeGE7ICAgICAgICA8cGF0aCB0cmFuc2Zvcm09InNjYWxlKDAuMDE1NjI1KSIgZD0iTSA2ODQgNzk0ICYjMTA7TCAxMzQ0IDc5NCAmIzEwO0wgMTM0NCAwICYjMTA7TCA2ODQgMCAmIzEwO0wgNjg0IDc5NCAmIzEwO3oiIGlkPSJEZWphVnVTYW5zLTJlIi8+JiN4YTsgICAgICAgIDxwYXRoIHRyYW5zZm9ybT0ic2NhbGUoMC4wMTU2MjUpIiBkPSJNIDI1OTcgMjUxNiAmIzEwO1EgMzA1MCAyNDE5IDMzMDQgMjExMiAmIzEwO1EgMzU1OSAxODA2IDM1NTkgMTM1NiAmIzEwO1EgMzU1OSA2NjYgMzA4NCAyODcgJiMxMDtRIDI2MDkgLTkxIDE3MzQgLTkxICYjMTA7USAxNDQxIC05MSAxMTMwIC0zMyAmIzEwO1EgODE5IDI1IDQ4OCAxNDEgJiMxMDtMIDQ4OCA3NTAgJiMxMDtRIDc1MCA1OTcgMTA2MiA1MTkgJiMxMDtRIDEzNzUgNDQxIDE3MTYgNDQxICYjMTA7USAyMzA5IDQ0MSAyNjIwIDY3NSAmIzEwO1EgMjkzMSA5MDkgMjkzMSAxMzU2ICYjMTA7USAyOTMxIDE3NjkgMjY0MiAyMDAxICYjMTA7USAyMzUzIDIyMzQgMTgzOCAyMjM0ICYjMTA7TCAxMjk0IDIyMzQgJiMxMDtMIDEyOTQgMjc1MyAmIzEwO0wgMTg2MyAyNzUzICYjMTA7USAyMzI4IDI3NTMgMjU3NSAyOTM5ICYjMTA7USAyODIyIDMxMjUgMjgyMiAzNDc1ICYjMTA7USAyODIyIDM4MzQgMjU2NyA0MDI2ICYjMTA7USAyMzEzIDQyMTkgMTgzOCA0MjE5ICYjMTA7USAxNTc4IDQyMTkgMTI4MSA0MTYyICYjMTA7USA5ODQgNDEwNiA2MjggMzk4OCAmIzEwO0wgNjI4IDQ1NTAgJiMxMDtRIDk4OCA0NjUwIDEzMDIgNDcwMCAmIzEwO1EgMTYxNiA0NzUwIDE4OTQgNDc1MCAmIzEwO1EgMjYxMyA0NzUwIDMwMzEgNDQyMyAmIzEwO1EgMzQ1MCA0MDk3IDM0NTAgMzU0MSAmIzEwO1EgMzQ1MCAzMTUzIDMyMjggMjg4NiAmIzEwO1EgMzAwNiAyNjE5IDI1OTcgMjUxNiAmIzEwO3oiIGlkPSJEZWphVnVTYW5zLTMzIi8+JiN4YTsgICAgICAgPC9kZWZzPiYjeGE7ICAgICAgIDx1c2UgeGxpbms6aHJlZj0iI0RlamFWdVNhbnMtMzAiLz4mI3hhOyAgICAgICA8dXNlIHg9IjYzLjYyMzA0NyIgeGxpbms6aHJlZj0iI0RlamFWdVNhbnMtMmUiLz4mI3hhOyAgICAgICA8dXNlIHg9Ijk1LjQxMDE1NiIgeGxpbms6aHJlZj0iI0RlamFWdVNhbnMtMzMiLz4mI3hhOyAgICAgICA8dXNlIHg9IjE1OS4wMzMyMDMiIHhsaW5rOmhyZWY9IiNEZWphVnVTYW5zLTMwIi8+JiN4YTsgICAgICA8L2c+JiN4YTsgICAgIDwvZz4mI3hhOyAgICA8L2c+JiN4YTsgICAgPGcgaWQ9Inl0aWNrXzIiPiYjeGE7ICAgICA8ZyBpZD0ibGluZTJkXzI1Ij4mI3hhOyAgICAgIDxwYXRoIHN0eWxlPSJmaWxsOiBub25lOyBzdHJva2UtZGFzaGFycmF5OiAwLjgsMS4zMjsgc3Ryb2tlLWRhc2hvZmZzZXQ6IDA7IHN0cm9rZTogI2IwYjBiMDsgc3Ryb2tlLXdpZHRoOiAwLjgiIGNsaXAtcGF0aD0idXJsKCNwZWQzM2IzMGM2NSkiIGQ9Ik0gNjQuODU2ODc1IDMyNC45NTIyNCAmIzEwO0wgNjE0LjAxNjg3NSAzMjQuOTUyMjQiLz4mI3hhOyAgICAgPC9nPiYjeGE7ICAgICA8ZyBpZD0ibGluZTJkXzI2Ij4mI3hhOyAgICAgIDxnPiYjeGE7ICAgICAgIDx1c2Ugc3R5bGU9InN0cm9rZTogIzAwMDAwMDsgc3Ryb2tlLXdpZHRoOiAwLjgiIHk9IjMyNC45NTIyNCIgeD0iNjQuODU2ODc1IiB4bGluazpocmVmPSIjbTIwMWI4NWE2ZDciLz4mI3hhOyAgICAgIDwvZz4mI3hhOyAgICAgPC9nPiYjeGE7ICAgICA8ZyBpZD0idGV4dF8xNCI+JiN4YTsgICAgICAmI3hhOyAgICAgIDxnIHRyYW5zZm9ybT0idHJhbnNsYXRlKDI2LjY4NSAzMzAuMjcxMTQ2KSBzY2FsZSgwLjE0IC0wLjE0KSI+JiN4YTsgICAgICAgPHVzZSB4bGluazpocmVmPSIjRGVqYVZ1U2Fucy0zMCIvPiYjeGE7ICAgICAgIDx1c2UgeD0iNjMuNjIzMDQ3IiB4bGluazpocmVmPSIjRGVqYVZ1U2Fucy0yZSIvPiYjeGE7ICAgICAgIDx1c2UgeD0iOTUuNDEwMTU2IiB4bGluazpocmVmPSIjRGVqYVZ1U2Fucy0zNCIvPiYjeGE7ICAgICAgIDx1c2UgeD0iMTU5LjAzMzIwMyIgeGxpbms6aHJlZj0iI0RlamFWdVNhbnMtMzAiLz4mI3hhOyAgICAgIDwvZz4mI3hhOyAgICAgPC9nPiYjeGE7ICAgIDwvZz4mI3hhOyAgICA8ZyBpZD0ieXRpY2tfMyI+JiN4YTsgICAgIDxnIGlkPSJsaW5lMmRfMjciPiYjeGE7ICAgICAgPHBhdGggc3R5bGU9ImZpbGw6IG5vbmU7IHN0cm9rZS1kYXNoYXJyYXk6IDAuOCwxLjMyOyBzdHJva2UtZGFzaG9mZnNldDogMDsgc3Ryb2tlOiAjYjBiMGIwOyBzdHJva2Utd2lkdGg6IDAuOCIgY2xpcC1wYXRoPSJ1cmwoI3BlZDMzYjMwYzY1KSIgZD0iTSA2NC44NTY4NzUgMjYyLjQ2NTU3MyAmIzEwO0wgNjE0LjAxNjg3NSAyNjIuNDY1NTczIi8+JiN4YTsgICAgIDwvZz4mI3hhOyAgICAgPGcgaWQ9ImxpbmUyZF8yOCI+JiN4YTsgICAgICA8Zz4mI3hhOyAgICAgICA8dXNlIHN0eWxlPSJzdHJva2U6ICMwMDAwMDA7IHN0cm9rZS13aWR0aDogMC44IiB5PSIyNjIuNDY1NTczIiB4PSI2NC44NTY4NzUiIHhsaW5rOmhyZWY9IiNtMjAxYjg1YTZkNyIvPiYjeGE7ICAgICAgPC9nPiYjeGE7ICAgICA8L2c+JiN4YTsgICAgIDxnIGlkPSJ0ZXh0XzE1Ij4mI3hhOyAgICAgICYjeGE7ICAgICAgPGcgdHJhbnNmb3JtPSJ0cmFuc2xhdGUoMjYuNjg1IDI2Ny43ODQ0NzkpIHNjYWxlKDAuMTQgLTAuMTQpIj4mI3hhOyAgICAgICA8ZGVmcz4mI3hhOyAgICAgICAgPHBhdGggdHJhbnNmb3JtPSJzY2FsZSgwLjAxNTYyNSkiIGQ9Ik0gNjkxIDQ2NjYgJiMxMDtMIDMxNjkgNDY2NiAmIzEwO0wgMzE2OSA0MTM0ICYjMTA7TCAxMjY5IDQxMzQgJiMxMDtMIDEyNjkgMjk5MSAmIzEwO1EgMTQwNiAzMDM4IDE1NDMgMzA2MSAmIzEwO1EgMTY4MSAzMDg0IDE4MTkgMzA4NCAmIzEwO1EgMjYwMCAzMDg0IDMwNTYgMjY1NiAmIzEwO1EgMzUxMyAyMjI4IDM1MTMgMTQ5NyAmIzEwO1EgMzUxMyA3NDQgMzA0NCAzMjYgJiMxMDtRIDI1NzUgLTkxIDE3MjIgLTkxICYjMTA7USAxNDI4IC05MSAxMTIzIC00MSAmIzEwO1EgODE5IDkgNDk0IDEwOSAmIzEwO0wgNDk0IDc0NCAmIzEwO1EgNzc1IDU5MSAxMDc1IDUxNiAmIzEwO1EgMTM3NSA0NDEgMTcwOSA0NDEgJiMxMDtRIDIyNTAgNDQxIDI1NjUgNzI1ICYjMTA7USAyODgxIDEwMDkgMjg4MSAxNDk3ICYjMTA7USAyODgxIDE5ODQgMjU2NSAyMjY4ICYjMTA7USAyMjUwIDI1NTMgMTcwOSAyNTUzICYjMTA7USAxNDU2IDI1NTMgMTIwNCAyNDk3ICYjMTA7USA5NTMgMjQ0MSA2OTEgMjMyMiAmIzEwO0wgNjkxIDQ2NjYgJiMxMDt6IiBpZD0iRGVqYVZ1U2Fucy0zNSIvPiYjeGE7ICAgICAgIDwvZGVmcz4mI3hhOyAgICAgICA8dXNlIHhsaW5rOmhyZWY9IiNEZWphVnVTYW5zLTMwIi8+JiN4YTsgICAgICAgPHVzZSB4PSI2My42MjMwNDciIHhsaW5rOmhyZWY9IiNEZWphVnVTYW5zLTJlIi8+JiN4YTsgICAgICAgPHVzZSB4PSI5NS40MTAxNTYiIHhsaW5rOmhyZWY9IiNEZWphVnVTYW5zLTM1Ii8+JiN4YTsgICAgICAgPHVzZSB4PSIxNTkuMDMzMjAzIiB4bGluazpocmVmPSIjRGVqYVZ1U2Fucy0zMCIvPiYjeGE7ICAgICAgPC9nPiYjeGE7ICAgICA8L2c+JiN4YTsgICAgPC9nPiYjeGE7ICAgIDxnIGlkPSJ5dGlja180Ij4mI3hhOyAgICAgPGcgaWQ9ImxpbmUyZF8yOSI+JiN4YTsgICAgICA8cGF0aCBzdHlsZT0iZmlsbDogbm9uZTsgc3Ryb2tlLWRhc2hhcnJheTogMC44LDEuMzI7IHN0cm9rZS1kYXNob2Zmc2V0OiAwOyBzdHJva2U6ICNiMGIwYjA7IHN0cm9rZS13aWR0aDogMC44IiBjbGlwLXBhdGg9InVybCgjcGVkMzNiMzBjNjUpIiBkPSJNIDY0Ljg1Njg3NSAxOTkuOTc4OTA2ICYjMTA7TCA2MTQuMDE2ODc1IDE5OS45Nzg5MDYiLz4mI3hhOyAgICAgPC9nPiYjeGE7ICAgICA8ZyBpZD0ibGluZTJkXzMwIj4mI3hhOyAgICAgIDxnPiYjeGE7ICAgICAgIDx1c2Ugc3R5bGU9InN0cm9rZTogIzAwMDAwMDsgc3Ryb2tlLXdpZHRoOiAwLjgiIHk9IjE5OS45Nzg5MDYiIHg9IjY0Ljg1Njg3NSIgeGxpbms6aHJlZj0iI20yMDFiODVhNmQ3Ii8+JiN4YTsgICAgICA8L2c+JiN4YTsgICAgIDwvZz4mI3hhOyAgICAgPGcgaWQ9InRleHRfMTYiPiYjeGE7ICAgICAgJiN4YTsgICAgICA8ZyB0cmFuc2Zvcm09InRyYW5zbGF0ZSgyNi42ODUgMjA1LjI5NzgxMikgc2NhbGUoMC4xNCAtMC4xNCkiPiYjeGE7ICAgICAgIDx1c2UgeGxpbms6aHJlZj0iI0RlamFWdVNhbnMtMzAiLz4mI3hhOyAgICAgICA8dXNlIHg9IjYzLjYyMzA0NyIgeGxpbms6aHJlZj0iI0RlamFWdVNhbnMtMmUiLz4mI3hhOyAgICAgICA8dXNlIHg9Ijk1LjQxMDE1NiIgeGxpbms6aHJlZj0iI0RlamFWdVNhbnMtMzYiLz4mI3hhOyAgICAgICA8dXNlIHg9IjE1OS4wMzMyMDMiIHhsaW5rOmhyZWY9IiNEZWphVnVTYW5zLTMwIi8+JiN4YTsgICAgICA8L2c+JiN4YTsgICAgIDwvZz4mI3hhOyAgICA8L2c+JiN4YTsgICAgPGcgaWQ9Inl0aWNrXzUiPiYjeGE7ICAgICA8ZyBpZD0ibGluZTJkXzMxIj4mI3hhOyAgICAgIDxwYXRoIHN0eWxlPSJmaWxsOiBub25lOyBzdHJva2UtZGFzaGFycmF5OiAwLjgsMS4zMjsgc3Ryb2tlLWRhc2hvZmZzZXQ6IDA7IHN0cm9rZTogI2IwYjBiMDsgc3Ryb2tlLXdpZHRoOiAwLjgiIGNsaXAtcGF0aD0idXJsKCNwZWQzM2IzMGM2NSkiIGQ9Ik0gNjQuODU2ODc1IDEzNy40OTIyNCAmIzEwO0wgNjE0LjAxNjg3NSAxMzcuNDkyMjQiLz4mI3hhOyAgICAgPC9nPiYjeGE7ICAgICA8ZyBpZD0ibGluZTJkXzMyIj4mI3hhOyAgICAgIDxnPiYjeGE7ICAgICAgIDx1c2Ugc3R5bGU9InN0cm9rZTogIzAwMDAwMDsgc3Ryb2tlLXdpZHRoOiAwLjgiIHk9IjEzNy40OTIyNCIgeD0iNjQuODU2ODc1IiB4bGluazpocmVmPSIjbTIwMWI4NWE2ZDciLz4mI3hhOyAgICAgIDwvZz4mI3hhOyAgICAgPC9nPiYjeGE7ICAgICA8ZyBpZD0idGV4dF8xNyI+JiN4YTsgICAgICAmI3hhOyAgICAgIDxnIHRyYW5zZm9ybT0idHJhbnNsYXRlKDI2LjY4NSAxNDIuODExMTQ2KSBzY2FsZSgwLjE0IC0wLjE0KSI+JiN4YTsgICAgICAgPGRlZnM+JiN4YTsgICAgICAgIDxwYXRoIHRyYW5zZm9ybT0ic2NhbGUoMC4wMTU2MjUpIiBkPSJNIDUyNSA0NjY2ICYjMTA7TCAzNTI1IDQ2NjYgJiMxMDtMIDM1MjUgNDM5NyAmIzEwO0wgMTgzMSAwICYjMTA7TCAxMTcyIDAgJiMxMDtMIDI3NjYgNDEzNCAmIzEwO0wgNTI1IDQxMzQgJiMxMDtMIDUyNSA0NjY2ICYjMTA7eiIgaWQ9IkRlamFWdVNhbnMtMzciLz4mI3hhOyAgICAgICA8L2RlZnM+JiN4YTsgICAgICAgPHVzZSB4bGluazpocmVmPSIjRGVqYVZ1U2Fucy0zMCIvPiYjeGE7ICAgICAgIDx1c2UgeD0iNjMuNjIzMDQ3IiB4bGluazpocmVmPSIjRGVqYVZ1U2Fucy0yZSIvPiYjeGE7ICAgICAgIDx1c2UgeD0iOTUuNDEwMTU2IiB4bGluazpocmVmPSIjRGVqYVZ1U2Fucy0zNyIvPiYjeGE7ICAgICAgIDx1c2UgeD0iMTU5LjAzMzIwMyIgeGxpbms6aHJlZj0iI0RlamFWdVNhbnMtMzAiLz4mI3hhOyAgICAgIDwvZz4mI3hhOyAgICAgPC9nPiYjeGE7ICAgIDwvZz4mI3hhOyAgICA8ZyBpZD0ieXRpY2tfNiI+JiN4YTsgICAgIDxnIGlkPSJsaW5lMmRfMzMiPiYjeGE7ICAgICAgPHBhdGggc3R5bGU9ImZpbGw6IG5vbmU7IHN0cm9rZS1kYXNoYXJyYXk6IDAuOCwxLjMyOyBzdHJva2UtZGFzaG9mZnNldDogMDsgc3Ryb2tlOiAjYjBiMGIwOyBzdHJva2Utd2lkdGg6IDAuOCIgY2xpcC1wYXRoPSJ1cmwoI3BlZDMzYjMwYzY1KSIgZD0iTSA2NC44NTY4NzUgNzUuMDA1NTczICYjMTA7TCA2MTQuMDE2ODc1IDc1LjAwNTU3MyIvPiYjeGE7ICAgICA8L2c+JiN4YTsgICAgIDxnIGlkPSJsaW5lMmRfMzQiPiYjeGE7ICAgICAgPGc+JiN4YTsgICAgICAgPHVzZSBzdHlsZT0ic3Ryb2tlOiAjMDAwMDAwOyBzdHJva2Utd2lkdGg6IDAuOCIgeT0iNzUuMDA1NTczIiB4PSI2NC44NTY4NzUiIHhsaW5rOmhyZWY9IiNtMjAxYjg1YTZkNyIvPiYjeGE7ICAgICAgPC9nPiYjeGE7ICAgICA8L2c+JiN4YTsgICAgIDxnIGlkPSJ0ZXh0XzE4Ij4mI3hhOyAgICAgICYjeGE7ICAgICAgPGcgdHJhbnNmb3JtPSJ0cmFuc2xhdGUoMjYuNjg1IDgwLjMyNDQ3OSkgc2NhbGUoMC4xNCAtMC4xNCkiPiYjeGE7ICAgICAgIDx1c2UgeGxpbms6aHJlZj0iI0RlamFWdVNhbnMtMzAiLz4mI3hhOyAgICAgICA8dXNlIHg9IjYzLjYyMzA0NyIgeGxpbms6aHJlZj0iI0RlamFWdVNhbnMtMmUiLz4mI3hhOyAgICAgICA8dXNlIHg9Ijk1LjQxMDE1NiIgeGxpbms6aHJlZj0iI0RlamFWdVNhbnMtMzgiLz4mI3hhOyAgICAgICA8dXNlIHg9IjE1OS4wMzMyMDMiIHhsaW5rOmhyZWY9IiNEZWphVnVTYW5zLTMwIi8+JiN4YTsgICAgICA8L2c+JiN4YTsgICAgIDwvZz4mI3hhOyAgICA8L2c+JiN4YTsgICAgPGcgaWQ9Inl0aWNrXzciPiYjeGE7ICAgICA8ZyBpZD0ibGluZTJkXzM1Ij4mI3hhOyAgICAgIDxwYXRoIHN0eWxlPSJmaWxsOiBub25lOyBzdHJva2UtZGFzaGFycmF5OiAwLjgsMS4zMjsgc3Ryb2tlLWRhc2hvZmZzZXQ6IDA7IHN0cm9rZTogI2IwYjBiMDsgc3Ryb2tlLXdpZHRoOiAwLjgiIGNsaXAtcGF0aD0idXJsKCNwZWQzM2IzMGM2NSkiIGQ9Ik0gNjQuODU2ODc1IDEyLjUxODkwNiAmIzEwO0wgNjE0LjAxNjg3NSAxMi41MTg5MDYiLz4mI3hhOyAgICAgPC9nPiYjeGE7ICAgICA8ZyBpZD0ibGluZTJkXzM2Ij4mI3hhOyAgICAgIDxnPiYjeGE7ICAgICAgIDx1c2Ugc3R5bGU9InN0cm9rZTogIzAwMDAwMDsgc3Ryb2tlLXdpZHRoOiAwLjgiIHk9IjEyLjUxODkwNiIgeD0iNjQuODU2ODc1IiB4bGluazpocmVmPSIjbTIwMWI4NWE2ZDciLz4mI3hhOyAgICAgIDwvZz4mI3hhOyAgICAgPC9nPiYjeGE7ICAgICA8ZyBpZD0idGV4dF8xOSI+JiN4YTsgICAgICAmI3hhOyAgICAgIDxnIHRyYW5zZm9ybT0idHJhbnNsYXRlKDI2LjY4NSAxNy44Mzc4MTIpIHNjYWxlKDAuMTQgLTAuMTQpIj4mI3hhOyAgICAgICA8ZGVmcz4mI3hhOyAgICAgICAgPHBhdGggdHJhbnNmb3JtPSJzY2FsZSgwLjAxNTYyNSkiIGQ9Ik0gNzAzIDk3ICYjMTA7TCA3MDMgNjcyICYjMTA7USA5NDEgNTU5IDExODQgNTAwICYjMTA7USAxNDI4IDQ0MSAxNjYzIDQ0MSAmIzEwO1EgMjI4OCA0NDEgMjYxNyA4NjEgJiMxMDtRIDI5NDcgMTI4MSAyOTk0IDIxMzggJiMxMDtRIDI4MTMgMTg2OSAyNTM0IDE3MjUgJiMxMDtRIDIyNTYgMTU4MSAxOTE5IDE1ODEgJiMxMDtRIDEyMTkgMTU4MSA4MTEgMjAwNCAmIzEwO1EgNDAzIDI0MjggNDAzIDMxNjMgJiMxMDtRIDQwMyAzODgxIDgyOCA0MzE1ICYjMTA7USAxMjUzIDQ3NTAgMTk1OSA0NzUwICYjMTA7USAyNzY5IDQ3NTAgMzE5NSA0MTI5ICYjMTA7USAzNjIyIDM1MDkgMzYyMiAyMzI4ICYjMTA7USAzNjIyIDEyMjUgMzA5OCA1NjcgJiMxMDtRIDI1NzUgLTkxIDE2OTEgLTkxICYjMTA7USAxNDUzIC05MSAxMjA5IC00NCAmIzEwO1EgOTY2IDMgNzAzIDk3ICYjMTA7eiYjMTA7TSAxOTU5IDIwNzUgJiMxMDtRIDIzODQgMjA3NSAyNjMyIDIzNjUgJiMxMDtRIDI4ODEgMjY1NiAyODgxIDMxNjMgJiMxMDtRIDI4ODEgMzY2NiAyNjMyIDM5NTggJiMxMDtRIDIzODQgNDI1MCAxOTU5IDQyNTAgJiMxMDtRIDE1MzQgNDI1MCAxMjg2IDM5NTggJiMxMDtRIDEwMzggMzY2NiAxMDM4IDMxNjMgJiMxMDtRIDEwMzggMjY1NiAxMjg2IDIzNjUgJiMxMDtRIDE1MzQgMjA3NSAxOTU5IDIwNzUgJiMxMDt6IiBpZD0iRGVqYVZ1U2Fucy0zOSIvPiYjeGE7ICAgICAgIDwvZGVmcz4mI3hhOyAgICAgICA8dXNlIHhsaW5rOmhyZWY9IiNEZWphVnVTYW5zLTMwIi8+JiN4YTsgICAgICAgPHVzZSB4PSI2My42MjMwNDciIHhsaW5rOmhyZWY9IiNEZWphVnVTYW5zLTJlIi8+JiN4YTsgICAgICAgPHVzZSB4PSI5NS40MTAxNTYiIHhsaW5rOmhyZWY9IiNEZWphVnVTYW5zLTM5Ii8+JiN4YTsgICAgICAgPHVzZSB4PSIxNTkuMDMzMjAzIiB4bGluazpocmVmPSIjRGVqYVZ1U2Fucy0zMCIvPiYjeGE7ICAgICAgPC9nPiYjeGE7ICAgICA8L2c+JiN4YTsgICAgPC9nPiYjeGE7ICAgIDxnIGlkPSJ0ZXh0XzIwIj4mI3hhOyAgICAgJiN4YTsgICAgIDxnIHRyYW5zZm9ybT0idHJhbnNsYXRlKDE5LjM1NzUgMjE3LjY4MjY1Nikgcm90YXRlKC05MCkgc2NhbGUoMC4xNiAtMC4xNikiPiYjeGE7ICAgICAgPGRlZnM+JiN4YTsgICAgICAgPHBhdGggdHJhbnNmb3JtPSJzY2FsZSgwLjAxNTYyNSkiIGQ9Ik0gMTI1OSA0MTQ3ICYjMTA7TCAxMjU5IDUxOSAmIzEwO0wgMjAyMiA1MTkgJiMxMDtRIDI5ODggNTE5IDM0MzYgOTU2ICYjMTA7USAzODg0IDEzOTQgMzg4NCAyMzM4ICYjMTA7USAzODg0IDMyNzUgMzQzNiAzNzExICYjMTA7USAyOTg4IDQxNDcgMjAyMiA0MTQ3ICYjMTA7TCAxMjU5IDQxNDcgJiMxMDt6JiMxMDtNIDYyOCA0NjY2ICYjMTA7TCAxOTI1IDQ2NjYgJiMxMDtRIDMyODEgNDY2NiAzOTE1IDQxMDIgJiMxMDtRIDQ1NTAgMzUzOCA0NTUwIDIzMzggJiMxMDtRIDQ1NTAgMTEzMSAzOTEyIDU2NSAmIzEwO1EgMzI3NSAwIDE5MjUgMCAmIzEwO0wgNjI4IDAgJiMxMDtMIDYyOCA0NjY2ICYjMTA7eiIgaWQ9IkRlamFWdVNhbnMtNDQiLz4mI3hhOyAgICAgICA8cGF0aCB0cmFuc2Zvcm09InNjYWxlKDAuMDE1NjI1KSIgZD0iTSA2MDMgMzUwMCAmIzEwO0wgMTE3OCAzNTAwICYjMTA7TCAxMTc4IDAgJiMxMDtMIDYwMyAwICYjMTA7TCA2MDMgMzUwMCAmIzEwO3omIzEwO00gNjAzIDQ4NjMgJiMxMDtMIDExNzggNDg2MyAmIzEwO0wgMTE3OCA0MTM0ICYjMTA7TCA2MDMgNDEzNCAmIzEwO0wgNjAzIDQ4NjMgJiMxMDt6IiBpZD0iRGVqYVZ1U2Fucy02OSIvPiYjeGE7ICAgICAgIDxwYXRoIHRyYW5zZm9ybT0ic2NhbGUoMC4wMTU2MjUpIiBkPSJNIDMxMjIgMzM2NiAmIzEwO0wgMzEyMiAyODI4ICYjMTA7USAyODc4IDI5NjMgMjYzMyAzMDMwICYjMTA7USAyMzg4IDMwOTcgMjEzOCAzMDk3ICYjMTA7USAxNTc4IDMwOTcgMTI2OCAyNzQyICYjMTA7USA5NTkgMjM4OCA5NTkgMTc0NyAmIzEwO1EgOTU5IDExMDYgMTI2OCA3NTEgJiMxMDtRIDE1NzggMzk3IDIxMzggMzk3ICYjMTA7USAyMzg4IDM5NyAyNjMzIDQ2NCAmIzEwO1EgMjg3OCA1MzEgMzEyMiA2NjYgJiMxMDtMIDMxMjIgMTM0ICYjMTA7USAyODgxIDIyIDI2MjMgLTM0ICYjMTA7USAyMzY2IC05MSAyMDc1IC05MSAmIzEwO1EgMTI4NCAtOTEgODE4IDQwNiAmIzEwO1EgMzUzIDkwMyAzNTMgMTc0NyAmIzEwO1EgMzUzIDI2MDMgODIzIDMwOTMgJiMxMDtRIDEyOTQgMzU4NCAyMTEzIDM1ODQgJiMxMDtRIDIzNzggMzU4NCAyNjMxIDM1MjkgJiMxMDtRIDI4ODQgMzQ3NSAzMTIyIDMzNjYgJiMxMDt6IiBpZD0iRGVqYVZ1U2Fucy02MyIvPiYjeGE7ICAgICAgPC9kZWZzPiYjeGE7ICAgICAgPHVzZSB4bGluazpocmVmPSIjRGVqYVZ1U2Fucy00NCIvPiYjeGE7ICAgICAgPHVzZSB4PSI3Ny4wMDE5NTMiIHhsaW5rOmhyZWY9IiNEZWphVnVTYW5zLTY5Ii8+JiN4YTsgICAgICA8dXNlIHg9IjEwNC43ODUxNTYiIHhsaW5rOmhyZWY9IiNEZWphVnVTYW5zLTYzIi8+JiN4YTsgICAgICA8dXNlIHg9IjE1OS43NjU2MjUiIHhsaW5rOmhyZWY9IiNEZWphVnVTYW5zLTY1Ii8+JiN4YTsgICAgIDwvZz4mI3hhOyAgICA8L2c+JiN4YTsgICA8L2c+JiN4YTsgICA8ZyBpZD0ibGluZTJkXzM3Ij4mI3hhOyAgICA8cGF0aCBzdHlsZT0iZmlsbDogbm9uZTsgc3Ryb2tlOiAjMWY3N2I0OyBzdHJva2Utd2lkdGg6IDEuNTsgc3Ryb2tlLWxpbmVjYXA6IHNxdWFyZSIgY2xpcC1wYXRoPSJ1cmwoI3BlZDMzYjMwYzY1KSIgZD0iTSAxMTQuNzgwNTExIDIwNi44NjAxOTEgJiMxMDtMIDEzOS43NDIzMyAxMTEuOTQyNTA5ICYjMTA7TCAxODkuNjY1OTY2IDEwOS45NDA5MjEgJiMxMDtMIDIzOS41ODk2MDIgOTMuOTExMzQ0ICYjMTA7TCAyODkuNTEzMjM5IDc0LjkwNDU1OSAmIzEwO0wgMzM5LjQzNjg3NSA2Ni43NjQ0OCAmIzEwO0wgMzg5LjM2MDUxMSA1My40OTUxMTYgJiMxMDtMIDQzOS4yODQxNDggNTEuOTYyOTA2ICYjMTA7TCA0ODkuMjA3Nzg0IDQ4LjgyMDIwNyAmIzEwO0wgNTM5LjEzMTQyIDUxLjQ4MjY2ICYjMTA7TCA1ODkuMDU1MDU3IDQ4LjMyMDkxNiIvPiYjeGE7ICAgIDxkZWZzPiYjeGE7ICAgICA8cGF0aCBzdHlsZT0ic3Ryb2tlOiAjMWY3N2I0IiBkPSJNIDAgMyAmIzEwO0MgMC43OTU2MDkgMyAxLjU1ODc0IDIuNjgzOTAxIDIuMTIxMzIgMi4xMjEzMiAmIzEwO0MgMi42ODM5MDEgMS41NTg3NCAzIDAuNzk1NjA5IDMgMCAmIzEwO0MgMyAtMC43OTU2MDkgMi42ODM5MDEgLTEuNTU4NzQgMi4xMjEzMiAtMi4xMjEzMiAmIzEwO0MgMS41NTg3NCAtMi42ODM5MDEgMC43OTU2MDkgLTMgMCAtMyAmIzEwO0MgLTAuNzk1NjA5IC0zIC0xLjU1ODc0IC0yLjY4MzkwMSAtMi4xMjEzMiAtMi4xMjEzMiAmIzEwO0MgLTIuNjgzOTAxIC0xLjU1ODc0IC0zIC0wLjc5NTYwOSAtMyAwICYjMTA7QyAtMyAwLjc5NTYwOSAtMi42ODM5MDEgMS41NTg3NCAtMi4xMjEzMiAyLjEyMTMyICYjMTA7QyAtMS41NTg3NCAyLjY4MzkwMSAtMC43OTU2MDkgMyAwIDMgJiMxMDt6IiBpZD0ibWM3ZmE3MDQ3MDgiLz4mI3hhOyAgICA8L2RlZnM+JiN4YTsgICAgPGcgY2xpcC1wYXRoPSJ1cmwoI3BlZDMzYjMwYzY1KSI+JiN4YTsgICAgIDx1c2Ugc3R5bGU9ImZpbGw6ICMxZjc3YjQ7IHN0cm9rZTogIzFmNzdiNCIgeT0iMjA2Ljg2MDE5MSIgeD0iMTE0Ljc4MDUxMSIgeGxpbms6aHJlZj0iI21jN2ZhNzA0NzA4Ii8+JiN4YTsgICAgIDx1c2Ugc3R5bGU9ImZpbGw6ICMxZjc3YjQ7IHN0cm9rZTogIzFmNzdiNCIgeT0iMTExLjk0MjUwOSIgeD0iMTM5Ljc0MjMzIiB4bGluazpocmVmPSIjbWM3ZmE3MDQ3MDgiLz4mI3hhOyAgICAgPHVzZSBzdHlsZT0iZmlsbDogIzFmNzdiNDsgc3Ryb2tlOiAjMWY3N2I0IiB5PSIxMDkuOTQwOTIxIiB4PSIxODkuNjY1OTY2IiB4bGluazpocmVmPSIjbWM3ZmE3MDQ3MDgiLz4mI3hhOyAgICAgPHVzZSBzdHlsZT0iZmlsbDogIzFmNzdiNDsgc3Ryb2tlOiAjMWY3N2I0IiB5PSI5My45MTEzNDQiIHg9IjIzOS41ODk2MDIiIHhsaW5rOmhyZWY9IiNtYzdmYTcwNDcwOCIvPiYjeGE7ICAgICA8dXNlIHN0eWxlPSJmaWxsOiAjMWY3N2I0OyBzdHJva2U6ICMxZjc3YjQiIHk9Ijc0LjkwNDU1OSIgeD0iMjg5LjUxMzIzOSIgeGxpbms6aHJlZj0iI21jN2ZhNzA0NzA4Ii8+JiN4YTsgICAgIDx1c2Ugc3R5bGU9ImZpbGw6ICMxZjc3YjQ7IHN0cm9rZTogIzFmNzdiNCIgeT0iNjYuNzY0NDgiIHg9IjMzOS40MzY4NzUiIHhsaW5rOmhyZWY9IiNtYzdmYTcwNDcwOCIvPiYjeGE7ICAgICA8dXNlIHN0eWxlPSJmaWxsOiAjMWY3N2I0OyBzdHJva2U6ICMxZjc3YjQiIHk9IjUzLjQ5NTExNiIgeD0iMzg5LjM2MDUxMSIgeGxpbms6aHJlZj0iI21jN2ZhNzA0NzA4Ii8+JiN4YTsgICAgIDx1c2Ugc3R5bGU9ImZpbGw6ICMxZjc3YjQ7IHN0cm9rZTogIzFmNzdiNCIgeT0iNTEuOTYyOTA2IiB4PSI0MzkuMjg0MTQ4IiB4bGluazpocmVmPSIjbWM3ZmE3MDQ3MDgiLz4mI3hhOyAgICAgPHVzZSBzdHlsZT0iZmlsbDogIzFmNzdiNDsgc3Ryb2tlOiAjMWY3N2I0IiB5PSI0OC44MjAyMDciIHg9IjQ4OS4yMDc3ODQiIHhsaW5rOmhyZWY9IiNtYzdmYTcwNDcwOCIvPiYjeGE7ICAgICA8dXNlIHN0eWxlPSJmaWxsOiAjMWY3N2I0OyBzdHJva2U6ICMxZjc3YjQiIHk9IjUxLjQ4MjY2IiB4PSI1MzkuMTMxNDIiIHhsaW5rOmhyZWY9IiNtYzdmYTcwNDcwOCIvPiYjeGE7ICAgICA8dXNlIHN0eWxlPSJmaWxsOiAjMWY3N2I0OyBzdHJva2U6ICMxZjc3YjQiIHk9IjQ4LjMyMDkxNiIgeD0iNTg5LjA1NTA1NyIgeGxpbms6aHJlZj0iI21jN2ZhNzA0NzA4Ii8+JiN4YTsgICAgPC9nPiYjeGE7ICAgPC9nPiYjeGE7ICAgPGcgaWQ9ImxpbmUyZF8zOCI+JiN4YTsgICAgPHBhdGggc3R5bGU9ImZpbGw6IG5vbmU7IHN0cm9rZTogI2ZmN2YwZTsgc3Ryb2tlLXdpZHRoOiAxLjU7IHN0cm9rZS1saW5lY2FwOiBzcXVhcmUiIGNsaXAtcGF0aD0idXJsKCNwZWQzM2IzMGM2NSkiIGQ9Ik0gMTE0Ljc4MDUxMSAyMTkuNjU3NTMyICYjMTA7TCAxMzkuNzQyMzMgMTA5Ljc1MjY3OCAmIzEwO0wgMTg5LjY2NTk2NiA4Ni40MzQzODEgJiMxMDtMIDIzOS41ODk2MDIgNzYuNDA3MDE0ICYjMTA7TCAyODkuNTEzMjM5IDY5LjMzNjk5NCAmIzEwO0wgMzM5LjQzNjg3NSA2OC4zNDU3MDIgJiMxMDtMIDM4OS4zNjA1MTEgNjAuNTcxNjY3ICYjMTA7TCA0MzkuMjg0MTQ4IDUyLjM4MjgwNSAmIzEwO0wgNDg5LjIwNzc4NCA1My4wNDU2NDIgJiMxMDtMIDUzOS4xMzE0MiA1Ni44Nzk4MiAmIzEwO0wgNTg5LjA1NTA1NyA1MS41ODY4MjkiLz4mI3hhOyAgICA8ZGVmcz4mI3hhOyAgICAgPHBhdGggc3R5bGU9InN0cm9rZTogI2ZmN2YwZSIgZD0iTSAwIDMgJiMxMDtDIDAuNzk1NjA5IDMgMS41NTg3NCAyLjY4MzkwMSAyLjEyMTMyIDIuMTIxMzIgJiMxMDtDIDIuNjgzOTAxIDEuNTU4NzQgMyAwLjc5NTYwOSAzIDAgJiMxMDtDIDMgLTAuNzk1NjA5IDIuNjgzOTAxIC0xLjU1ODc0IDIuMTIxMzIgLTIuMTIxMzIgJiMxMDtDIDEuNTU4NzQgLTIuNjgzOTAxIDAuNzk1NjA5IC0zIDAgLTMgJiMxMDtDIC0wLjc5NTYwOSAtMyAtMS41NTg3NCAtMi42ODM5MDEgLTIuMTIxMzIgLTIuMTIxMzIgJiMxMDtDIC0yLjY4MzkwMSAtMS41NTg3NCAtMyAtMC43OTU2MDkgLTMgMCAmIzEwO0MgLTMgMC43OTU2MDkgLTIuNjgzOTAxIDEuNTU4NzQgLTIuMTIxMzIgMi4xMjEzMiAmIzEwO0MgLTEuNTU4NzQgMi42ODM5MDEgLTAuNzk1NjA5IDMgMCAzICYjMTA7eiIgaWQ9Im1hMWZjYmU1NzEwIi8+JiN4YTsgICAgPC9kZWZzPiYjeGE7ICAgIDxnIGNsaXAtcGF0aD0idXJsKCNwZWQzM2IzMGM2NSkiPiYjeGE7ICAgICA8dXNlIHN0eWxlPSJmaWxsOiAjZmY3ZjBlOyBzdHJva2U6ICNmZjdmMGUiIHk9IjIxOS42NTc1MzIiIHg9IjExNC43ODA1MTEiIHhsaW5rOmhyZWY9IiNtYTFmY2JlNTcxMCIvPiYjeGE7ICAgICA8dXNlIHN0eWxlPSJmaWxsOiAjZmY3ZjBlOyBzdHJva2U6ICNmZjdmMGUiIHk9IjEwOS43NTI2NzgiIHg9IjEzOS43NDIzMyIgeGxpbms6aHJlZj0iI21hMWZjYmU1NzEwIi8+JiN4YTsgICAgIDx1c2Ugc3R5bGU9ImZpbGw6ICNmZjdmMGU7IHN0cm9rZTogI2ZmN2YwZSIgeT0iODYuNDM0MzgxIiB4PSIxODkuNjY1OTY2IiB4bGluazpocmVmPSIjbWExZmNiZTU3MTAiLz4mI3hhOyAgICAgPHVzZSBzdHlsZT0iZmlsbDogI2ZmN2YwZTsgc3Ryb2tlOiAjZmY3ZjBlIiB5PSI3Ni40MDcwMTQiIHg9IjIzOS41ODk2MDIiIHhsaW5rOmhyZWY9IiNtYTFmY2JlNTcxMCIvPiYjeGE7ICAgICA8dXNlIHN0eWxlPSJmaWxsOiAjZmY3ZjBlOyBzdHJva2U6ICNmZjdmMGUiIHk9IjY5LjMzNjk5NCIgeD0iMjg5LjUxMzIzOSIgeGxpbms6aHJlZj0iI21hMWZjYmU1NzEwIi8+JiN4YTsgICAgIDx1c2Ugc3R5bGU9ImZpbGw6ICNmZjdmMGU7IHN0cm9rZTogI2ZmN2YwZSIgeT0iNjguMzQ1NzAyIiB4PSIzMzkuNDM2ODc1IiB4bGluazpocmVmPSIjbWExZmNiZTU3MTAiLz4mI3hhOyAgICAgPHVzZSBzdHlsZT0iZmlsbDogI2ZmN2YwZTsgc3Ryb2tlOiAjZmY3ZjBlIiB5PSI2MC41NzE2NjciIHg9IjM4OS4zNjA1MTEiIHhsaW5rOmhyZWY9IiNtYTFmY2JlNTcxMCIvPiYjeGE7ICAgICA8dXNlIHN0eWxlPSJmaWxsOiAjZmY3ZjBlOyBzdHJva2U6ICNmZjdmMGUiIHk9IjUyLjM4MjgwNSIgeD0iNDM5LjI4NDE0OCIgeGxpbms6aHJlZj0iI21hMWZjYmU1NzEwIi8+JiN4YTsgICAgIDx1c2Ugc3R5bGU9ImZpbGw6ICNmZjdmMGU7IHN0cm9rZTogI2ZmN2YwZSIgeT0iNTMuMDQ1NjQyIiB4PSI0ODkuMjA3Nzg0IiB4bGluazpocmVmPSIjbWExZmNiZTU3MTAiLz4mI3hhOyAgICAgPHVzZSBzdHlsZT0iZmlsbDogI2ZmN2YwZTsgc3Ryb2tlOiAjZmY3ZjBlIiB5PSI1Ni44Nzk4MiIgeD0iNTM5LjEzMTQyIiB4bGluazpocmVmPSIjbWExZmNiZTU3MTAiLz4mI3hhOyAgICAgPHVzZSBzdHlsZT0iZmlsbDogI2ZmN2YwZTsgc3Ryb2tlOiAjZmY3ZjBlIiB5PSI1MS41ODY4MjkiIHg9IjU4OS4wNTUwNTciIHhsaW5rOmhyZWY9IiNtYTFmY2JlNTcxMCIvPiYjeGE7ICAgIDwvZz4mI3hhOyAgIDwvZz4mI3hhOyAgIDxnIGlkPSJsaW5lMmRfMzkiPiYjeGE7ICAgIDxwYXRoIHN0eWxlPSJmaWxsOiBub25lOyBzdHJva2U6ICMyY2EwMmM7IHN0cm9rZS13aWR0aDogMS41OyBzdHJva2UtbGluZWNhcDogc3F1YXJlIiBjbGlwLXBhdGg9InVybCgjcGVkMzNiMzBjNjUpIiBkPSJNIDExNC43ODA1MTEgMjgzLjU1NzUyNyAmIzEwO0wgMTM5Ljc0MjMzIDI0Mi4wMTA4MzIgJiMxMDtMIDE4OS42NjU5NjYgMjE0LjE2NTU5OCAmIzEwO0wgMjM5LjU4OTYwMiAxNTMuMzM0MzE1ICYjMTA7TCAyODkuNTEzMjM5IDEyNC43OTI2MDIgJiMxMDtMIDMzOS40MzY4NzUgMTMxLjI0NDcxICYjMTA7TCAzODkuMzYwNTExIDkzLjg2MTk2MyAmIzEwO0wgNDM5LjI4NDE0OCAxMTEuNjQxMTI3ICYjMTA7TCA0ODkuMjA3Nzg0IDk1LjU2NjYyNiAmIzEwO0wgNTM5LjEzMTQyIDk5LjgzNzQyNiAmIzEwO0wgNTg5LjA1NTA1NyA5MC4wNDQxNTgiLz4mI3hhOyAgICA8ZGVmcz4mI3hhOyAgICAgPHBhdGggc3R5bGU9InN0cm9rZTogIzJjYTAyYyIgZD0iTSAwIDMgJiMxMDtDIDAuNzk1NjA5IDMgMS41NTg3NCAyLjY4MzkwMSAyLjEyMTMyIDIuMTIxMzIgJiMxMDtDIDIuNjgzOTAxIDEuNTU4NzQgMyAwLjc5NTYwOSAzIDAgJiMxMDtDIDMgLTAuNzk1NjA5IDIuNjgzOTAxIC0xLjU1ODc0IDIuMTIxMzIgLTIuMTIxMzIgJiMxMDtDIDEuNTU4NzQgLTIuNjgzOTAxIDAuNzk1NjA5IC0zIDAgLTMgJiMxMDtDIC0wLjc5NTYwOSAtMyAtMS41NTg3NCAtMi42ODM5MDEgLTIuMTIxMzIgLTIuMTIxMzIgJiMxMDtDIC0yLjY4MzkwMSAtMS41NTg3NCAtMyAtMC43OTU2MDkgLTMgMCAmIzEwO0MgLTMgMC43OTU2MDkgLTIuNjgzOTAxIDEuNTU4NzQgLTIuMTIxMzIgMi4xMjEzMiAmIzEwO0MgLTEuNTU4NzQgMi42ODM5MDEgLTAuNzk1NjA5IDMgMCAzICYjMTA7eiIgaWQ9Im04YTVhZjU1Yjk2Ii8+JiN4YTsgICAgPC9kZWZzPiYjeGE7ICAgIDxnIGNsaXAtcGF0aD0idXJsKCNwZWQzM2IzMGM2NSkiPiYjeGE7ICAgICA8dXNlIHN0eWxlPSJmaWxsOiAjMmNhMDJjOyBzdHJva2U6ICMyY2EwMmMiIHk9IjI4My41NTc1MjciIHg9IjExNC43ODA1MTEiIHhsaW5rOmhyZWY9IiNtOGE1YWY1NWI5NiIvPiYjeGE7ICAgICA8dXNlIHN0eWxlPSJmaWxsOiAjMmNhMDJjOyBzdHJva2U6ICMyY2EwMmMiIHk9IjI0Mi4wMTA4MzIiIHg9IjEzOS43NDIzMyIgeGxpbms6aHJlZj0iI204YTVhZjU1Yjk2Ii8+JiN4YTsgICAgIDx1c2Ugc3R5bGU9ImZpbGw6ICMyY2EwMmM7IHN0cm9rZTogIzJjYTAyYyIgeT0iMjE0LjE2NTU5OCIgeD0iMTg5LjY2NTk2NiIgeGxpbms6aHJlZj0iI204YTVhZjU1Yjk2Ii8+JiN4YTsgICAgIDx1c2Ugc3R5bGU9ImZpbGw6ICMyY2EwMmM7IHN0cm9rZTogIzJjYTAyYyIgeT0iMTUzLjMzNDMxNSIgeD0iMjM5LjU4OTYwMiIgeGxpbms6aHJlZj0iI204YTVhZjU1Yjk2Ii8+JiN4YTsgICAgIDx1c2Ugc3R5bGU9ImZpbGw6ICMyY2EwMmM7IHN0cm9rZTogIzJjYTAyYyIgeT0iMTI0Ljc5MjYwMiIgeD0iMjg5LjUxMzIzOSIgeGxpbms6aHJlZj0iI204YTVhZjU1Yjk2Ii8+JiN4YTsgICAgIDx1c2Ugc3R5bGU9ImZpbGw6ICMyY2EwMmM7IHN0cm9rZTogIzJjYTAyYyIgeT0iMTMxLjI0NDcxIiB4PSIzMzkuNDM2ODc1IiB4bGluazpocmVmPSIjbThhNWFmNTViOTYiLz4mI3hhOyAgICAgPHVzZSBzdHlsZT0iZmlsbDogIzJjYTAyYzsgc3Ryb2tlOiAjMmNhMDJjIiB5PSI5My44NjE5NjMiIHg9IjM4OS4zNjA1MTEiIHhsaW5rOmhyZWY9IiNtOGE1YWY1NWI5NiIvPiYjeGE7ICAgICA8dXNlIHN0eWxlPSJmaWxsOiAjMmNhMDJjOyBzdHJva2U6ICMyY2EwMmMiIHk9IjExMS42NDExMjciIHg9IjQzOS4yODQxNDgiIHhsaW5rOmhyZWY9IiNtOGE1YWY1NWI5NiIvPiYjeGE7ICAgICA8dXNlIHN0eWxlPSJmaWxsOiAjMmNhMDJjOyBzdHJva2U6ICMyY2EwMmMiIHk9Ijk1LjU2NjYyNiIgeD0iNDg5LjIwNzc4NCIgeGxpbms6aHJlZj0iI204YTVhZjU1Yjk2Ii8+JiN4YTsgICAgIDx1c2Ugc3R5bGU9ImZpbGw6ICMyY2EwMmM7IHN0cm9rZTogIzJjYTAyYyIgeT0iOTkuODM3NDI2IiB4PSI1MzkuMTMxNDIiIHhsaW5rOmhyZWY9IiNtOGE1YWY1NWI5NiIvPiYjeGE7ICAgICA8dXNlIHN0eWxlPSJmaWxsOiAjMmNhMDJjOyBzdHJva2U6ICMyY2EwMmMiIHk9IjkwLjA0NDE1OCIgeD0iNTg5LjA1NTA1NyIgeGxpbms6aHJlZj0iI204YTVhZjU1Yjk2Ii8+JiN4YTsgICAgPC9nPiYjeGE7ICAgPC9nPiYjeGE7ICAgPGcgaWQ9ImxpbmUyZF80MCI+JiN4YTsgICAgPHBhdGggc3R5bGU9ImZpbGw6IG5vbmU7IHN0cm9rZTogI2Q2MjcyODsgc3Ryb2tlLXdpZHRoOiAxLjU7IHN0cm9rZS1saW5lY2FwOiBzcXVhcmUiIGNsaXAtcGF0aD0idXJsKCNwZWQzM2IzMGM2NSkiIGQ9Ik0gMTE0Ljc4MDUxMSAyNjkuNzA0ODI0ICYjMTA7TCAxMzkuNzQyMzMgMjQxLjYyOTcwNiAmIzEwO0wgMTg5LjY2NTk2NiAyMDUuMjYwNDE4ICYjMTA7TCAyMzkuNTg5NjAyIDE1MS45NDQ1NTcgJiMxMDtMIDI4OS41MTMyMzkgMTE4LjU4MjMyNiAmIzEwO0wgMzM5LjQzNjg3NSAxMjEuNTkzNjcgJiMxMDtMIDM4OS4zNjA1MTEgOTEuMjcwNDE3ICYjMTA7TCA0MzkuMjg0MTQ4IDEwNy4wODEzOSAmIzEwO0wgNDg5LjIwNzc4NCA5NS44MzAwODkgJiMxMDtMIDUzOS4xMzE0MiA4My4xNzY3MDMgJiMxMDtMIDU4OS4wNTUwNTcgOTQuMjg5NTIxIi8+JiN4YTsgICAgPGRlZnM+JiN4YTsgICAgIDxwYXRoIHN0eWxlPSJzdHJva2U6ICNkNjI3MjgiIGQ9Ik0gMCAzICYjMTA7QyAwLjc5NTYwOSAzIDEuNTU4NzQgMi42ODM5MDEgMi4xMjEzMiAyLjEyMTMyICYjMTA7QyAyLjY4MzkwMSAxLjU1ODc0IDMgMC43OTU2MDkgMyAwICYjMTA7QyAzIC0wLjc5NTYwOSAyLjY4MzkwMSAtMS41NTg3NCAyLjEyMTMyIC0yLjEyMTMyICYjMTA7QyAxLjU1ODc0IC0yLjY4MzkwMSAwLjc5NTYwOSAtMyAwIC0zICYjMTA7QyAtMC43OTU2MDkgLTMgLTEuNTU4NzQgLTIuNjgzOTAxIC0yLjEyMTMyIC0yLjEyMTMyICYjMTA7QyAtMi42ODM5MDEgLTEuNTU4NzQgLTMgLTAuNzk1NjA5IC0zIDAgJiMxMDtDIC0zIDAuNzk1NjA5IC0yLjY4MzkwMSAxLjU1ODc0IC0yLjEyMTMyIDIuMTIxMzIgJiMxMDtDIC0xLjU1ODc0IDIuNjgzOTAxIC0wLjc5NTYwOSAzIDAgMyAmIzEwO3oiIGlkPSJtNmZkODZjMDVhYyIvPiYjeGE7ICAgIDwvZGVmcz4mI3hhOyAgICA8ZyBjbGlwLXBhdGg9InVybCgjcGVkMzNiMzBjNjUpIj4mI3hhOyAgICAgPHVzZSBzdHlsZT0iZmlsbDogI2Q2MjcyODsgc3Ryb2tlOiAjZDYyNzI4IiB5PSIyNjkuNzA0ODI0IiB4PSIxMTQuNzgwNTExIiB4bGluazpocmVmPSIjbTZmZDg2YzA1YWMiLz4mI3hhOyAgICAgPHVzZSBzdHlsZT0iZmlsbDogI2Q2MjcyODsgc3Ryb2tlOiAjZDYyNzI4IiB5PSIyNDEuNjI5NzA2IiB4PSIxMzkuNzQyMzMiIHhsaW5rOmhyZWY9IiNtNmZkODZjMDVhYyIvPiYjeGE7ICAgICA8dXNlIHN0eWxlPSJmaWxsOiAjZDYyNzI4OyBzdHJva2U6ICNkNjI3MjgiIHk9IjIwNS4yNjA0MTgiIHg9IjE4OS42NjU5NjYiIHhsaW5rOmhyZWY9IiNtNmZkODZjMDVhYyIvPiYjeGE7ICAgICA8dXNlIHN0eWxlPSJmaWxsOiAjZDYyNzI4OyBzdHJva2U6ICNkNjI3MjgiIHk9IjE1MS45NDQ1NTciIHg9IjIzOS41ODk2MDIiIHhsaW5rOmhyZWY9IiNtNmZkODZjMDVhYyIvPiYjeGE7ICAgICA8dXNlIHN0eWxlPSJmaWxsOiAjZDYyNzI4OyBzdHJva2U6ICNkNjI3MjgiIHk9IjExOC41ODIzMjYiIHg9IjI4OS41MTMyMzkiIHhsaW5rOmhyZWY9IiNtNmZkODZjMDVhYyIvPiYjeGE7ICAgICA8dXNlIHN0eWxlPSJmaWxsOiAjZDYyNzI4OyBzdHJva2U6ICNkNjI3MjgiIHk9IjEyMS41OTM2NyIgeD0iMzM5LjQzNjg3NSIgeGxpbms6aHJlZj0iI202ZmQ4NmMwNWFjIi8+JiN4YTsgICAgIDx1c2Ugc3R5bGU9ImZpbGw6ICNkNjI3Mjg7IHN0cm9rZTogI2Q2MjcyOCIgeT0iOTEuMjcwNDE3IiB4PSIzODkuMzYwNTExIiB4bGluazpocmVmPSIjbTZmZDg2YzA1YWMiLz4mI3hhOyAgICAgPHVzZSBzdHlsZT0iZmlsbDogI2Q2MjcyODsgc3Ryb2tlOiAjZDYyNzI4IiB5PSIxMDcuMDgxMzkiIHg9IjQzOS4yODQxNDgiIHhsaW5rOmhyZWY9IiNtNmZkODZjMDVhYyIvPiYjeGE7ICAgICA8dXNlIHN0eWxlPSJmaWxsOiAjZDYyNzI4OyBzdHJva2U6ICNkNjI3MjgiIHk9Ijk1LjgzMDA4OSIgeD0iNDg5LjIwNzc4NCIgeGxpbms6aHJlZj0iI202ZmQ4NmMwNWFjIi8+JiN4YTsgICAgIDx1c2Ugc3R5bGU9ImZpbGw6ICNkNjI3Mjg7IHN0cm9rZTogI2Q2MjcyOCIgeT0iODMuMTc2NzAzIiB4PSI1MzkuMTMxNDIiIHhsaW5rOmhyZWY9IiNtNmZkODZjMDVhYyIvPiYjeGE7ICAgICA8dXNlIHN0eWxlPSJmaWxsOiAjZDYyNzI4OyBzdHJva2U6ICNkNjI3MjgiIHk9Ijk0LjI4OTUyMSIgeD0iNTg5LjA1NTA1NyIgeGxpbms6aHJlZj0iI202ZmQ4NmMwNWFjIi8+JiN4YTsgICAgPC9nPiYjeGE7ICAgPC9nPiYjeGE7ICAgPGcgaWQ9ImxpbmUyZF80MSI+JiN4YTsgICAgPHBhdGggc3R5bGU9ImZpbGw6IG5vbmU7IHN0cm9rZTogI2ZmN2YwZTsgc3Ryb2tlLXdpZHRoOiAxLjU7IHN0cm9rZS1saW5lY2FwOiBzcXVhcmUiIGNsaXAtcGF0aD0idXJsKCNwZWQzM2IzMGM2NSkiIGQ9Ik0gODkuODE4NjkzIDE5MS40MDYxNjYiLz4mI3hhOyAgICA8ZGVmcz4mI3hhOyAgICAgPHBhdGggc3R5bGU9InN0cm9rZTogI2ZmN2YwZTsgc3Ryb2tlLWxpbmVqb2luOiBiZXZlbCIgZD0iTSAwIC01ICYjMTA7TCAtMS4xMjI1NyAtMS41NDUwODUgJiMxMDtMIC00Ljc1NTI4MyAtMS41NDUwODUgJiMxMDtMIC0xLjgxNjM1NiAwLjU5MDE3ICYjMTA7TCAtMi45Mzg5MjYgNC4wNDUwODUgJiMxMDtMIC0wIDEuOTA5ODMgJiMxMDtMIDIuOTM4OTI2IDQuMDQ1MDg1ICYjMTA7TCAxLjgxNjM1NiAwLjU5MDE3ICYjMTA7TCA0Ljc1NTI4MyAtMS41NDUwODUgJiMxMDtMIDEuMTIyNTcgLTEuNTQ1MDg1ICYjMTA7eiIgaWQ9Im00MGU1MmJlMzE1Ii8+JiN4YTsgICAgPC9kZWZzPiYjeGE7ICAgIDxnIGNsaXAtcGF0aD0idXJsKCNwZWQzM2IzMGM2NSkiPiYjeGE7ICAgICA8dXNlIHN0eWxlPSJmaWxsOiAjZmY3ZjBlOyBzdHJva2U6ICNmZjdmMGU7IHN0cm9rZS1saW5lam9pbjogYmV2ZWwiIHk9IjE5MS40MDYxNjYiIHg9Ijg5LjgxODY5MyIgeGxpbms6aHJlZj0iI200MGU1MmJlMzE1Ii8+JiN4YTsgICAgPC9nPiYjeGE7ICAgPC9nPiYjeGE7ICAgPGcgaWQ9ImxpbmUyZF80MiI+JiN4YTsgICAgPHBhdGggc3R5bGU9ImZpbGw6IG5vbmU7IHN0cm9rZTogIzFmNzdiNDsgc3Ryb2tlLXdpZHRoOiAxLjU7IHN0cm9rZS1saW5lY2FwOiBzcXVhcmUiIGNsaXAtcGF0aD0idXJsKCNwZWQzM2IzMGM2NSkiIGQ9Ik0gODkuODE4NjkzIDEwMS45MTA0MTUiLz4mI3hhOyAgICA8ZGVmcz4mI3hhOyAgICAgPHBhdGggc3R5bGU9InN0cm9rZTogIzFmNzdiNDsgc3Ryb2tlLWxpbmVqb2luOiBiZXZlbCIgZD0iTSAwIC01ICYjMTA7TCAtMS4xMjI1NyAtMS41NDUwODUgJiMxMDtMIC00Ljc1NTI4MyAtMS41NDUwODUgJiMxMDtMIC0xLjgxNjM1NiAwLjU5MDE3ICYjMTA7TCAtMi45Mzg5MjYgNC4wNDUwODUgJiMxMDtMIC0wIDEuOTA5ODMgJiMxMDtMIDIuOTM4OTI2IDQuMDQ1MDg1ICYjMTA7TCAxLjgxNjM1NiAwLjU5MDE3ICYjMTA7TCA0Ljc1NTI4MyAtMS41NDUwODUgJiMxMDtMIDEuMTIyNTcgLTEuNTQ1MDg1ICYjMTA7eiIgaWQ9Im04ODg2YTBmNzYwIi8+JiN4YTsgICAgPC9kZWZzPiYjeGE7ICAgIDxnIGNsaXAtcGF0aD0idXJsKCNwZWQzM2IzMGM2NSkiPiYjeGE7ICAgICA8dXNlIHN0eWxlPSJmaWxsOiAjMWY3N2I0OyBzdHJva2U6ICMxZjc3YjQ7IHN0cm9rZS1saW5lam9pbjogYmV2ZWwiIHk9IjEwMS45MTA0MTUiIHg9Ijg5LjgxODY5MyIgeGxpbms6aHJlZj0iI204ODg2YTBmNzYwIi8+JiN4YTsgICAgPC9nPiYjeGE7ICAgPC9nPiYjeGE7ICAgPGcgaWQ9InBhdGNoXzMiPiYjeGE7ICAgIDxwYXRoIHN0eWxlPSJmaWxsOiBub25lOyBzdHJva2U6ICMwMDAwMDA7IHN0cm9rZS13aWR0aDogMC44OyBzdHJva2UtbGluZWpvaW46IG1pdGVyOyBzdHJva2UtbGluZWNhcDogc3F1YXJlIiBkPSJNIDY0Ljg1Njg3NSAzODcuNDM4OTA2ICYjMTA7TCA2NC44NTY4NzUgMTIuNTE4OTA2Ii8+JiN4YTsgICA8L2c+JiN4YTsgICA8ZyBpZD0icGF0Y2hfNCI+JiN4YTsgICAgPHBhdGggc3R5bGU9ImZpbGw6IG5vbmU7IHN0cm9rZTogIzAwMDAwMDsgc3Ryb2tlLXdpZHRoOiAwLjg7IHN0cm9rZS1saW5lam9pbjogbWl0ZXI7IHN0cm9rZS1saW5lY2FwOiBzcXVhcmUiIGQ9Ik0gNjE0LjAxNjg3NSAzODcuNDM4OTA2ICYjMTA7TCA2MTQuMDE2ODc1IDEyLjUxODkwNiIvPiYjeGE7ICAgPC9nPiYjeGE7ICAgPGcgaWQ9InBhdGNoXzUiPiYjeGE7ICAgIDxwYXRoIHN0eWxlPSJmaWxsOiBub25lOyBzdHJva2U6ICMwMDAwMDA7IHN0cm9rZS13aWR0aDogMC44OyBzdHJva2UtbGluZWpvaW46IG1pdGVyOyBzdHJva2UtbGluZWNhcDogc3F1YXJlIiBkPSJNIDY0Ljg1Njg3NSAzODcuNDM4OTA2ICYjMTA7TCA2MTQuMDE2ODc1IDM4Ny40Mzg5MDYiLz4mI3hhOyAgIDwvZz4mI3hhOyAgIDxnIGlkPSJwYXRjaF82Ij4mI3hhOyAgICA8cGF0aCBzdHlsZT0iZmlsbDogbm9uZTsgc3Ryb2tlOiAjMDAwMDAwOyBzdHJva2Utd2lkdGg6IDAuODsgc3Ryb2tlLWxpbmVqb2luOiBtaXRlcjsgc3Ryb2tlLWxpbmVjYXA6IHNxdWFyZSIgZD0iTSA2NC44NTY4NzUgMTIuNTE4OTA2ICYjMTA7TCA2MTQuMDE2ODc1IDEyLjUxODkwNiIvPiYjeGE7ICAgPC9nPiYjeGE7ICAgPGcgaWQ9InRleHRfMjEiPiYjeGE7ICAgIDxnIGNsaXAtcGF0aD0idXJsKCNwZWQzM2IzMGM2NSkiPiYjeGE7ICAgICAmI3hhOyAgICAgPGcgdHJhbnNmb3JtPSJ0cmFuc2xhdGUoNjUuMDU0NjMxIDE3NS4wMDQzMzIpIHNjYWxlKDAuMSAtMC4xKSIgc3R5bGU9ImZpbGw6ICNmZjdmMGUiPiYjeGE7ICAgICAgPGRlZnM+JiN4YTsgICAgICAgPHBhdGggdHJhbnNmb3JtPSJzY2FsZSgwLjAxNTYyNSkiIGQ9Ik0gMzU5IDQ2NjYgJiMxMDtMIDQwMjUgNDY2NiAmIzEwO0wgNDAyNSA0MTg0ICYjMTA7TCAxMDc1IDUzMSAmIzEwO0wgNDA5NyA1MzEgJiMxMDtMIDQwOTcgMCAmIzEwO0wgMjg4IDAgJiMxMDtMIDI4OCA0ODEgJiMxMDtMIDMyMzggNDEzNCAmIzEwO0wgMzU5IDQxMzQgJiMxMDtMIDM1OSA0NjY2ICYjMTA7eiIgaWQ9IkRlamFWdVNhbnMtNWEiLz4mI3hhOyAgICAgICA8cGF0aCB0cmFuc2Zvcm09InNjYWxlKDAuMDE1NjI1KSIgZD0iTSAyNjMxIDI5NjMgJiMxMDtRIDI1MzQgMzAxOSAyNDIwIDMwNDUgJiMxMDtRIDIzMDYgMzA3MiAyMTY5IDMwNzIgJiMxMDtRIDE2ODEgMzA3MiAxNDIwIDI3NTUgJiMxMDtRIDExNTkgMjQzOCAxMTU5IDE4NDQgJiMxMDtMIDExNTkgMCAmIzEwO0wgNTgxIDAgJiMxMDtMIDU4MSAzNTAwICYjMTA7TCAxMTU5IDM1MDAgJiMxMDtMIDExNTkgMjk1NiAmIzEwO1EgMTM0MSAzMjc1IDE2MzEgMzQyOSAmIzEwO1EgMTkyMiAzNTg0IDIzMzggMzU4NCAmIzEwO1EgMjM5NyAzNTg0IDI0NjkgMzU3NiAmIzEwO1EgMjU0MSAzNTY5IDI2MjggMzU1MyAmIzEwO0wgMjYzMSAyOTYzICYjMTA7eiIgaWQ9IkRlamFWdVNhbnMtNzIiLz4mI3hhOyAgICAgICA8cGF0aCB0cmFuc2Zvcm09InNjYWxlKDAuMDE1NjI1KSIgZD0iTSAzMTMgMjAwOSAmIzEwO0wgMTk5NyAyMDA5ICYjMTA7TCAxOTk3IDE0OTcgJiMxMDtMIDMxMyAxNDk3ICYjMTA7TCAzMTMgMjAwOSAmIzEwO3oiIGlkPSJEZWphVnVTYW5zLTJkIi8+JiN4YTsgICAgICAgPHBhdGggdHJhbnNmb3JtPSJzY2FsZSgwLjAxNTYyNSkiIGQ9Ik0gMzQyNSA0NTEzICYjMTA7TCAzNDI1IDM4OTcgJiMxMDtRIDMwNjYgNDA2OSAyNzQ3IDQxNTMgJiMxMDtRIDI0MjggNDIzOCAyMTMxIDQyMzggJiMxMDtRIDE2MTYgNDIzOCAxMzM2IDQwMzggJiMxMDtRIDEwNTYgMzgzOCAxMDU2IDM0NjkgJiMxMDtRIDEwNTYgMzE1OSAxMjQyIDMwMDEgJiMxMDtRIDE0MjggMjg0NCAxOTQ3IDI3NDcgJiMxMDtMIDIzMjggMjY2OSAmIzEwO1EgMzAzNCAyNTM0IDMzNzAgMjE5NSAmIzEwO1EgMzcwNiAxODU2IDM3MDYgMTI4OCAmIzEwO1EgMzcwNiA2MDkgMzI1MSAyNTkgJiMxMDtRIDI3OTcgLTkxIDE5MTkgLTkxICYjMTA7USAxNTg4IC05MSAxMjE0IC0xNiAmIzEwO1EgODQxIDU5IDQ0MSAyMDYgJiMxMDtMIDQ0MSA4NTYgJiMxMDtRIDgyNSA2NDEgMTE5NCA1MzEgJiMxMDtRIDE1NjMgNDIyIDE5MTkgNDIyICYjMTA7USAyNDU5IDQyMiAyNzUzIDYzNCAmIzEwO1EgMzA0NyA4NDcgMzA0NyAxMjQxICYjMTA7USAzMDQ3IDE1ODQgMjgzNiAxNzc4ICYjMTA7USAyNjI1IDE5NzIgMjE0NCAyMDY5ICYjMTA7TCAxNzU5IDIxNDQgJiMxMDtRIDEwNTMgMjI4NCA3MzcgMjU4NCAmIzEwO1EgNDIyIDI4ODQgNDIyIDM0MTkgJiMxMDtRIDQyMiA0MDM4IDg1OCA0Mzk0ICYjMTA7USAxMjk0IDQ3NTAgMjA1OSA0NzUwICYjMTA7USAyMzg4IDQ3NTAgMjcyOCA0NjkwICYjMTA7USAzMDY5IDQ2MzEgMzQyNSA0NTEzICYjMTA7eiIgaWQ9IkRlamFWdVNhbnMtNTMiLz4mI3hhOyAgICAgICA8cGF0aCB0cmFuc2Zvcm09InNjYWxlKDAuMDE1NjI1KSIgZD0iTSAzNTEzIDIxMTMgJiMxMDtMIDM1MTMgMCAmIzEwO0wgMjkzOCAwICYjMTA7TCAyOTM4IDIwOTQgJiMxMDtRIDI5MzggMjU5MSAyNzQ0IDI4MzcgJiMxMDtRIDI1NTAgMzA4NCAyMTYzIDMwODQgJiMxMDtRIDE2OTcgMzA4NCAxNDI4IDI3ODcgJiMxMDtRIDExNTkgMjQ5MSAxMTU5IDE5NzggJiMxMDtMIDExNTkgMCAmIzEwO0wgNTgxIDAgJiMxMDtMIDU4MSA0ODYzICYjMTA7TCAxMTU5IDQ4NjMgJiMxMDtMIDExNTkgMjk1NiAmIzEwO1EgMTM2NiAzMjcyIDE2NDUgMzQyOCAmIzEwO1EgMTkyNSAzNTg0IDIyOTEgMzU4NCAmIzEwO1EgMjg5NCAzNTg0IDMyMDMgMzIxMSAmIzEwO1EgMzUxMyAyODM4IDM1MTMgMjExMyAmIzEwO3oiIGlkPSJEZWphVnVTYW5zLTY4Ii8+JiN4YTsgICAgICAgPHBhdGggdHJhbnNmb3JtPSJzY2FsZSgwLjAxNTYyNSkiIGQ9Ik0gMTE3MiA0NDk0ICYjMTA7TCAxMTcyIDM1MDAgJiMxMDtMIDIzNTYgMzUwMCAmIzEwO0wgMjM1NiAzMDUzICYjMTA7TCAxMTcyIDMwNTMgJiMxMDtMIDExNzIgMTE1MyAmIzEwO1EgMTE3MiA3MjUgMTI4OSA2MDMgJiMxMDtRIDE0MDYgNDgxIDE3NjYgNDgxICYjMTA7TCAyMzU2IDQ4MSAmIzEwO0wgMjM1NiAwICYjMTA7TCAxNzY2IDAgJiMxMDtRIDExMDAgMCA4NDcgMjQ4ICYjMTA7USA1OTQgNDk3IDU5NCAxMTUzICYjMTA7TCA1OTQgMzA1MyAmIzEwO0wgMTcyIDMwNTMgJiMxMDtMIDE3MiAzNTAwICYjMTA7TCA1OTQgMzUwMCAmIzEwO0wgNTk0IDQ0OTQgJiMxMDtMIDExNzIgNDQ5NCAmIzEwO3oiIGlkPSJEZWphVnVTYW5zLTc0Ii8+JiN4YTsgICAgICA8L2RlZnM+JiN4YTsgICAgICA8dXNlIHhsaW5rOmhyZWY9IiNEZWphVnVTYW5zLTVhIi8+JiN4YTsgICAgICA8dXNlIHg9IjY4LjUwNTg1OSIgeGxpbms6aHJlZj0iI0RlamFWdVNhbnMtNjUiLz4mI3hhOyAgICAgIDx1c2UgeD0iMTMwLjAyOTI5NyIgeGxpbms6aHJlZj0iI0RlamFWdVNhbnMtNzIiLz4mI3hhOyAgICAgIDx1c2UgeD0iMTY4Ljg5MjU3OCIgeGxpbms6aHJlZj0iI0RlamFWdVNhbnMtNmYiLz4mI3hhOyAgICAgIDx1c2UgeD0iMjMxLjk0OTIxOSIgeGxpbms6aHJlZj0iI0RlamFWdVNhbnMtMmQiLz4mI3hhOyAgICAgIDx1c2UgeD0iMjY4LjAzMzIwMyIgeGxpbms6aHJlZj0iI0RlamFWdVNhbnMtNTMiLz4mI3hhOyAgICAgIDx1c2UgeD0iMzMxLjUwOTc2NiIgeGxpbms6aHJlZj0iI0RlamFWdVNhbnMtNjgiLz4mI3hhOyAgICAgIDx1c2UgeD0iMzk0Ljg4ODY3MiIgeGxpbms6aHJlZj0iI0RlamFWdVNhbnMtNmYiLz4mI3hhOyAgICAgIDx1c2UgeD0iNDU2LjA3MDMxMiIgeGxpbms6aHJlZj0iI0RlamFWdVNhbnMtNzQiLz4mI3hhOyAgICAgPC9nPiYjeGE7ICAgIDwvZz4mI3hhOyAgICA8ZyBjbGlwLXBhdGg9InVybCgjcGVkMzNiMzBjNjUpIj4mI3hhOyAgICAgJiN4YTsgICAgIDxnIHRyYW5zZm9ybT0idHJhbnNsYXRlKDY1Ljc0ODM4MSAxODYuMjAyMTQ1KSBzY2FsZSgwLjEgLTAuMSkiIHN0eWxlPSJmaWxsOiAjZmY3ZjBlIj4mI3hhOyAgICAgIDxkZWZzPiYjeGE7ICAgICAgIDxwYXRoIHRyYW5zZm9ybT0ic2NhbGUoMC4wMTU2MjUpIiBkPSJNIDI4NDEgMjE4OCAmIzEwO1EgMzA0NCAyMTE5IDMyMzYgMTg5NCAmIzEwO1EgMzQyOCAxNjY5IDM2MjIgMTI3NSAmIzEwO0wgNDI2MyAwICYjMTA7TCAzNTg0IDAgJiMxMDtMIDI5ODggMTE5NyAmIzEwO1EgMjc1NiAxNjY2IDI1MzkgMTgxOSAmIzEwO1EgMjMyMiAxOTcyIDE5NDcgMTk3MiAmIzEwO0wgMTI1OSAxOTcyICYjMTA7TCAxMjU5IDAgJiMxMDtMIDYyOCAwICYjMTA7TCA2MjggNDY2NiAmIzEwO0wgMjA1MyA0NjY2ICYjMTA7USAyODUzIDQ2NjYgMzI0NyA0MzMxICYjMTA7USAzNjQxIDM5OTcgMzY0MSAzMzIyICYjMTA7USAzNjQxIDI4ODEgMzQzNiAyNTkwICYjMTA7USAzMjMxIDIzMDAgMjg0MSAyMTg4ICYjMTA7eiYjMTA7TSAxMjU5IDQxNDcgJiMxMDtMIDEyNTkgMjQ5MSAmIzEwO0wgMjA1MyAyNDkxICYjMTA7USAyNTA5IDI0OTEgMjc0MiAyNzAyICYjMTA7USAyOTc1IDI5MTMgMjk3NSAzMzIyICYjMTA7USAyOTc1IDM3MzEgMjc0MiAzOTM5ICYjMTA7USAyNTA5IDQxNDcgMjA1MyA0MTQ3ICYjMTA7TCAxMjU5IDQxNDcgJiMxMDt6IiBpZD0iRGVqYVZ1U2Fucy01MiIvPiYjeGE7ICAgICAgIDxwYXRoIHRyYW5zZm9ybT0ic2NhbGUoMC4wMTU2MjUpIiBkPSJNIDYyOCA0NjY2ICYjMTA7TCAxNDc4IDQ2NjYgJiMxMDtMIDM1NDcgNzYzICYjMTA7TCAzNTQ3IDQ2NjYgJiMxMDtMIDQxNTkgNDY2NiAmIzEwO0wgNDE1OSAwICYjMTA7TCAzMzA5IDAgJiMxMDtMIDEyNDEgMzkwMyAmIzEwO0wgMTI0MSAwICYjMTA7TCA2MjggMCAmIzEwO0wgNjI4IDQ2NjYgJiMxMDt6IiBpZD0iRGVqYVZ1U2Fucy00ZSIvPiYjeGE7ICAgICAgPC9kZWZzPiYjeGE7ICAgICAgPHVzZSB4bGluazpocmVmPSIjRGVqYVZ1U2Fucy01MiIvPiYjeGE7ICAgICAgPHVzZSB4PSI2NC45ODI0MjIiIHhsaW5rOmhyZWY9IiNEZWphVnVTYW5zLTY1Ii8+JiN4YTsgICAgICA8dXNlIHg9IjEyNi41MDU4NTkiIHhsaW5rOmhyZWY9IiNEZWphVnVTYW5zLTczIi8+JiN4YTsgICAgICA8dXNlIHg9IjE3OC42MDU0NjkiIHhsaW5rOmhyZWY9IiNEZWphVnVTYW5zLTRlIi8+JiN4YTsgICAgICA8dXNlIHg9IjI1My40MTAxNTYiIHhsaW5rOmhyZWY9IiNEZWphVnVTYW5zLTY1Ii8+JiN4YTsgICAgICA8dXNlIHg9IjMxNC45MzM1OTQiIHhsaW5rOmhyZWY9IiNEZWphVnVTYW5zLTc0Ii8+JiN4YTsgICAgICA8dXNlIHg9IjM1NC4xNDI1NzgiIHhsaW5rOmhyZWY9IiNEZWphVnVTYW5zLTM1Ii8+JiN4YTsgICAgICA8dXNlIHg9IjQxNy43NjU2MjUiIHhsaW5rOmhyZWY9IiNEZWphVnVTYW5zLTMwIi8+JiN4YTsgICAgIDwvZz4mI3hhOyAgICA8L2c+JiN4YTsgICA8L2c+JiN4YTsgICA8ZyBpZD0idGV4dF8yMiI+JiN4YTsgICAgPGcgY2xpcC1wYXRoPSJ1cmwoI3BlZDMzYjMwYzY1KSI+JiN4YTsgICAgICYjeGE7ICAgICA8ZyB0cmFuc2Zvcm09InRyYW5zbGF0ZSg2NS4wNTQ2MzEgODUuNTA4NTgyKSBzY2FsZSgwLjEgLTAuMSkiIHN0eWxlPSJmaWxsOiAjMWY3N2I0Ij4mI3hhOyAgICAgIDx1c2UgeGxpbms6aHJlZj0iI0RlamFWdVNhbnMtNWEiLz4mI3hhOyAgICAgIDx1c2UgeD0iNjguNTA1ODU5IiB4bGluazpocmVmPSIjRGVqYVZ1U2Fucy02NSIvPiYjeGE7ICAgICAgPHVzZSB4PSIxMzAuMDI5Mjk3IiB4bGluazpocmVmPSIjRGVqYVZ1U2Fucy03MiIvPiYjeGE7ICAgICAgPHVzZSB4PSIxNjguODkyNTc4IiB4bGluazpocmVmPSIjRGVqYVZ1U2Fucy02ZiIvPiYjeGE7ICAgICAgPHVzZSB4PSIyMzEuOTQ5MjE5IiB4bGluazpocmVmPSIjRGVqYVZ1U2Fucy0yZCIvPiYjeGE7ICAgICAgPHVzZSB4PSIyNjguMDMzMjAzIiB4bGluazpocmVmPSIjRGVqYVZ1U2Fucy01MyIvPiYjeGE7ICAgICAgPHVzZSB4PSIzMzEuNTA5NzY2IiB4bGluazpocmVmPSIjRGVqYVZ1U2Fucy02OCIvPiYjeGE7ICAgICAgPHVzZSB4PSIzOTQuODg4NjcyIiB4bGluazpocmVmPSIjRGVqYVZ1U2Fucy02ZiIvPiYjeGE7ICAgICAgPHVzZSB4PSI0NTYuMDcwMzEyIiB4bGluazpocmVmPSIjRGVqYVZ1U2Fucy03NCIvPiYjeGE7ICAgICA8L2c+JiN4YTsgICAgPC9nPiYjeGE7ICAgIDxnIGNsaXAtcGF0aD0idXJsKCNwZWQzM2IzMGM2NSkiPiYjeGE7ICAgICAmI3hhOyAgICAgPGcgdHJhbnNmb3JtPSJ0cmFuc2xhdGUoNjUuNzQ4MzgxIDk2LjcwNjM5NSkgc2NhbGUoMC4xIC0wLjEpIiBzdHlsZT0iZmlsbDogIzFmNzdiNCI+JiN4YTsgICAgICA8dXNlIHhsaW5rOmhyZWY9IiNEZWphVnVTYW5zLTUyIi8+JiN4YTsgICAgICA8dXNlIHg9IjY0Ljk4MjQyMiIgeGxpbms6aHJlZj0iI0RlamFWdVNhbnMtNjUiLz4mI3hhOyAgICAgIDx1c2UgeD0iMTI2LjUwNTg1OSIgeGxpbms6aHJlZj0iI0RlamFWdVNhbnMtNzMiLz4mI3hhOyAgICAgIDx1c2UgeD0iMTc4LjYwNTQ2OSIgeGxpbms6aHJlZj0iI0RlamFWdVNhbnMtNGUiLz4mI3hhOyAgICAgIDx1c2UgeD0iMjUzLjQxMDE1NiIgeGxpbms6aHJlZj0iI0RlamFWdVNhbnMtNjUiLz4mI3hhOyAgICAgIDx1c2UgeD0iMzE0LjkzMzU5NCIgeGxpbms6aHJlZj0iI0RlamFWdVNhbnMtNzQiLz4mI3hhOyAgICAgIDx1c2UgeD0iMzU0LjE0MjU3OCIgeGxpbms6aHJlZj0iI0RlamFWdVNhbnMtMzEiLz4mI3hhOyAgICAgIDx1c2UgeD0iNDE3Ljc2NTYyNSIgeGxpbms6aHJlZj0iI0RlamFWdVNhbnMtMzgiLz4mI3hhOyAgICAgPC9nPiYjeGE7ICAgIDwvZz4mI3hhOyAgIDwvZz4mI3hhOyAgIDxnIGlkPSJsZWdlbmRfMSI+JiN4YTsgICAgPGcgaWQ9InBhdGNoXzciPiYjeGE7ICAgICA8cGF0aCBzdHlsZT0iZmlsbDogI2ZmZmZmZjsgb3BhY2l0eTogMC44OyBzdHJva2U6ICNjY2NjY2M7IHN0cm9rZS1saW5lam9pbjogbWl0ZXIiIGQ9Ik0gNDI2LjM0MDYyNSAzODIuNDM4OTA2ICYjMTA7TCA2MDcuMDE2ODc1IDM4Mi40Mzg5MDYgJiMxMDtRIDYwOS4wMTY4NzUgMzgyLjQzODkwNiA2MDkuMDE2ODc1IDM4MC40Mzg5MDYgJiMxMDtMIDYwOS4wMTY4NzUgMjk4LjM3MDE1NiAmIzEwO1EgNjA5LjAxNjg3NSAyOTYuMzcwMTU2IDYwNy4wMTY4NzUgMjk2LjM3MDE1NiAmIzEwO0wgNDI2LjM0MDYyNSAyOTYuMzcwMTU2ICYjMTA7USA0MjQuMzQwNjI1IDI5Ni4zNzAxNTYgNDI0LjM0MDYyNSAyOTguMzcwMTU2ICYjMTA7TCA0MjQuMzQwNjI1IDM4MC40Mzg5MDYgJiMxMDtRIDQyNC4zNDA2MjUgMzgyLjQzODkwNiA0MjYuMzQwNjI1IDM4Mi40Mzg5MDYgJiMxMDt6Ii8+JiN4YTsgICAgPC9nPiYjeGE7ICAgIDxnIGlkPSJ0ZXh0XzIzIj4mI3hhOyAgICAgJiN4YTsgICAgIDxnIHRyYW5zZm9ybT0idHJhbnNsYXRlKDQ4Mi45NzY1NjIgMzA5LjQ4ODI4MSkgc2NhbGUoMC4xMiAtMC4xMikiPiYjeGE7ICAgICAgPGRlZnM+JiN4YTsgICAgICAgPHBhdGggdHJhbnNmb3JtPSJzY2FsZSgwLjAxNTYyNSkiIGQ9Ik0gNjI4IDQ2NjYgJiMxMDtMIDE1NjkgNDY2NiAmIzEwO0wgMjc1OSAxNDkxICYjMTA7TCAzOTU2IDQ2NjYgJiMxMDtMIDQ4OTcgNDY2NiAmIzEwO0wgNDg5NyAwICYjMTA7TCA0MjgxIDAgJiMxMDtMIDQyODEgNDA5NyAmIzEwO0wgMzA3OCA4OTcgJiMxMDtMIDI0NDQgODk3ICYjMTA7TCAxMjQxIDQwOTcgJiMxMDtMIDEyNDEgMCAmIzEwO0wgNjI4IDAgJiMxMDtMIDYyOCA0NjY2ICYjMTA7eiIgaWQ9IkRlamFWdVNhbnMtNGQiLz4mI3hhOyAgICAgICA8cGF0aCB0cmFuc2Zvcm09InNjYWxlKDAuMDE1NjI1KSIgZD0iTSAtMTkgNDY2NiAmIzEwO0wgMzkyOCA0NjY2ICYjMTA7TCAzOTI4IDQxMzQgJiMxMDtMIDIyNzIgNDEzNCAmIzEwO0wgMjI3MiAwICYjMTA7TCAxNjM4IDAgJiMxMDtMIDE2MzggNDEzNCAmIzEwO0wgLTE5IDQxMzQgJiMxMDtMIC0xOSA0NjY2ICYjMTA7eiIgaWQ9IkRlamFWdVNhbnMtNTQiLz4mI3hhOyAgICAgICA8cGF0aCB0cmFuc2Zvcm09InNjYWxlKDAuMDE1NjI1KSIgZD0iTSAyMDU5IC0zMjUgJiMxMDtRIDE4MTYgLTk1MCAxNTg0IC0xMTQwICYjMTA7USAxMzUzIC0xMzMxIDk2NiAtMTMzMSAmIzEwO0wgNTA2IC0xMzMxICYjMTA7TCA1MDYgLTg1MCAmIzEwO0wgODQ0IC04NTAgJiMxMDtRIDEwODEgLTg1MCAxMjEyIC03MzcgJiMxMDtRIDEzNDQgLTYyNSAxNTAzIC0yMDYgJiMxMDtMIDE2MDYgNTYgJiMxMDtMIDE5MSAzNTAwICYjMTA7TCA4MDAgMzUwMCAmIzEwO0wgMTg5NCA3NjMgJiMxMDtMIDI5ODggMzUwMCAmIzEwO0wgMzU5NyAzNTAwICYjMTA7TCAyMDU5IC0zMjUgJiMxMDt6IiBpZD0iRGVqYVZ1U2Fucy03OSIvPiYjeGE7ICAgICAgPC9kZWZzPiYjeGE7ICAgICAgPHVzZSB4bGluazpocmVmPSIjRGVqYVZ1U2Fucy00ZCIvPiYjeGE7ICAgICAgPHVzZSB4PSI4Ni4yNzkyOTciIHhsaW5rOmhyZWY9IiNEZWphVnVTYW5zLTZmIi8+JiN4YTsgICAgICA8dXNlIHg9IjE0Ny40NjA5MzgiIHhsaW5rOmhyZWY9IiNEZWphVnVTYW5zLTY0Ii8+JiN4YTsgICAgICA8dXNlIHg9IjIxMC45Mzc1IiB4bGluazpocmVmPSIjRGVqYVZ1U2Fucy02NSIvPiYjeGE7ICAgICAgPHVzZSB4PSIyNzIuNDYwOTM4IiB4bGluazpocmVmPSIjRGVqYVZ1U2Fucy02YyIvPiYjeGE7ICAgICAgPHVzZSB4PSIzMDAuMjQ0MTQxIiB4bGluazpocmVmPSIjRGVqYVZ1U2Fucy0yMCIvPiYjeGE7ICAgICAgPHVzZSB4PSIzMzIuMDMxMjUiIHhsaW5rOmhyZWY9IiNEZWphVnVTYW5zLTU0Ii8+JiN4YTsgICAgICA8dXNlIHg9IjM3Ny40OTAyMzQiIHhsaW5rOmhyZWY9IiNEZWphVnVTYW5zLTc5Ii8+JiN4YTsgICAgICA8dXNlIHg9IjQzNi42Njk5MjIiIHhsaW5rOmhyZWY9IiNEZWphVnVTYW5zLTcwIi8+JiN4YTsgICAgICA8dXNlIHg9IjUwMC4xNDY0ODQiIHhsaW5rOmhyZWY9IiNEZWphVnVTYW5zLTY1Ii8+JiN4YTsgICAgIDwvZz4mI3hhOyAgICA8L2c+JiN4YTsgICAgPGcgaWQ9ImxpbmUyZF80MyI+JiN4YTsgICAgIDxwYXRoIHN0eWxlPSJmaWxsOiBub25lOyBzdHJva2U6ICMxZjc3YjQ7IHN0cm9rZS13aWR0aDogMS41OyBzdHJva2UtbGluZWNhcDogc3F1YXJlIiBkPSJNIDQyOC4zNDA2MjUgMzIyLjYwMjAzMSAmIzEwO0wgNDM4LjM0MDYyNSAzMjIuNjAyMDMxICYjMTA7TCA0NDguMzQwNjI1IDMyMi42MDIwMzEiLz4mI3hhOyAgICAgPGc+JiN4YTsgICAgICA8dXNlIHN0eWxlPSJmaWxsOiAjMWY3N2I0OyBzdHJva2U6ICMxZjc3YjQiIHk9IjMyMi42MDIwMzEiIHg9IjQzOC4zNDA2MjUiIHhsaW5rOmhyZWY9IiNtYzdmYTcwNDcwOCIvPiYjeGE7ICAgICA8L2c+JiN4YTsgICAgPC9nPiYjeGE7ICAgIDxnIGlkPSJ0ZXh0XzI0Ij4mI3hhOyAgICAgJiN4YTsgICAgIDxnIHRyYW5zZm9ybT0idHJhbnNsYXRlKDQ1Ni4zNDA2MjUgMzI2LjEwMjAzMSkgc2NhbGUoMC4xMiAtMC4xMikiPiYjeGE7ICAgICAgPGRlZnM+JiN4YTsgICAgICAgPHBhdGggdHJhbnNmb3JtPSJzY2FsZSgwLjAxNTYyNSkiIGQ9Ik0gNjI4IDQ2NjYgJiMxMDtMIDMzMDkgNDY2NiAmIzEwO0wgMzMwOSA0MTM0ICYjMTA7TCAxMjU5IDQxMzQgJiMxMDtMIDEyNTkgMjc1OSAmIzEwO0wgMzEwOSAyNzU5ICYjMTA7TCAzMTA5IDIyMjggJiMxMDtMIDEyNTkgMjIyOCAmIzEwO0wgMTI1OSAwICYjMTA7TCA2MjggMCAmIzEwO0wgNjI4IDQ2NjYgJiMxMDt6IiBpZD0iRGVqYVZ1U2Fucy00NiIvPiYjeGE7ICAgICAgIDxwYXRoIHRyYW5zZm9ybT0ic2NhbGUoMC4wMTU2MjUpIiBkPSJNIDM1MTMgMjExMyAmIzEwO0wgMzUxMyAwICYjMTA7TCAyOTM4IDAgJiMxMDtMIDI5MzggMjA5NCAmIzEwO1EgMjkzOCAyNTkxIDI3NDQgMjgzNyAmIzEwO1EgMjU1MCAzMDg0IDIxNjMgMzA4NCAmIzEwO1EgMTY5NyAzMDg0IDE0MjggMjc4NyAmIzEwO1EgMTE1OSAyNDkxIDExNTkgMTk3OCAmIzEwO0wgMTE1OSAwICYjMTA7TCA1ODEgMCAmIzEwO0wgNTgxIDM1MDAgJiMxMDtMIDExNTkgMzUwMCAmIzEwO0wgMTE1OSAyOTU2ICYjMTA7USAxMzY2IDMyNzIgMTY0NSAzNDI4ICYjMTA7USAxOTI1IDM1ODQgMjI5MSAzNTg0ICYjMTA7USAyODk0IDM1ODQgMzIwMyAzMjExICYjMTA7USAzNTEzIDI4MzggMzUxMyAyMTEzICYjMTA7eiIgaWQ9IkRlamFWdVNhbnMtNmUiLz4mI3hhOyAgICAgICA8cGF0aCB0cmFuc2Zvcm09InNjYWxlKDAuMDE1NjI1KSIgZD0iTSA1NDQgMTM4MSAmIzEwO0wgNTQ0IDM1MDAgJiMxMDtMIDExMTkgMzUwMCAmIzEwO0wgMTExOSAxNDAzICYjMTA7USAxMTE5IDkwNiAxMzEyIDY1NyAmIzEwO1EgMTUwNiA0MDkgMTg5NCA0MDkgJiMxMDtRIDIzNTkgNDA5IDI2MjkgNzA2ICYjMTA7USAyOTAwIDEwMDMgMjkwMCAxNTE2ICYjMTA7TCAyOTAwIDM1MDAgJiMxMDtMIDM0NzUgMzUwMCAmIzEwO0wgMzQ3NSAwICYjMTA7TCAyOTAwIDAgJiMxMDtMIDI5MDAgNTM4ICYjMTA7USAyNjkxIDIxOSAyNDE0IDY0ICYjMTA7USAyMTM4IC05MSAxNzcyIC05MSAmIzEwO1EgMTE2OSAtOTEgODU2IDI4NCAmIzEwO1EgNTQ0IDY1OSA1NDQgMTM4MSAmIzEwO3omIzEwO00gMTk5MSAzNTg0ICYjMTA7TCAxOTkxIDM1ODQgJiMxMDt6IiBpZD0iRGVqYVZ1U2Fucy03NSIvPiYjeGE7ICAgICAgPC9kZWZzPiYjeGE7ICAgICAgPHVzZSB4bGluazpocmVmPSIjRGVqYVZ1U2Fucy01MiIvPiYjeGE7ICAgICAgPHVzZSB4PSI2NC45ODI0MjIiIHhsaW5rOmhyZWY9IiNEZWphVnVTYW5zLTY1Ii8+JiN4YTsgICAgICA8dXNlIHg9IjEyNi41MDU4NTkiIHhsaW5rOmhyZWY9IiNEZWphVnVTYW5zLTczIi8+JiN4YTsgICAgICA8dXNlIHg9IjE3OC42MDU0NjkiIHhsaW5rOmhyZWY9IiNEZWphVnVTYW5zLTRlIi8+JiN4YTsgICAgICA8dXNlIHg9IjI1My40MTAxNTYiIHhsaW5rOmhyZWY9IiNEZWphVnVTYW5zLTY1Ii8+JiN4YTsgICAgICA8dXNlIHg9IjMxNC45MzM1OTQiIHhsaW5rOmhyZWY9IiNEZWphVnVTYW5zLTc0Ii8+JiN4YTsgICAgICA8dXNlIHg9IjM1NC4xNDI1NzgiIHhsaW5rOmhyZWY9IiNEZWphVnVTYW5zLTMxIi8+JiN4YTsgICAgICA8dXNlIHg9IjQxNy43NjU2MjUiIHhsaW5rOmhyZWY9IiNEZWphVnVTYW5zLTM4Ii8+JiN4YTsgICAgICA8dXNlIHg9IjQ4MS4zODg2NzIiIHhsaW5rOmhyZWY9IiNEZWphVnVTYW5zLTIwIi8+JiN4YTsgICAgICA8dXNlIHg9IjUxMy4xNzU3ODEiIHhsaW5rOmhyZWY9IiNEZWphVnVTYW5zLTJkIi8+JiN4YTsgICAgICA8dXNlIHg9IjU0OS4yNTk3NjYiIHhsaW5rOmhyZWY9IiNEZWphVnVTYW5zLTIwIi8+JiN4YTsgICAgICA8dXNlIHg9IjU4MS4wNDY4NzUiIHhsaW5rOmhyZWY9IiNEZWphVnVTYW5zLTQ2Ii8+JiN4YTsgICAgICA8dXNlIHg9IjYzMS4zMTY0MDYiIHhsaW5rOmhyZWY9IiNEZWphVnVTYW5zLTY5Ii8+JiN4YTsgICAgICA8dXNlIHg9IjY1OS4wOTk2MDkiIHhsaW5rOmhyZWY9IiNEZWphVnVTYW5zLTZlIi8+JiN4YTsgICAgICA8dXNlIHg9IjcyMi40Nzg1MTYiIHhsaW5rOmhyZWY9IiNEZWphVnVTYW5zLTY1Ii8+JiN4YTsgICAgICA8dXNlIHg9Ijc4NC4wMDE5NTMiIHhsaW5rOmhyZWY9IiNEZWphVnVTYW5zLTJkIi8+JiN4YTsgICAgICA8dXNlIHg9IjgyMC4wODU5MzgiIHhsaW5rOmhyZWY9IiNEZWphVnVTYW5zLTc0Ii8+JiN4YTsgICAgICA8dXNlIHg9Ijg1OS4yOTQ5MjIiIHhsaW5rOmhyZWY9IiNEZWphVnVTYW5zLTc1Ii8+JiN4YTsgICAgICA8dXNlIHg9IjkyMi42NzM4MjgiIHhsaW5rOmhyZWY9IiNEZWphVnVTYW5zLTZlIi8+JiN4YTsgICAgICA8dXNlIHg9Ijk4Ni4wNTI3MzQiIHhsaW5rOmhyZWY9IiNEZWphVnVTYW5zLTY1Ii8+JiN4YTsgICAgICA8dXNlIHg9IjEwNDcuNTc2MTcyIiB4bGluazpocmVmPSIjRGVqYVZ1U2Fucy02NCIvPiYjeGE7ICAgICA8L2c+JiN4YTsgICAgPC9nPiYjeGE7ICAgIDxnIGlkPSJsaW5lMmRfNDQiPiYjeGE7ICAgICA8cGF0aCBzdHlsZT0iZmlsbDogbm9uZTsgc3Ryb2tlOiAjZmY3ZjBlOyBzdHJva2Utd2lkdGg6IDEuNTsgc3Ryb2tlLWxpbmVjYXA6IHNxdWFyZSIgZD0iTSA0MjguMzQwNjI1IDMzOS4yMTU3ODEgJiMxMDtMIDQzOC4zNDA2MjUgMzM5LjIxNTc4MSAmIzEwO0wgNDQ4LjM0MDYyNSAzMzkuMjE1NzgxIi8+JiN4YTsgICAgIDxnPiYjeGE7ICAgICAgPHVzZSBzdHlsZT0iZmlsbDogI2ZmN2YwZTsgc3Ryb2tlOiAjZmY3ZjBlIiB5PSIzMzkuMjE1NzgxIiB4PSI0MzguMzQwNjI1IiB4bGluazpocmVmPSIjbWExZmNiZTU3MTAiLz4mI3hhOyAgICAgPC9nPiYjeGE7ICAgIDwvZz4mI3hhOyAgICA8ZyBpZD0idGV4dF8yNSI+JiN4YTsgICAgICYjeGE7ICAgICA8ZyB0cmFuc2Zvcm09InRyYW5zbGF0ZSg0NTYuMzQwNjI1IDM0Mi43MTU3ODEpIHNjYWxlKDAuMTIgLTAuMTIpIj4mI3hhOyAgICAgIDx1c2UgeGxpbms6aHJlZj0iI0RlamFWdVNhbnMtNTIiLz4mI3hhOyAgICAgIDx1c2UgeD0iNjQuOTgyNDIyIiB4bGluazpocmVmPSIjRGVqYVZ1U2Fucy02NSIvPiYjeGE7ICAgICAgPHVzZSB4PSIxMjYuNTA1ODU5IiB4bGluazpocmVmPSIjRGVqYVZ1U2Fucy03MyIvPiYjeGE7ICAgICAgPHVzZSB4PSIxNzguNjA1NDY5IiB4bGluazpocmVmPSIjRGVqYVZ1U2Fucy00ZSIvPiYjeGE7ICAgICAgPHVzZSB4PSIyNTMuNDEwMTU2IiB4bGluazpocmVmPSIjRGVqYVZ1U2Fucy02NSIvPiYjeGE7ICAgICAgPHVzZSB4PSIzMTQuOTMzNTk0IiB4bGluazpocmVmPSIjRGVqYVZ1U2Fucy03NCIvPiYjeGE7ICAgICAgPHVzZSB4PSIzNTQuMTQyNTc4IiB4bGluazpocmVmPSIjRGVqYVZ1U2Fucy0zNSIvPiYjeGE7ICAgICAgPHVzZSB4PSI0MTcuNzY1NjI1IiB4bGluazpocmVmPSIjRGVqYVZ1U2Fucy0zMCIvPiYjeGE7ICAgICAgPHVzZSB4PSI0ODEuMzg4NjcyIiB4bGluazpocmVmPSIjRGVqYVZ1U2Fucy0yMCIvPiYjeGE7ICAgICAgPHVzZSB4PSI1MTMuMTc1NzgxIiB4bGluazpocmVmPSIjRGVqYVZ1U2Fucy0yZCIvPiYjeGE7ICAgICAgPHVzZSB4PSI1NDkuMjU5NzY2IiB4bGluazpocmVmPSIjRGVqYVZ1U2Fucy0yMCIvPiYjeGE7ICAgICAgPHVzZSB4PSI1ODEuMDQ2ODc1IiB4bGluazpocmVmPSIjRGVqYVZ1U2Fucy00NiIvPiYjeGE7ICAgICAgPHVzZSB4PSI2MzEuMzE2NDA2IiB4bGluazpocmVmPSIjRGVqYVZ1U2Fucy02OSIvPiYjeGE7ICAgICAgPHVzZSB4PSI2NTkuMDk5NjA5IiB4bGluazpocmVmPSIjRGVqYVZ1U2Fucy02ZSIvPiYjeGE7ICAgICAgPHVzZSB4PSI3MjIuNDc4NTE2IiB4bGluazpocmVmPSIjRGVqYVZ1U2Fucy02NSIvPiYjeGE7ICAgICAgPHVzZSB4PSI3ODQuMDAxOTUzIiB4bGluazpocmVmPSIjRGVqYVZ1U2Fucy0yZCIvPiYjeGE7ICAgICAgPHVzZSB4PSI4MjAuMDg1OTM4IiB4bGluazpocmVmPSIjRGVqYVZ1U2Fucy03NCIvPiYjeGE7ICAgICAgPHVzZSB4PSI4NTkuMjk0OTIyIiB4bGluazpocmVmPSIjRGVqYVZ1U2Fucy03NSIvPiYjeGE7ICAgICAgPHVzZSB4PSI5MjIuNjczODI4IiB4bGluazpocmVmPSIjRGVqYVZ1U2Fucy02ZSIvPiYjeGE7ICAgICAgPHVzZSB4PSI5ODYuMDUyNzM0IiB4bGluazpocmVmPSIjRGVqYVZ1U2Fucy02NSIvPiYjeGE7ICAgICAgPHVzZSB4PSIxMDQ3LjU3NjE3MiIgeGxpbms6aHJlZj0iI0RlamFWdVNhbnMtNjQiLz4mI3hhOyAgICAgPC9nPiYjeGE7ICAgIDwvZz4mI3hhOyAgICA8ZyBpZD0ibGluZTJkXzQ1Ij4mI3hhOyAgICAgPHBhdGggc3R5bGU9ImZpbGw6IG5vbmU7IHN0cm9rZTogIzJjYTAyYzsgc3Ryb2tlLXdpZHRoOiAxLjU7IHN0cm9rZS1saW5lY2FwOiBzcXVhcmUiIGQ9Ik0gNDI4LjM0MDYyNSAzNTUuODI5NTMxICYjMTA7TCA0MzguMzQwNjI1IDM1NS44Mjk1MzEgJiMxMDtMIDQ0OC4zNDA2MjUgMzU1LjgyOTUzMSIvPiYjeGE7ICAgICA8Zz4mI3hhOyAgICAgIDx1c2Ugc3R5bGU9ImZpbGw6ICMyY2EwMmM7IHN0cm9rZTogIzJjYTAyYyIgeT0iMzU1LjgyOTUzMSIgeD0iNDM4LjM0MDYyNSIgeGxpbms6aHJlZj0iI204YTVhZjU1Yjk2Ii8+JiN4YTsgICAgIDwvZz4mI3hhOyAgICA8L2c+JiN4YTsgICAgPGcgaWQ9InRleHRfMjYiPiYjeGE7ICAgICAmI3hhOyAgICAgPGcgdHJhbnNmb3JtPSJ0cmFuc2xhdGUoNDU2LjM0MDYyNSAzNTkuMzI5NTMxKSBzY2FsZSgwLjEyIC0wLjEyKSI+JiN4YTsgICAgICA8dXNlIHhsaW5rOmhyZWY9IiNEZWphVnVTYW5zLTUyIi8+JiN4YTsgICAgICA8dXNlIHg9IjY0Ljk4MjQyMiIgeGxpbms6aHJlZj0iI0RlamFWdVNhbnMtNjUiLz4mI3hhOyAgICAgIDx1c2UgeD0iMTI2LjUwNTg1OSIgeGxpbms6aHJlZj0iI0RlamFWdVNhbnMtNzMiLz4mI3hhOyAgICAgIDx1c2UgeD0iMTc4LjYwNTQ2OSIgeGxpbms6aHJlZj0iI0RlamFWdVNhbnMtNGUiLz4mI3hhOyAgICAgIDx1c2UgeD0iMjUzLjQxMDE1NiIgeGxpbms6aHJlZj0iI0RlamFWdVNhbnMtNjUiLz4mI3hhOyAgICAgIDx1c2UgeD0iMzE0LjkzMzU5NCIgeGxpbms6aHJlZj0iI0RlamFWdVNhbnMtNzQiLz4mI3hhOyAgICAgIDx1c2UgeD0iMzU0LjE0MjU3OCIgeGxpbms6aHJlZj0iI0RlamFWdVNhbnMtMzUiLz4mI3hhOyAgICAgIDx1c2UgeD0iNDE3Ljc2NTYyNSIgeGxpbms6aHJlZj0iI0RlamFWdVNhbnMtMzAiLz4mI3hhOyAgICAgIDx1c2UgeD0iNDgxLjM4ODY3MiIgeGxpbms6aHJlZj0iI0RlamFWdVNhbnMtMjAiLz4mI3hhOyAgICAgIDx1c2UgeD0iNTEzLjE3NTc4MSIgeGxpbms6aHJlZj0iI0RlamFWdVNhbnMtMmQiLz4mI3hhOyAgICAgIDx1c2UgeD0iNTQ5LjI1OTc2NiIgeGxpbms6aHJlZj0iI0RlamFWdVNhbnMtMjAiLz4mI3hhOyAgICAgIDx1c2UgeD0iNTgxLjA0Njg3NSIgeGxpbms6aHJlZj0iI0RlamFWdVNhbnMtNDYiLz4mI3hhOyAgICAgIDx1c2UgeD0iNjMxLjMxNjQwNiIgeGxpbms6aHJlZj0iI0RlamFWdVNhbnMtNzIiLz4mI3hhOyAgICAgIDx1c2UgeD0iNjcwLjE3OTY4OCIgeGxpbms6aHJlZj0iI0RlamFWdVNhbnMtNmYiLz4mI3hhOyAgICAgIDx1c2UgeD0iNzMxLjM2MTMyOCIgeGxpbms6aHJlZj0iI0RlamFWdVNhbnMtNmQiLz4mI3hhOyAgICAgIDx1c2UgeD0iODI4Ljc3MzQzOCIgeGxpbms6aHJlZj0iI0RlamFWdVNhbnMtMjAiLz4mI3hhOyAgICAgIDx1c2UgeD0iODYwLjU2MDU0NyIgeGxpbms6aHJlZj0iI0RlamFWdVNhbnMtNTMiLz4mI3hhOyAgICAgIDx1c2UgeD0iOTI0LjAzNzEwOSIgeGxpbms6aHJlZj0iI0RlamFWdVNhbnMtNjMiLz4mI3hhOyAgICAgIDx1c2UgeD0iOTc5LjAxNzU3OCIgeGxpbms6aHJlZj0iI0RlamFWdVNhbnMtNzIiLz4mI3hhOyAgICAgIDx1c2UgeD0iMTAyMC4xMzA4NTkiIHhsaW5rOmhyZWY9IiNEZWphVnVTYW5zLTYxIi8+JiN4YTsgICAgICA8dXNlIHg9IjEwODEuNDEwMTU2IiB4bGluazpocmVmPSIjRGVqYVZ1U2Fucy03NCIvPiYjeGE7ICAgICAgPHVzZSB4PSIxMTIwLjYxOTE0MSIgeGxpbms6aHJlZj0iI0RlamFWdVNhbnMtNjMiLz4mI3hhOyAgICAgIDx1c2UgeD0iMTE3NS41OTk2MDkiIHhsaW5rOmhyZWY9IiNEZWphVnVTYW5zLTY4Ii8+JiN4YTsgICAgIDwvZz4mI3hhOyAgICA8L2c+JiN4YTsgICAgPGcgaWQ9ImxpbmUyZF80NiI+JiN4YTsgICAgIDxwYXRoIHN0eWxlPSJmaWxsOiBub25lOyBzdHJva2U6ICNkNjI3Mjg7IHN0cm9rZS13aWR0aDogMS41OyBzdHJva2UtbGluZWNhcDogc3F1YXJlIiBkPSJNIDQyOC4zNDA2MjUgMzcyLjQ0MzI4MSAmIzEwO0wgNDM4LjM0MDYyNSAzNzIuNDQzMjgxICYjMTA7TCA0NDguMzQwNjI1IDM3Mi40NDMyODEiLz4mI3hhOyAgICAgPGc+JiN4YTsgICAgICA8dXNlIHN0eWxlPSJmaWxsOiAjZDYyNzI4OyBzdHJva2U6ICNkNjI3MjgiIHk9IjM3Mi40NDMyODEiIHg9IjQzOC4zNDA2MjUiIHhsaW5rOmhyZWY9IiNtNmZkODZjMDVhYyIvPiYjeGE7ICAgICA8L2c+JiN4YTsgICAgPC9nPiYjeGE7ICAgIDxnIGlkPSJ0ZXh0XzI3Ij4mI3hhOyAgICAgJiN4YTsgICAgIDxnIHRyYW5zZm9ybT0idHJhbnNsYXRlKDQ1Ni4zNDA2MjUgMzc1Ljk0MzI4MSkgc2NhbGUoMC4xMiAtMC4xMikiPiYjeGE7ICAgICAgPHVzZSB4bGluazpocmVmPSIjRGVqYVZ1U2Fucy01MiIvPiYjeGE7ICAgICAgPHVzZSB4PSI2NC45ODI0MjIiIHhsaW5rOmhyZWY9IiNEZWphVnVTYW5zLTY1Ii8+JiN4YTsgICAgICA8dXNlIHg9IjEyNi41MDU4NTkiIHhsaW5rOmhyZWY9IiNEZWphVnVTYW5zLTczIi8+JiN4YTsgICAgICA8dXNlIHg9IjE3OC42MDU0NjkiIHhsaW5rOmhyZWY9IiNEZWphVnVTYW5zLTRlIi8+JiN4YTsgICAgICA8dXNlIHg9IjI1My40MTAxNTYiIHhsaW5rOmhyZWY9IiNEZWphVnVTYW5zLTY1Ii8+JiN4YTsgICAgICA8dXNlIHg9IjMxNC45MzM1OTQiIHhsaW5rOmhyZWY9IiNEZWphVnVTYW5zLTc0Ii8+JiN4YTsgICAgICA8dXNlIHg9IjM1NC4xNDI1NzgiIHhsaW5rOmhyZWY9IiNEZWphVnVTYW5zLTMxIi8+JiN4YTsgICAgICA8dXNlIHg9IjQxNy43NjU2MjUiIHhsaW5rOmhyZWY9IiNEZWphVnVTYW5zLTM4Ii8+JiN4YTsgICAgICA8dXNlIHg9IjQ4MS4zODg2NzIiIHhsaW5rOmhyZWY9IiNEZWphVnVTYW5zLTIwIi8+JiN4YTsgICAgICA8dXNlIHg9IjUxMy4xNzU3ODEiIHhsaW5rOmhyZWY9IiNEZWphVnVTYW5zLTJkIi8+JiN4YTsgICAgICA8dXNlIHg9IjU0OS4yNTk3NjYiIHhsaW5rOmhyZWY9IiNEZWphVnVTYW5zLTIwIi8+JiN4YTsgICAgICA8dXNlIHg9IjU4MS4wNDY4NzUiIHhsaW5rOmhyZWY9IiNEZWphVnVTYW5zLTQ2Ii8+JiN4YTsgICAgICA8dXNlIHg9IjYzMS4zMTY0MDYiIHhsaW5rOmhyZWY9IiNEZWphVnVTYW5zLTcyIi8+JiN4YTsgICAgICA8dXNlIHg9IjY3MC4xNzk2ODgiIHhsaW5rOmhyZWY9IiNEZWphVnVTYW5zLTZmIi8+JiN4YTsgICAgICA8dXNlIHg9IjczMS4zNjEzMjgiIHhsaW5rOmhyZWY9IiNEZWphVnVTYW5zLTZkIi8+JiN4YTsgICAgICA8dXNlIHg9IjgyOC43NzM0MzgiIHhsaW5rOmhyZWY9IiNEZWphVnVTYW5zLTIwIi8+JiN4YTsgICAgICA8dXNlIHg9Ijg2MC41NjA1NDciIHhsaW5rOmhyZWY9IiNEZWphVnVTYW5zLTUzIi8+JiN4YTsgICAgICA8dXNlIHg9IjkyNC4wMzcxMDkiIHhsaW5rOmhyZWY9IiNEZWphVnVTYW5zLTYzIi8+JiN4YTsgICAgICA8dXNlIHg9Ijk3OS4wMTc1NzgiIHhsaW5rOmhyZWY9IiNEZWphVnVTYW5zLTcyIi8+JiN4YTsgICAgICA8dXNlIHg9IjEwMjAuMTMwODU5IiB4bGluazpocmVmPSIjRGVqYVZ1U2Fucy02MSIvPiYjeGE7ICAgICAgPHVzZSB4PSIxMDgxLjQxMDE1NiIgeGxpbms6aHJlZj0iI0RlamFWdVNhbnMtNzQiLz4mI3hhOyAgICAgIDx1c2UgeD0iMTEyMC42MTkxNDEiIHhsaW5rOmhyZWY9IiNEZWphVnVTYW5zLTYzIi8+JiN4YTsgICAgICA8dXNlIHg9IjExNzUuNTk5NjA5IiB4bGluazpocmVmPSIjRGVqYVZ1U2Fucy02OCIvPiYjeGE7ICAgICA8L2c+JiN4YTsgICAgPC9nPiYjeGE7ICAgPC9nPiYjeGE7ICA8L2c+JiN4YTsgPC9nPiYjeGE7IDxkZWZzPiYjeGE7ICA8Y2xpcFBhdGggaWQ9InBlZDMzYjMwYzY1Ij4mI3hhOyAgIDxyZWN0IGhlaWdodD0iMzc0LjkyIiB3aWR0aD0iNTQ5LjE2IiB5PSIxMi41MTg5MDYiIHg9IjY0Ljg1Njg3NSIvPiYjeGE7ICA8L2NsaXBQYXRoPiYjeGE7IDwvZGVmcz4mI3hhOzwvc3ZnPg==;" vertex="1" parent="1">
          <mxGeometry x="-90" y="600" width="621" height="435" as="geometry" />
        </mxCell>
      </root>
    </mxGraphModel>
  </diagram>
</mxfile>
